<?xml version="1.0" encoding="UTF-8" standalone="no"?>
<!-- Created with Inkscape (http://www.inkscape.org/) -->

<svg
   width="55.862068mm"
   height="33.685585mm"
   viewBox="0 0 55.862067 33.685585"
   version="1.1"
   id="svg2034"
   inkscape:version="1.2.2 (732a01da63, 2022-12-09)"
   sodipodi:docname="stand_star.svg"
   xmlns:inkscape="http://www.inkscape.org/namespaces/inkscape"
   xmlns:sodipodi="http://sodipodi.sourceforge.net/DTD/sodipodi-0.dtd"
   xmlns="http://www.w3.org/2000/svg"
   xmlns:svg="http://www.w3.org/2000/svg"
   xmlns:rdf="http://www.w3.org/1999/02/22-rdf-syntax-ns#"
   xmlns:cc="http://creativecommons.org/ns#"
   xmlns:dc="http://purl.org/dc/elements/1.1/">
  <defs
     id="defs2028" />
  <sodipodi:namedview
     id="base"
     pagecolor="#ffffff"
     bordercolor="#666666"
     borderopacity="1.0"
     inkscape:pageopacity="0.0"
     inkscape:pageshadow="2"
     inkscape:zoom="2.2740902"
     inkscape:cx="122.02682"
     inkscape:cy="55.84651"
     inkscape:document-units="mm"
     inkscape:current-layer="layer1"
     showgrid="false"
     inkscape:window-width="1366"
     inkscape:window-height="705"
     inkscape:window-x="-8"
     inkscape:window-y="-8"
     inkscape:window-maximized="1"
     inkscape:showpageshadow="0"
     inkscape:pagecheckerboard="0"
     inkscape:deskcolor="#d1d1d1" />
  <metadata
     id="metadata2031">
    <rdf:RDF>
      <cc:Work
         rdf:about="">
        <dc:format>image/svg+xml</dc:format>
        <dc:type
           rdf:resource="http://purl.org/dc/dcmitype/StillImage" />
      </cc:Work>
    </rdf:RDF>
  </metadata>
  <g
     inkscape:label="Layer 1"
     inkscape:groupmode="layer"
     id="layer1"
     transform="translate(-77.912079,-4.9347222)">
    <path
       style="display:inline;fill:#9f480a;fill-opacity:1;stroke:#9d4c24;stroke-width:0.345003px;stroke-linecap:butt;stroke-linejoin:miter;stroke-opacity:1"
       d="m 98.177793,11.709546 c -11.95005,1.530354 -15.19933,2.753182 -15.55594,3.287418 -0.21303,0.319183 -0.30924,0.440707 -0.5772,1.011083 0.73736,1.87629 6.79531,3.741433 9.46684,5.196317 -0.22854,-0.238013 -3.38918,7.097158 -2.3566,9.255007 1.69149,0.570923 11.547377,-1.624173 16.608947,-2.724253 0,0 15.24353,4.083681 16.26335,2.948703 0.97577,-1.085954 0.0637,-6.510472 -1.37768,-9.610211 2.21351,-1.067341 5.49189,-2.796389 8.6506,-4.705417 0.004,-1.027054 0.035,-1.514111 -0.37125,-1.62214 -4.52412,-1.203121 -9.75673,-2.730843 -14.49802,-2.954812 0,0 -6.27673,-6.4591309 -8.1504,-6.4831413 -1.91941,-0.024653 -8.102647,6.4014463 -8.102647,6.4014463 z"
       id="path21901"
       inkscape:connector-curvature="0"
       sodipodi:nodetypes="csccccsccscsc" />
    <path
       sodipodi:nodetypes="csccccsccscsc"
       inkscape:connector-curvature="0"
       id="path21899"
       d="m 98.362903,11.470049 c -9.13201,0.900208 -13.30873,1.570695 -14.48619,2.092462 -0.50496,0.223762 -0.9015,0.637469 -1.19123,1.307017 0.62356,1.575067 7.1911,3.970778 9.73756,5.649621 -0.35042,-0.04557 -3.05009,5.515314 -2.42982,8.507441 6.67845,-0.0058 11.131667,-1.841646 16.088477,-3.15067 -0.10039,0.522626 14.0916,4.173975 15.53456,3.361918 1.29552,-0.72908 -1.44181,-8.552557 -1.73243,-8.789892 2.03912,-1.230517 6.33834,-3.659622 9.31997,-5.657902 -0.0983,-0.685522 -0.79237,-1.407353 -1.07492,-1.479381 -4.45657,-1.136065 -8.91714,-1.635242 -13.73917,-1.719003 0,0 -6.21324,-6.4701376 -8.01573,-6.4927228 -1.84645,-0.023135 -8.011077,6.3711118 -8.011077,6.3711118 z"
       style="display:inline;fill:#fa8502;fill-opacity:1;stroke:#fa880b;stroke-width:0.328284px;stroke-linecap:butt;stroke-linejoin:miter;stroke-opacity:1" />
    <path
       style="display:inline;fill:#ffcb48;fill-opacity:1;stroke:#ffcb48;stroke-width:0.302933px;stroke-linecap:butt;stroke-linejoin:miter;stroke-opacity:1"
       d="m 98.668633,11.717515 c -14.33679,1.717972 -12.8797,1.58946 -14.52615,1.96448 0.45569,1.905897 7.1417,4.787531 9.65721,5.890965 0,0 -3.11456,5.112145 -2.8539,7.771915 6.38286,-0.248039 10.586337,-1.908901 15.180857,-2.843253 0,0 13.36481,3.427133 14.65817,3.033878 1.32896,-0.404079 -1.89652,-7.629069 -2.17074,-7.843248 1.97799,-0.815142 6.55176,-3.481288 9.19991,-6.189886 -4.51171,-0.950943 -9.11899,-1.503805 -13.80923,-1.711125 0,0 -5.94621,-6.3748545 -7.64699,-6.3952314 -1.74228,-0.020915 -7.689137,6.3215054 -7.689137,6.3215054 z"
       id="path21897"
       inkscape:connector-curvature="0"
       sodipodi:nodetypes="cccccscccsc" />
    <path
       sodipodi:nodetypes="cccccscccsc"
       inkscape:connector-curvature="0"
       id="path21903"
       d="m 100.18782,12.186592 c -11.025537,1.296777 -9.904987,1.199799 -11.171177,1.482867 0.35045,1.438644 5.49225,3.613809 7.42677,4.446721 0,0 -2.39521,3.858823 -2.19475,5.866522 4.90866,-0.187224 8.141297,-1.440922 11.674677,-2.146189 0,0 10.27806,2.586909 11.27272,2.290078 1.02201,-0.305022 -1.4585,-5.758691 -1.6694,-5.920372 1.52117,-0.615301 5.03857,-2.627801 7.07509,-4.672351 -3.46967,-0.717816 -7.01285,-1.135121 -10.61982,-1.291628 0,0 -4.57288,-4.8119736 -5.88085,-4.8273496 -1.33988,-0.015773 -5.91326,4.7717016 -5.91326,4.7717016 z"
       style="display:inline;fill:#fff466;fill-opacity:1;stroke:#ffcb48;stroke-width:0.230806px;stroke-linecap:butt;stroke-linejoin:miter;stroke-opacity:1" />
  </g>
</svg>
