<?xml version="1.0" encoding="UTF-8" standalone="no"?>
<!-- Created with Inkscape (http://www.inkscape.org/) -->

<svg
   width="68.62011mm"
   height="15.807329mm"
   viewBox="0 0 68.62011 15.80733"
   version="1.1"
   id="svg22119"
   xml:space="preserve"
   inkscape:version="1.2.2 (732a01da63, 2022-12-09)"
   sodipodi:docname="play now white container.svg"
   xmlns:inkscape="http://www.inkscape.org/namespaces/inkscape"
   xmlns:sodipodi="http://sodipodi.sourceforge.net/DTD/sodipodi-0.dtd"
   xmlns="http://www.w3.org/2000/svg"
   xmlns:svg="http://www.w3.org/2000/svg"><sodipodi:namedview
     id="namedview22121"
     pagecolor="#505050"
     bordercolor="#eeeeee"
     borderopacity="1"
     inkscape:showpageshadow="0"
     inkscape:pageopacity="0"
     inkscape:pagecheckerboard="0"
     inkscape:deskcolor="#505050"
     inkscape:document-units="mm"
     showgrid="false"
     inkscape:zoom="5.2913967"
     inkscape:cx="65.483656"
     inkscape:cy="37.608218"
     inkscape:window-width="1366"
     inkscape:window-height="705"
     inkscape:window-x="-8"
     inkscape:window-y="-8"
     inkscape:window-maximized="1"
     inkscape:current-layer="layer1" /><defs
     id="defs22116" /><g
     inkscape:label="Layer 1"
     inkscape:groupmode="layer"
     id="layer1"
     transform="translate(-53.314024,-111.68967)"
     style="display:inline"><path
       id="path22307"
       style="display:inline;fill:#659caf;fill-opacity:1;stroke-width:1.065"
       d="m 87.658181,111.68969 c -0.178653,-2.5e-4 -0.36882,0.002 -0.559139,0.006 l -29.601294,0.70021 c -1.817905,0.043 -3.065091,1.22323 -3.200321,2.90008 L 53.314024,127.497 h 68.620106 l -0.98341,-12.20081 c -0.13523,-1.67685 -1.38241,-2.85709 -3.20032,-2.90008 L 88.149107,111.6959 c -0.145132,-0.003 -0.312273,-0.006 -0.490926,-0.006 z"
       sodipodi:insensitive="true" /><path
       id="path22850"
       style="display:inline;fill:#d8edf2;fill-opacity:1;stroke-width:1.05994"
       d="m 87.658181,111.94446 c -0.177804,-2.4e-4 -0.36714,0.002 -0.556555,0.006 l -29.460734,0.6966 c -1.809271,0.0429 -3.050747,1.21776 -3.185335,2.88664 l -0.964283,11.9631 h 68.265606 l -0.96429,-11.9631 c -0.13458,-1.66888 -1.37606,-2.84386 -3.18533,-2.88664 l -29.460736,-0.6966 c -0.144442,-0.003 -0.310539,-0.006 -0.488343,-0.006 z"
       sodipodi:insensitive="true" /><path
       id="path28738"
       style="display:inline;fill:#fcfefb;fill-opacity:1;stroke-width:1.01307"
       d="m 87.656631,113.1449 c -0.169941,-2.3e-4 -0.350713,0.002 -0.531751,0.006 l -28.157971,0.66611 c -1.729266,0.041 -2.915623,1.1634 -3.044258,2.75848 L 55.042084,127.497 h 65.163986 l -0.88057,-10.9213 c -0.12863,-1.59509 -1.315,-2.7176 -3.04426,-2.75849 L 88.123269,113.1511 c -0.138054,-0.003 -0.296697,-0.006 -0.466638,-0.006 z"
       sodipodi:insensitive="true" /><path
       id="path29352"
       style="display:inline;fill:#afd2ef;fill-opacity:1;stroke-width:1.065"
       d="m 116.82539,124.29668 a 2.1751111,2.1751111 0 0 0 -2.17506,2.17506 2.1751111,2.1751111 0 0 0 0.2589,1.02526 h 3.83284 a 2.1751111,2.1751111 0 0 0 0.25838,-1.02526 2.1751111,2.1751111 0 0 0 -2.17506,-2.17506 z" /><path
       id="circle30182"
       style="display:inline;fill:#afd2ef;fill-opacity:1;stroke-width:1.065"
       d="m 109.52506,124.29668 a 2.1751111,2.1751111 0 0 0 -2.17506,2.17506 2.1751111,2.1751111 0 0 0 0.2589,1.02526 h 3.83233 a 2.1751111,2.1751111 0 0 0 0.25889,-1.02526 2.1751111,2.1751111 0 0 0 -2.17506,-2.17506 z" /><path
       style="display:inline;fill:#d8edf2;fill-opacity:1;stroke-width:1.065"
       d="m 70.848181,113.19602 c -4.407683,0.16278 -5.224978,2.33153 -7.45038,1.9501 -1.248258,-0.21395 -1.578691,-1.89654 -3.350171,-2.00011 l -2.450125,0.70004 c 0,0 5.977143,0.84162 5.650288,2.70013 -0.191378,1.08819 -8.000408,1.55009 -8.000408,1.55009 0.923272,-2.64016 -3.259383,-7.06933 15.600796,-4.90025 z"
       id="path30514"
       sodipodi:nodetypes="csccscc" /><circle
       style="fill:#fcfefb;fill-opacity:1;stroke-width:1.065"
       id="path30656"
       cx="63.460304"
       cy="113.90855"
       r="0.38751975" /></g></svg>
