<?xml version="1.0" encoding="UTF-8" standalone="no"?>
<!-- Created with Inkscape (http://www.inkscape.org/) -->

<svg
   width="7.1341553mm"
   height="9.1056604mm"
   viewBox="0 0 7.1341553 9.1056604"
   version="1.1"
   id="svg5"
   inkscape:version="1.1.2 (b8e25be833, 2022-02-05)"
   inkscape:export-filename="C:\Users\user\OneDrive\Pictures\Saved Pictures\inkscape fuckery\redapple.png"
   inkscape:export-xdpi="4.2333298"
   inkscape:export-ydpi="4.2333298"
   xmlns:inkscape="http://www.inkscape.org/namespaces/inkscape"
   xmlns:sodipodi="http://sodipodi.sourceforge.net/DTD/sodipodi-0.dtd"
   xmlns="http://www.w3.org/2000/svg"
   xmlns:svg="http://www.w3.org/2000/svg">
  <sodipodi:namedview
     id="namedview7"
     pagecolor="#ffffff"
     bordercolor="#666666"
     borderopacity="1.0"
     inkscape:pageshadow="2"
     inkscape:pageopacity="0.0"
     inkscape:pagecheckerboard="0"
     inkscape:document-units="mm"
     showgrid="false"
     fit-margin-top="0"
     fit-margin-left="0"
     fit-margin-right="0"
     fit-margin-bottom="0"
     inkscape:zoom="16"
     inkscape:cx="3.46875"
     inkscape:cy="16.625"
     inkscape:window-width="1600"
     inkscape:window-height="829"
     inkscape:window-x="-8"
     inkscape:window-y="-8"
     inkscape:window-maximized="1"
     inkscape:current-layer="layer2" />
  <defs
     id="defs2" />
  <g
     inkscape:groupmode="layer"
     id="layer2"
     inkscape:label="Layer 2"
     style="display:inline;opacity:1"
     transform="translate(-87.333404,-143.35294)">
    <ellipse
       style="fill:#fb990f;fill-opacity:1;stroke-width:0.264583"
       id="path5448"
       cx="90.886513"
       cy="149.18074"
       rx="3.5531085"
       ry="3.2708521" />
    <path
       style="fill:#cd6700;fill-opacity:1;stroke:none;stroke-width:0.264583px;stroke-linecap:butt;stroke-linejoin:miter;stroke-opacity:1"
       d="m 89.273337,152.08401 c 0,0 -0.01038,0.006 0.01559,0.0197 0.236948,0.12505 1.54456,0.72495 3.248221,0.01 1.442044,-0.87684 1.80231,-1.4781 1.922563,-2.98774 0.09373,-1.17667 -0.666348,-1.97413 -1.228774,-2.41206 -0.165561,-0.12892 -0.318715,-0.22007 -0.422042,-0.2888 -0.160833,-0.10698 -0.4318,-0.22188 -0.642797,-0.29647 -0.168919,-0.0597 -0.300145,-0.091 -0.300145,-0.091 0,0 1.446056,1.11595 1.093846,2.9944 -0.352208,1.87845 -2.465465,2.86463 -3.686458,3.05247 z"
       id="path5565"
       sodipodi:nodetypes="cscsssscscc" />
    <path
       style="fill:#4b4400;fill-opacity:1;stroke:none;stroke-width:0.264583px;stroke-linecap:butt;stroke-linejoin:miter;stroke-opacity:1"
       d="m 90.967056,145.91771 c 0,0 -0.129452,-0.79777 0.217811,-1.19464 0.347266,-0.39688 0.609674,-0.45537 1.039964,-0.30533 0.522316,0.18213 0.209128,0.97194 -0.072,0.95544 -0.208745,-0.0122 -0.615446,-0.12885 -0.789894,0.13601 -0.06048,0.0918 -0.07979,0.25433 -0.04449,0.39198 0.03015,0.11755 -0.292935,0.0458 -0.292935,0.0458 z"
       id="path15455"
       sodipodi:nodetypes="cssssscc" />
    <path
       style="fill:#60701f;fill-opacity:1;stroke:none;stroke-width:0.264583px;stroke-linecap:butt;stroke-linejoin:miter;stroke-opacity:1"
       d="m 90.082484,146.00073 c 0,0 0.11764,-1.22918 0.04748,-1.50982 -0.07016,-0.28063 -0.795126,-1.02898 -1.075759,-1.13422 -0.280633,-0.10524 -0.631425,2.03459 -0.350793,2.29184 0.280633,0.25724 0.684621,0.54562 0.831505,0.5165 0.174807,-0.0347 0.547565,-0.1643 0.547565,-0.1643 z"
       id="path28413"
       sodipodi:nodetypes="cssssc" />
    <ellipse
       style="fill:#ffce7e;fill-opacity:1;stroke:none;stroke-width:0.408105"
       id="path36985"
       cx="135.43132"
       cy="123.07726"
       rx="1.0508652"
       ry="1.1880459"
       transform="matrix(0.97037115,0.24161918,-0.34519427,0.93853125,0,0)" />
  </g>
</svg>
