<?xml version="1.0" encoding="UTF-8"?><svg id="Layer_1" xmlns="http://www.w3.org/2000/svg" viewBox="0 0 401.04 465.1"><defs><style>.cls-1{fill:#93878c;}.cls-2{fill:#a01e31;}.cls-3{fill:#ab8829;}.cls-4{fill:#c49e33;}.cls-5{fill:#7c6922;}.cls-6{fill:#b52334;}.cls-7{fill:#be9931;}.cls-8{fill:#b32333;}.cls-9{fill:#cbc4c3;}.cls-10{fill:#8a7b81;}.cls-11{fill:#a88426;}.cls-12{fill:#bb2534;}.cls-13{fill:#c8c1c0;}.cls-14{fill:#c5bebe;}.cls-15{fill:#ba2534;}.cls-16{fill:#b12233;}.cls-17{fill:#a41e32;}.cls-18{fill:#998e92;}.cls-19{fill:#bc982f;}.cls-20{fill:#c7c0bf;}.cls-21{fill:#908288;}.cls-22{fill:#8e8085;}.cls-23{fill:#a68023;}.cls-24{fill:#998e93;}.cls-25{fill:#968b8f;}.cls-26{fill:#ad2133;}.cls-27{fill:#9b1d30;}.cls-28{fill:#981b2e;}.cls-29{fill:#b02232;}.cls-30{fill:#a72031;}.cls-31{fill:#8f8288;}.cls-32{fill:#c9c2c1;}.cls-33{fill:#a67e21;}.cls-34{fill:#c8c0c0;}.cls-35{fill:#95898e;}.cls-36{fill:#a67f21;}.cls-37{fill:#9c9296;}.cls-38{fill:#ac2132;}.cls-39{fill:#a88526;}.cls-40{fill:#a51f32;}.cls-41{fill:#a88527;}.cls-42{fill:#92858a;}.cls-43{fill:#a67f22;}.cls-44{fill:#a57b1f;}.cls-45{fill:#b02637;}.cls-46{fill:#cdab4a;}.cls-47{fill:#9d1c2f;}.cls-48{fill:#b92434;}.cls-49{fill:#bf2635;}.cls-50{fill:#961c2f;}.cls-51{fill:#a21f30;}.cls-52{fill:#a88224;}.cls-53{fill:#8c7322;}.cls-54{fill:#a81f32;}.cls-55{fill:#c19c32;}.cls-56{fill:#cecace;}.cls-57{fill:#a88325;}</style></defs><path class="cls-49" d="M20.45,80.55c.15-1.87,1.05-3.51,1.58-5.27,.79-2.64,1.78-5.24,2.46-7.91,1.32-5.14,4.1-9.33,7.97-12.87,2.81-2.57,5.86-4.81,9.03-6.9,14.56-9.56,28.92-19.4,43.02-29.62,5.57-4.03,11.44-7.58,17.48-10.83,4.64-2.49,9.75-3.68,14.88-4.64C126.27,.75,135.77,.09,145.31,.05c23.27-.11,46.53-.07,69.79,.72,17.61,.6,35.19,1.78,52.69,4.01,6.6,.84,13.33,1.16,19.66,3.24,6.66,2.19,13.34,4.51,19.25,8.47,.65,.83,1.57,1.47,1.76,2.61,.24,4.75,3.1,8.4,5.31,12.29,1.51,2.68,2.76,5.5,4.42,8.09,.5,.78,.82,1.66,.45,2.63-.15,.25-.36,.44-.63,.56-.28,.03-.55,0-.82-.08-.25-.08-.49-.19-.72-.32-.22-.13-.43-.28-.62-.43-.1-.07-.2-.15-.3-.22-.21-.13-.41-.27-.62-.4-.22-.12-.42-.25-.62-.39-.21-.13-.41-.28-.61-.43-.11-.07-.21-.14-.31-.21-.23-.12-.45-.25-.68-.37-1.58-.75-3.1-1.6-4.51-2.65-.22-.16-.43-.33-.62-.52-.2-.18-.4-.37-.59-.56-.1-.09-.2-.19-.3-.27-.22-.17-.44-.34-.67-.51-.12-.08-.24-.16-.36-.24-.27-.15-.52-.31-.78-.48-18.32-15.14-40.06-21.92-63-25.74-11.83-1.97-23.73-3.05-35.71-3.81-28.35-1.81-56.03,1.81-83.25,9.38-16.4,4.56-31.12,12.52-44.13,23.59-4.59,3.91-10.13,6.62-14.26,11.15-.62,.68-1.3,1.31-1.9,2.01-9.5,11.09-9.22,22.95,.99,33.5,6.89,7.11,15.46,11.78,24.39,15.76,9.57,4.27,19.52,7.46,29.75,9.77,4.54,1.32,9.21,2.1,13.84,3.04,.93,.31,1.89,.43,2.86,.47,.5,.04,.99,.13,1.48,.25,5.72,.92,11.46,1.62,17.21,2.34,1.29,.43,2.61,.46,3.95,.4,1.01,0,2.02,.06,3.01,.26,1.46,.51,2.98,.38,4.48,.34,1.05,0,2.1,.06,3.14,.27,3.38,.71,6.8,.23,10.2,.32,1.12-.05,2.23,.05,3.33,.26,6.23,.66,12.5,.6,18.7,.12,5.41-.42,10.83-.48,16.24-.87,10.74-.78,21.39-2.11,32.01-3.77,6.08-.69,11.98-2.3,17.95-3.57,2.46-.28,4.74-1.32,7.16-1.74,.55-.12,1.1-.21,1.64-.37,.38-.12,.77-.22,1.16-.33,.38-.13,.75-.25,1.13-.38,.26-.1,.52-.17,.79-.23,1.96-.4,3.79-1.2,5.7-1.73,.38-.13,.76-.24,1.14-.37,.24-.1,.49-.17,.75-.25,.51-.15,1.01-.33,1.5-.54,.26-.12,.52-.22,.79-.31,10.3-4.02,20.37-8.48,29.18-15.34,3.81-2.97,7.3-6.22,9.97-10.28,.6-.91,1.09-2.02,2.42-2.13,2.31,1.23,2.48,3.59,2.25,5.6-.45,4-.31,7.98-.31,11.97,0,2.35-.57,4.39-1.84,6.37-7.92,12.31-17.31,23.27-28.49,32.8-9.13,7.79-18.59,15.12-28.15,22.35-2.05,1.55-4.16,3.11-7.02,2.13-4.09-2.8-7.1-6.77-10.92-9.89-12.53-10.24-27.05-15.16-42.93-16.59-11.23-1.01-22.49-1.12-33.75-1.35-10.84-.23-21.64-1.61-32.44-2.64-13.35-1.27-26.68-2.77-40.09-3.49-10.02-.54-20.03-1.33-30.07-1.16-5.64,.09-11.21,1.07-16.84,1.19-1.97,.02-3.46-.91-4.85-2.25-11.04-10.59-20.7-22.34-29.3-34.97-1.33-1.95-2.81-3.75-4.3-5.55Z"/><path class="cls-4" d="M88.18,315.69c-1.9-4.16-3.11-8.58-4.5-12.91-2.3-7.15-4.73-14.27-6.56-21.56-2.57-9.26-4.62-18.62-5.97-28.14-1.99-14.09-3.48-28.22-4.29-42.44-.66-11.55-.77-23.11-1.31-34.65-.63-13.42-.17-26.82-.44-40.22-.03-1.32-.08-2.67,.54-3.92,.84-1.21,2.16-1.44,3.48-1.68,3.62-.65,7.28-1.22,10.82-2.17,7.07-1.89,14.15-1.71,21.29-.61,3.67,1.1,3.98,1.31,3.27,4.84-3.24,16-2.92,32.22-2.3,48.35,1.07,28.2,2.41,56.41,6.63,84.37,.93,6.17,2.22,12.28,2.98,18.48,0,1.24-.32,2.4-.88,3.52-1.76,3.48-1.35,6.62,1.33,9.57,2.2,2.41,2.08,3.4-.62,5.44-3.75,2.82-7.49,5.66-11.32,8.39-2.65,1.89-5.35,3.77-8.83,3.87-1.27,.04-2.19,1.04-3.32,1.49Z"/><path class="cls-9" d="M328.19,387c1.75,2.37,2.41,5.2,2.97,7.97,2.19,10.93-1.38,20.32-8.04,28.84-6.71,8.57-15.41,14.61-24.85,19.67-14.82,7.94-30.72,12.81-47.12,16.22-7,1.46-14.05,2.64-21.14,3.44-5.87,.66-11.77,1.5-17.71,1.4-2.68-.04-5.31,.7-7.94,.54-9-.56-18.03-.09-27.01-.67-6.6-.43-13.2-1.19-19.77-2.13-10.53-1.51-20.94-3.55-31.18-6.37-15.78-4.34-30.86-10.34-44.54-19.47-7.62-5.09-14.5-11.01-19.45-18.89-3.44-5.47-5.66-11.34-6.08-17.81-.09-1.37-.5-2.87,.49-4.16,1.39,3.84,3.31,7.4,5.32,10.95,3.32,5.85,7.86,10.53,13.32,14.25,7.22,4.92,15.07,8.66,23.34,11.57,12.79,4.5,25.83,8.03,39.24,10.07,11.45,1.74,22.98,2.47,34.56,2.91,9.11,.34,18.21,0,27.31,.14,24.95,.39,49.75-1.44,73.76-8.99,14.74-4.63,29.02-10.43,40.65-21,6.58-5.98,11.12-13.33,11.9-22.57,.18-2.06,.08-4.37,1.98-5.92Z"/><path class="cls-10" d="M295.55,344.57c-.02,1.43-.04,2.85-.06,4.28-.37,3.04-.31,6.04,.08,9.1,.51,4.06,.51,8.21,.09,12.25-.78,7.46-.64,14.93-.36,22.36,.22,5.85-2.09,10.25-5.77,14.31-6.02,6.64-13.46,11.31-21.48,15.02-5.83,2.69-11.69,5.46-18.11,6.6-.7,.04-1.38,.18-2.07,.28-.36,.02-.71-.02-1.06-.13-1.66-.97-1.31-2.63-1.37-4.11-.23-6.63,.23-13.29-.34-19.89-.5-5.79-.3-11.6-.88-17.38-.16-1.6-.18-3.28,.64-4.8,.98-1.5,2.65-1.82,4.18-2.37,8.2-2.97,16.14-6.41,23.51-11.19,8.71-5.64,15.53-12.92,20.64-21.89,.56-.98,.74-2.44,2.36-2.44Z"/><path class="cls-5" d="M329.8,160.03c-1.4,16.96-4.17,33.72-7.47,50.4-3.73,18.88-8.57,37.51-12.78,56.28-3.07,13.68-5.65,27.47-8.43,41.21-1.99,9.84-4.41,19.57-7.11,29.23-.16,.59-.27,1.2-.4,1.79-.47,5.64-3.03,10.16-6.98,14.17-3.93,3.98-7.34,8.49-11.98,11.73-1.44,1.01-2.7,2.62-4.85,1.99-.99-1.19-.29-2.34,.11-3.46,8.02-22.59,15.79-45.26,22.27-68.34,5.68-20.22,10.46-40.67,14.71-61.23,3.98-19.25,8.35-38.43,11.39-57.88,.22-1.42,.37-2.84,.54-4.26,.18-1.16,.87-2.03,1.65-2.84,2.31-2.41,4.81-4.65,6.82-7.35,.59-.79,1.31-1.6,2.51-1.44Z"/><path class="cls-28" d="M101.14,128.07c-2.55-.21-5.09-.39-7.64-.62-4.34-.39-8.55,.43-12.76,1.3-4.9,1-9.8,2.02-14.69,3.03-.25,.19-.5,.37-.77,.54-.57,.33-1.18,.53-1.82,.68-5.55,.95-11.11,1.88-16.67,2.78-1.21,.2-2.43,.52-3.57-.26-9.79,.89-19.28,3.3-28.78,5.66-2.87,.71-5.73,1.48-8.67,1.85-.51,.06-1.01,.16-1.52,.18-3.9,.17-4.82-.88-3.93-4.58,.12-.49,.37-.94,.57-1.41,.82-1.48,2.3-1.9,3.75-2.43,5.27-1.94,10.74-3.2,16.06-4.99,12.31-3.19,24.54-6.84,37.38-7.34,4.39-.04,8.72-.65,13.07-1.11,2.13-.23,4.3-.11,6.45-.12,2.97-.01,5.95-.18,8.91,.03,5.89,.42,11.82,.28,17.68,1.15,.5,.07,1.02,.04,1.54,.03,5.21-.02,10.36,.66,15.54,1.1,3.04,.25,6.11,.47,9.13,.83,3.33,.4,6.71,.29,10.02,1,2.19,.47,4.47,.38,6.69,.59,2.93,.27,5.89,.59,8.81,.9,3.23,.34,6.52,.2,9.71,.98,.49,.12,1.02,.1,1.52,.15,8.36,.77,16.76,.31,25.13,.73,5.99,.3,12,.42,18,.99,6.42,.61,12.74,1.52,18.93,3.23,9.68,2.67,18.34,7.3,26.21,13.56,4.02,3.2,7.22,7.24,11.23,10.42,1.71,1.18,2.84,2.88,4.08,4.48,.18,.2,.35,.41,.52,.62,.09,.1,.17,.21,.25,.32,.72,1.12,1.58,2.14,2.34,3.24,.4,.65,.84,1.27,1.23,1.93,.2,.32,.38,.65,.56,.98,.14,.21,.26,.43,.39,.65,.15,.21,.3,.43,.45,.64,.08,.11,.16,.22,.24,.33,2.06,3.28,3.93,6.64,5.39,10.23,.12,.26,.22,.52,.33,.79,.13,.26,.24,.52,.36,.78,1.38,3.37,2.56,6.82,4.15,10.11,.55,1.59,1.7,3.07,.83,4.89-1.59,.82-1.87-.51-2.39-1.45-.13-.29-.24-.59-.33-.89-.19-.62-.48-1.2-.76-1.78-4.81-10.92-10.46-21.36-18.01-30.65-12.72-15.64-29.1-24.57-49.23-26.47-9.38-.89-18.78-1.26-28.21-1.33-10.64-.07-21.25-1.04-31.87-1.61-7.56-.41-15.11-1.05-22.67-1.45-9.19-.49-18.36-1.4-27.56-1.91-1.87-.11-3.6-1.3-5.56-1.3Z"/><path class="cls-46" d="M43.21,135.52c6.04-1.03,12.08-2.07,18.12-3.08,.9-.15,1.84-.14,2.75-.21,.41-.22,.92-.17,1.32-.41,.21-.01,.42-.03,.63-.04,0,7.68,.14,15.37-.01,23.05-.25,12.89,.73,25.75,.78,38.64,.03,7.41,.72,14.85,1.15,22.28,.4,6.8,.95,13.61,1.86,20.35,1.07,7.85,1.99,15.71,3.43,23.52,1.17,6.4,2.17,12.83,3.75,19.16,.19,.78,.09,1.63,.12,2.45-2.17-5.31-3.73-10.82-5.41-16.28-6.93-22.51-12.81-45.31-17.69-68.35-3.44-16.22-6.47-32.52-8.94-48.92-.61-4.05-1.24-8.09-1.86-12.14Z"/><path class="cls-32" d="M328.19,387c-.63,2.68-1.02,5.37-1.35,8.12-.53,4.5-2.35,8.68-4.84,12.47-1.56,2.38-3.19,4.78-5.16,6.82-2.18,2.26-4.64,4.31-7.22,6.1-4.7,3.25-9.53,6.35-14.76,8.71-11.75,5.31-23.84,9.59-36.55,12.06-5.09,.99-10.15,2.31-15.29,2.82-5.34,.53-10.66,1.24-16.05,1.52-5.1,.27-10.21,.26-15.3,.57-2.13,.13-4.17,.43-6.31-.02-1.25-.27-2.65-.24-3.95,.23-.47,.17-1.04,.35-1.49,.24-4.56-1.1-9.19-.22-13.76-.57-1.95-.15-3.77,.73-5.74,.45-4.76-.69-9.59-.07-14.35-.52-3.65-.34-7.29-.5-10.94-.49-1.76,0-3.41-.54-5.14-.72-9.82-.99-19.58-2.5-29.16-4.9-6.61-1.65-13.11-3.8-19.62-5.85-6.9-2.18-13.32-5.23-19.65-8.54-8.27-4.32-15.3-10.03-20.02-18.36-1.39-2.45-2.46-5.13-4.32-7.35-.94-1.12-.24-2.79-.41-4.2-.05-3.49,.87-6.74,2.47-9.81,1.55,1.46,1.67,3.49,1.94,5.37,1.12,7.68,4.66,14.08,9.87,19.73,6.04,6.54,13.44,10.97,21.53,14.41,18.72,7.96,38.27,12.47,58.49,14.55,9.3,.96,18.59,.83,27.89,1.22,8.7,.37,17.4,.59,26.09,.45,18.24-.29,36.42-1.46,54.26-5.52,14.95-3.41,29.28-8.55,42.49-16.5,6.8-4.09,12.54-9.23,16.21-16.39,4.12-8.03,4.38-16.25,.92-24.6-.67-1.63-2.11-3.2-.62-5.11,4.08,3.36,7.11,7.51,9.22,12.34,.34,.36,.18,.97,.62,1.28v-.02Z"/><path class="cls-32" d="M318.35,373.4c-.27,1.63,.5,2.97,1.17,4.36,3.94,8.08,3.56,16.35,.07,24.29-2.87,6.53-7.64,11.79-13.66,15.8-8.99,5.99-18.62,10.6-28.92,13.85-2.04,.64-4.02,1.51-6.06,2.17-5.73,1.85-11.6,3.09-17.5,4.25-4.69,.92-9.44,1.44-14.15,2.26-2.66,.46-5.45,.63-8.19,.84-5.99,.44-12.02,.27-17.98,1.16-.7,.11-1.43,.04-2.15,.04-5.94,0-11.89,.06-17.83-.02-3.87-.05-7.72,.05-11.62-.46-4.1-.53-8.32-.17-12.48-.13-5.81,.06-11.57-.6-17.35-1.09-6.71-.57-13.35-1.49-19.94-2.69-5.2-.95-10.34-2.29-15.45-3.65-10.28-2.74-20.33-6.12-29.84-10.97-7.76-3.96-14.51-9.16-19.6-16.25-3.35-4.67-5.83-9.8-6.4-15.68-.18-1.91-.78-3.78-1.19-5.67h0c.41-.31,.29-.88,.61-1.24v.02c.4-.32,.3-.89,.61-1.25v.02c.41-.31,.3-.89,.62-1.24v.02c.4-.31,.28-.89,.63-1.23h0c.21-.2,.44-.4,.6-.65l-.03,.02c.43-.3,.32-.88,.65-1.23h0c.32-.2,.63-.19,.94,.02,.81,.69,.77,1.61,.69,2.54-1.43,17.1,7.32,28.4,21.21,36.48,15.91,9.26,33.54,13.55,51.46,16.64,12.82,2.21,25.77,3.31,38.81,3.19,10.93-.1,21.86,.13,32.8,.03,16.32-.16,32.53-1.38,48.49-4.86,14.79-3.23,28.93-8.36,42.15-15.81,5.87-3.31,10.68-7.83,14.16-13.74,5.11-8.68,4.75-19.18-1.04-26.53-3.18-4.03-7.56-5.79-12.34-6.89-2.26-.52-4.38-1.24-5.04-3.87,.17-3.13-.38-6.29,.32-9.4,6.27,3.18,12.08,7.1,17.6,11.43,1.91,1.5,3.7,3.18,5.17,5.15Z"/><path class="cls-12" d="M58.07,122.47c-3.19,.93-3.35,.78-4.98,1.02-10.61,1.57-20.98,4.15-31.33,6.87-.39,.1-.81,.08-1.22,.11-2.02-.16-2.64-2.03-3.75-3.23-3.05-3.3-5.66-6.98-8.65-10.34,1.57-5.82,3.79-11.41,5.7-17.12,2-6,3.78-12.07,6.15-17.94,.31-.38,.25-.89,.49-1.3h-.02c1.71,.28,2.51,1.58,3.35,2.88,4.26,6.57,8.99,12.81,13.91,18.89,5.38,6.65,11.24,12.89,17.44,18.8,.84,.81,1.66,1.51,2.92,1.35Z"/><path class="cls-28" d="M307.86,19.08c-.39-.87-.78-1.73-1.17-2.6,2.32,.88,4.29,2.38,6.3,3.77,7.8,5.36,14.95,11.47,21.55,18.25,6.01,6.16,11.85,12.5,18.44,18.07,7.63,6.44,16.07,11.27,25.97,13.25,4.34,.87,8.7,1.35,13.12,1.34,2.94,0,5.88,0,8.96,0-1.57,4.13-13.04,13.93-19.4,16.85-2.46,.65-4.25-.92-6.23-1.86-6.69-3.68-13.32-7.44-19.14-12.45-.19-.17-.37-.36-.54-.56-.17-.17-.33-.36-.48-.55-.08-.08-.15-.18-.23-.26-.16-.16-.31-.33-.46-.5-.08-.08-.15-.16-.23-.24-.16-.14-.31-.3-.47-.44-.09-.06-.17-.13-.26-.19-.19-.11-.37-.22-.56-.33-.2-.1-.39-.22-.58-.35-.19-.13-.37-.29-.54-.44-.09-.08-.17-.16-.27-.24-.19-.16-.37-.33-.55-.5-.1-.08-.18-.17-.28-.26-.2-.17-.39-.36-.58-.54-2.76-2.74-5.5-5.5-8.28-8.23-2.43-2.48-4.96-4.88-7.07-7.66-.21-.19-.41-.39-.6-.59-.21-.19-.4-.4-.6-.61-8.38-9.62-16.27-19.65-24.43-29.44-.68-.82-.75-1.9-1.4-2.7Z"/><path class="cls-56" d="M270.36,366.76c5.02-2.91,9.2-6.78,12.94-11.17,.93-1.09,1.78-2.27,2.82-3.24,3.05-2.87,5.43-6.08,6.32-10.29,.22-1.06,.44-2.21,1.18-3.11,.07,.92,.28,1.75,.88,2.53,.69,.88,1.19,1.9,1.05,3.1-1.17,.93-1.51,2.39-2.19,3.61-5.97,10.63-14.68,18.38-25.21,24.3-6.34,3.57-13.04,6.24-19.88,8.64-.86,.3-1.7,.66-2.56,1-2.01,1.45-4.37,1.93-6.71,2.49-1.91,.25-3.74,.81-5.6,1.29-2.88,.65-5.78,1.24-8.68,1.83-2.69,.34-5.35,.81-8.02,1.25-3.27,.53-6.58,.69-9.85,1.16-27.89,2.6-54.92-.96-80.96-11.46-2.08-1.01-4.14-2.08-6.22-3.11-.23-.11-.46-.24-.68-.37-.31-.18-.62-.37-.94-.55-.21-.1-.41-.21-.61-.33-.41-.22-.84-.4-1.27-.59-.46-.2-.91-.41-1.36-.63-1.43-.77-2.74-1.73-4.12-2.59-.24-.14-.47-.3-.69-.47-.23-.16-.45-.34-.66-.53-.11-.09-.22-.18-.33-.27-.24-.17-.47-.34-.7-.52-4.12-3.17-7.64-6.81-9.51-11.81-.98-2.62-1.82-5.23-1.41-8.08,0-1.24,.73-1.76,1.88-1.82,1.59-.2,1.94,1.1,2.13,2.1,1.44,7.29,6.85,11.35,12.3,15.41,6.29,4.74,13.27,8.09,20.78,10.42,13.74,5.17,27.88,8.03,42.62,8.2,6.54,.08,13.07,.04,19.6-.03,13.99-.14,27.81-1.29,41.34-5.08,3.55-1,7.13-1.9,10.76-2.58,5.9-1.22,11.45-3.35,16.64-6.41,1.56-.92,3.01-2.07,4.9-2.28Z"/><path class="cls-20" d="M295.58,356.81c0,3.3-.02,6.61-.03,9.91,.55,5.16,3.66,7.42,8.37,9.45,9.01,3.88,10.76,14.29,7.92,22.39-2.65,7.57-8.38,12.57-14.92,16.56-5.51,3.36-11.55,5.73-17.6,8.03-10.88,4.13-22.13,6.76-33.57,8.67-2.61,.44-5.28,.73-7.88-.22-.28-.23-.37-.52-.29-.88,.69-.8,1.72-.88,2.63-1.19,2.43-.6,4.85-1.29,7.39-1.27,.19,.02,.39,0,.57-.05,.37-.34,.93-.24,1.32-.54,3.5-.4,6.67-1.86,9.92-3.06,8.59-3.18,16.66-7.32,23.86-13.03,3.87-3.07,7.23-6.64,9.76-10.93,.85-1.44,1.28-2.95,1.24-4.67-.07-3.69,.02-7.37,.03-11.06,.04-11.15,.88-22.29,.66-33.45-.02-.9-.18-1.86,.52-2.64,.03,2.65,.05,5.31,.08,7.96Z"/><path class="cls-47" d="M329.8,160.03c-3.43,3.65-6.85,7.3-10.28,10.95-2.91,3.9-6.89,6.69-10.42,9.94-2.94,2.7-6.06,5.2-9.09,7.81-1.13,.97-2.3,2.14-4.07,1.75-2.11-1.97-1.09-4.01,.15-5.77,6.88-9.68,13.26-19.71,20.25-29.32,2.66-3.66,5.26-7.33,6.71-11.67,.67-2.03,2.45-3.25,3.59-4.95,2.06-3.08,3.5-6.49,5.34-9.67,1.29-2.23,2.8-4.25,4.87-5.87,1.94-1.52,3.88-1.74,5.98-.55,2.03,1.15,1.8,2.99,1.38,4.86-.23,6.72-1.67,13.12-4.82,19.13-2.58,4.92-5.53,9.52-9.59,13.36Z"/><path class="cls-55" d="M88.18,315.69c.17-2.16,2.11-2.35,3.41-2.34,2.55,.02,4.55-1.1,6.44-2.41,4.67-3.25,9.25-6.64,13.81-10.05,1.86-1.4,1.81-1.81,.14-3.59-3.58-3.85-3.9-6.41-1.35-11.23,.3-.57,.32-1.17,.33-1.78,1.32,0,1.35,1.12,1.52,1.94,2.61,12.95,5.88,25.75,8.98,38.59,.12,.5,.13,1.02,.1,1.53-.16,2.05-1.41,3.37-3.13,4.19-2.84,1.34-5.78,2.33-8.88,3.08-4.59,1.1-9.17,2.61-12.73,6.05-2.86-6.62-5.3-13.39-7.39-20.29-.56-.49-.02-1.36-.63-1.84h0c-.53-.5,0-1.37-.63-1.84v.02Z"/><path class="cls-31" d="M97.41,348.83c1.13,1.27,.54,2.92,.92,4.37,1.56,5.95,4.94,10.62,9.66,14.42,.39,.31,.75,.66,1.13,1,.22,.18,.43,.36,.63,.56h0c.2,.22,.39,.44,.65,.6v-.03c.6,.78,.61,1.68,.55,2.62-.48,7.63,.19,15.22,.69,22.83,.31,4.74,1.15,9.52,.2,14.3-.28,1.38-.38,2.87-1.87,3.64-1.6,.16-2.7-.83-3.78-1.76-1.79-1.54-3.37-3.28-4.94-5.05-3.01-3.38-4.07-7.19-4.22-11.78-.37-11.15-.4-22.32-1.12-33.45-.15-2.33-.89-4.63-.3-7,.16-.33,.35-.64,.58-.93,.39-1-.22-2.2,.59-3.12,.46-.26,.33-.84,.63-1.18v-.03Z"/><path class="cls-51" d="M344.21,127.55c-.16-3.61-.42-3.93-3.09-4.79-1.2-.38-2.05-.14-3.1,.55-3.78,2.49-5.54,6.41-7.46,10.21-1.46,2.9-2.92,5.79-5.27,8.13-.5,.5-1.14,1.04-1.3,1.67-1.8,6.73-6.58,11.69-10.38,17.19-1.98,2.85-3.69,5.87-5.71,8.69-3.74,5.21-7.4,10.47-11.08,15.72-1.16,1.65-2.05,3.34-.55,5.27,.19,.83-.25,1.48-.85,1.82-2.69,1.51-4.53,4.4-7.86,4.86,.07-1.75-1.03-3.2-1.23-4.88,2.91-5.89,7.22-10.85,10.67-16.38,1.23-1.96,3.07-3.25,4.45-5.02,7.23-9.24,13.43-19.18,19.67-29.08,4.11-6.53,8.55-12.9,11.37-20.17,1.37-3.54,2.23-7.22,3.27-10.86,1.61-5.13,3.89-10.06,4.52-15.48,.18-1.52,.65-3.2,2.43-3.52,1.71-.31,2.36,1.26,3.16,2.43,1.13,1.65,1.86,3.49,1.53,5.46-.48,2.81,.48,5.62-.13,8.41-1.8,2.03-2.03,4.43-2.04,7.05-.02,4.25-.14,8.53-1.02,12.72Z"/><path class="cls-40" d="M347.27,107.77c-1.19-2.9-.95-5.91-.63-8.9,.28-2.63-1.37-4.39-2.63-6.31-.63-.97-1.5-.9-2.19,.15-.65,.98-.84,2.11-.93,3.2-.41,5.13-2.82,9.65-4.29,14.45-.05,.17-.29,.27-.44,.41-.95-2.25-1.27-4.88-.25-6.82,2.04-3.88,1.92-7.89,1.91-11.97,0-1.8,.39-3.45,1.6-4.84,1.75-2.01,3.12-2.18,5.27-.64,2.89,2.08,3.07,1.99,5.44-.77,2.86-3.33,5.4-6.74,5.01-11.47-.05-.6,.19-1.21,.71-1.63,5.91,4.59,12.02,8.87,18.76,12.18,.35,.17,.62,.49,.93,.74-.35,2.17-.39,4.43-1.77,6.31-2.81,1.66-5.89,2.74-8.84,4.1-6.51,3.01-12.73,6.44-17.66,11.81Z"/><path class="cls-7" d="M96.82,339.64c-.12-1.27,.35-2.22,1.6-2.61,4.19-1.33,7.78-4.19,12.41-4.47,2.84-.17,5.34-1.82,7.9-3.02,1.05-.5,2.03-1.4,2.09-2.81,.78-.11,1.13,.44,1.28,1.01,1.36,5.26,3.2,10.42,3.67,15.88-.29,1.48-1.36,2.29-2.67,2.69-3.54,1.07-6.67,3.14-10.2,4.19-6.08,1.81-5.47,6.93-2.01,10.71,1.04,1.14,2.9,1.72,2.52,3.79-3.87-2.14-6.9-5.28-9.85-8.45-1.46-1.57-1.55-3.92-2.36-5.87-.53-1.27-.51-2.83-1.91-3.66-.82-2.46-1.65-4.92-2.47-7.38Z"/><path class="cls-34" d="M96.18,353.17l.02,.64c-.81,2.64-.15,5.23,.25,7.83-.76,1.71-2.22,1.96-3.85,1.79-13.99-1.51-22.67,10.75-22.72,21.51-.05,13.03,6.93,21.44,17.33,27.71,12.62,7.61,26.64,11.48,40.84,14.79,6.49,1.51,13.06,2.73,19.67,3.37,4.05,.39,8.12,.83,12.21,.88,3.69,.1,7.28,.98,10.93,1.34,.71,.07,1.41,.3,1.74,1.05-2.88,2.5-6.41,1.72-9.62,1.55-16.72-.86-33.17-3.47-49.23-8.29-12.09-3.63-23.97-7.73-34.11-15.67-11.86-9.29-16.24-23.29-11.41-36.65,.56-1.56,1.36-2.97,2.23-4.37,.15-.3,.31-.59,.47-.88v.02c.24-.17,.45-.39,.63-.63h-.01c.24-.16,.43-.4,.63-.61,2.53-2.83,5.62-4.99,8.77-7.02,4.87-3.14,9.74-6.3,15.21-8.37Z"/><path class="cls-6" d="M8.13,116.9c1.17,0,1.93,.75,2.5,1.57,2.96,4.28,6.59,8.01,9.9,11.99-2.26,1.42-4.93,1.63-7.39,2.44-4.12,1.35-8.34,2.41-12.26,4.31,.75-3.81,2.29-7.36,3.62-10.98,1.15-3.14,2.42-6.23,3.64-9.34Z"/><path class="cls-45" d="M373.76,91.85c.21-1.67,.39-3.34,.64-5.01,.09-.63,.57-1.03,1.14-1.3,1.96,1,4.01,1.79,6.1,2.46-2.46,1.62-5.06,2.95-7.88,3.84Z"/><path class="cls-32" d="M65.38,375.9c.09-.85,.53-1.44,1.29-1.79,.08,.12,.17,.24,.26,.37,.13,.9-.3,1.41-1.15,1.62-.13-.06-.27-.13-.4-.19Z"/><path class="cls-4" d="M88.18,315.66c.76,.43,.63,1.17,.63,1.85-.55-.5-.65-1.16-.63-1.85Z"/><path class="cls-4" d="M88.81,317.51c.74,.43,.61,1.16,.63,1.84-.54-.5-.66-1.14-.63-1.84Z"/><path class="cls-32" d="M63.54,378.37c.03-.5,.19-.93,.67-1.18,.08,.12,.16,.23,.24,.35,.07,.47-.09,.82-.53,1.02l-.38-.19Z"/><path class="cls-32" d="M62.97,379.01c0,.52-.11,.99-.65,1.23,.02-.51,.16-.96,.65-1.23Z"/><path class="cls-32" d="M61.75,380.87c-.01,.51-.12,.98-.64,1.23,.02-.51,.16-.96,.64-1.23Z"/><path class="cls-32" d="M61.12,382.08c0,.52-.1,.99-.63,1.24,.02-.51,.15-.97,.63-1.24Z"/><path class="cls-49" d="M20.47,80.54c.05,.51-.01,.98-.49,1.3-.06-.51,.03-.98,.49-1.3Z"/><path class="cls-32" d="M60.5,383.31c.01,.53-.09,1-.62,1.25,.02-.51,.14-.97,.62-1.25Z"/><path class="cls-32" d="M59.88,384.54c0,.52-.1,.99-.61,1.25,.01-.51,.13-.97,.61-1.25Z"/><path class="cls-9" d="M328.19,387.02c-.54-.26-.64-.74-.62-1.28,.47,.3,.61,.76,.62,1.28Z"/><path class="cls-56" d="M97.4,348.86c.1,.56-.07,.98-.63,1.18,.02-.49,.13-.95,.63-1.18Z"/><path class="cls-32" d="M72.2,368.55c-.21,.21-.42,.42-.63,.62,.21-.21,.42-.42,.63-.62Z"/><path class="cls-32" d="M71.58,369.16c-.21,.21-.42,.42-.63,.63,.21-.21,.42-.42,.63-.63Z"/><path class="cls-32" d="M69.71,371l.62-.63c.07,.1,.15,.21,.22,.31-.08,.25-.25,.42-.5,.5l-.33-.18Z"/><path class="cls-32" d="M69.09,371.61c.21-.2,.41-.41,.62-.62l.05,.05c.09,.3,.02,.53-.26,.7l-.41-.13Z"/><path class="cls-32" d="M68.48,372.23c.21-.2,.41-.41,.62-.62l.05,.05c.08,.3,0,.53-.27,.69l-.4-.12Z"/><path class="cls-32" d="M67.87,372.85c.2-.21,.4-.42,.61-.62l.05,.05c.08,.29,0,.52-.26,.69l-.4-.11Z"/><path class="cls-32" d="M67.27,373.48c.2-.21,.4-.42,.6-.63l.05,.04c.09,.29,0,.51-.25,.68l-.4-.1Z"/><path class="cls-32" d="M66.67,374.11c.2-.21,.4-.42,.6-.63l.04,.03c.11,.51-.09,.72-.6,.62l-.03-.03Z"/><path class="cls-32" d="M64.79,376.54c.2-.21,.39-.43,.59-.64l.07,.06c.09,.29,0,.52-.26,.69l-.4-.11Z"/><path class="cls-32" d="M64.21,377.18c.19-.21,.39-.43,.58-.64l.05,.04c.12,.52-.08,.72-.6,.62l-.03-.03Z"/><path class="cls-32" d="M63.6,379.03c-.21,0-.42,0-.63-.01,.19-.22,.38-.44,.57-.65l.07,.06c.13,.14,.17,.27,.12,.41-.05,.13-.09,.2-.14,.2Z"/><path class="cls-32" d="M62.34,380.22l-.6,.65c.2-.22,.4-.44,.6-.65Z"/><path class="cls-32" d="M70.95,369.77l.02,.65c-.19,.29-.39,.29-.6,.02l-.05-.06c.21-.2,.42-.4,.63-.6Z"/><path class="cls-17" d="M248.79,114.46c-6.88,1.38-13.86,2.12-20.81,2.93-3.51,.41-7.15,.49-10.64,.92-5.39,.66-10.78,.35-16.16,.86-6.39,.6-12.88,.13-19.33,.1-.25,0-.5-.32-.74-.49,.87-1.43,.79-2.88,.23-4.41-2.85-7.74-5.62-15.5-9.14-23.01-2.64-5.62-4.01-11.79-5.34-17.89-3.34-15.37-1.74-30.32,4.42-44.7,2.74-6.4,6.2-12.53,13.36-15.24,10.31-.73,20.61-.49,30.92,.09,9.6,.54,19.18,1.32,28.68,2.73,8.09,1.2,16.15,2.63,24.12,4.52,1.17,.28,2.47,.34,3.28,1.45,.05,.61-.36,.98-.83,1.15-2.09,.75-3.64,2.06-5.05,3.81-1.45,1.81-3.68,2.71-6,2.72-2.35,.01-3.46,1.2-3.67,3.27-.32,3.13-1.47,5.89-2.98,8.63-1.4,2.54-1.52,5.51-1.6,8.38-.12,4.41-.59,8.79-1.28,13.14-.26,1.64-.85,3.04-2.98,2.62-1.48-.29-1.72,.75-1.9,1.8-1.14,6.77-2.2,13.57-2.41,20.43-.1,3.49-.71,6.94-.63,10.42,.08,3.32,.47,3.63,3.8,3.43,1.12-.07,1.92,.45,2.17,1.33,1.04,3.61,2.33,7.25,.5,11.01Z"/><path class="cls-50" d="M271.56,22.79c-3.1-1.31-6.44-1.7-9.69-2.39-5.36-1.14-10.76-2.17-16.18-3-4.21-.65-8.51-.76-12.73-1.41-6.35-.98-12.79-.72-19.13-1.75-1.2-.19-2.46,0-3.68-.06-4.38-.22-8.77-.18-13.14-.31-4.22-.12-8.54,.22-12.82,.31-3.37,1.56-7.06,1.13-10.56,1.33-8.98,.53-17.91,1.51-26.82,2.65-5.82,.53-11.51,1.78-17.24,2.87-2.41,.46-3,2.4-3.48,4.52-1.8,7.92-2.17,16.02-3.1,24.05-1.26,10.88-1.47,21.84-2.16,32.76-.46,7.22-.92,14.52,.17,21.76,.23,1.52,.24,3.08-.05,4.59-.34,1.76-1.2,2.84-3.21,2.05-4.21-.34-8.16-1.8-12.15-2.99-8.94-2.68-17.62-6.03-25.83-10.5-6.21-3.38-12.17-7.16-17.05-12.38-2.74-2.93-5.08-6.18-6.43-10-2.8-7.89-1.24-15.07,3.67-21.69,4.21-5.68,9.69-9.87,15.55-13.69,2.98-1.94,5.61-4.4,8.42-6.6,7.46-5.83,15.69-10.29,24.35-14.11,11.49-5.07,23.57-7.94,35.83-10.22,3.9-.73,7.76-1.81,11.69-2.22,4.35-.46,8.73-.94,13.04-1.58,4.68-.69,9.42,.18,14.03-1.04,.48-.13,1.02-.04,1.53-.05,9.42-.22,18.84,0,28.22,.68,7.61,.54,15.22,1.33,22.76,2.49,10.98,1.69,21.84,3.99,32.52,7.17,14.13,4.2,26.68,11.25,38.12,20.43,.26,.29,.24,.55-.06,.79-1.57,.55-2.76-.43-3.99-1.06-5.27-2.72-10.82-4.72-16.42-6.61-3.63-1.27-7.35-2.26-11.02-3.4-1.05-.33-2.21-.44-2.94-1.41Z"/><path class="cls-2" d="M146.66,17.25c4.31-.58,8.61-1.2,12.92-1.72,2.61-.32,5.28-.53,7.87-.6,5.59-.16,11.14-1.2,16.74-.75-3.73,2.23-6.44,5.34-8.94,8.92-2.47,3.54-3.8,7.42-5.18,11.34-1.63,4.61-2.95,9.32-3.39,14.21-.29,3.2-1.69,6.35-.41,9.64,.28,.72,.12,1.63,.07,2.44-.39,6.73,1.38,13.12,3.08,19.52,.65,2.46,1.78,4.77,2.05,7.35,.09,.89,.43,1.85,.94,2.57,2.01,2.86,2.57,6.41,4.55,9.28,.69,1,1.21,2.15,1.08,3.45-.1,1.08,.4,2,.9,2.89,1.76,3.16,2.53,6.68,3.76,10.03,.29,.79,.42,1.62,.05,2.38-.32,.65-1.04,.53-1.64,.57-1.02,0-2.05,0-3.07,0-1.92-1.31-3.98,0-5.96-.3-1.49-.23-3.04,.31-4.51-.31h-3.07c-1.35-.83-2.96,.17-4.31-.61-1.02,0-2.05,0-3.07,0-1.14-.79-2.56,.15-3.7-.61-3.26,.15-6.42-.51-9.61-1.04-2.18-.36-4.4-.56-6.6-.8-.61-.07-1.22-.06-1.63-.62,.73-1.54,.69-3.13,.47-4.79-1.25-9.23-2.4-18.5-1.93-27.82,.76-14.8,1.26-29.65,4.07-44.25,1.14-5.92,2.63-11.78,5.02-17.37,.69-1.61,1.57-2.83,3.45-2.98Z"/><path class="cls-8" d="M334.93,51.71c2.46,2.67,4.92,5.33,7.38,8,.76,1.15-.03,1.94-.7,2.67-.92,1-1.3,2.31-2.04,3.36-3.77,5.39-3.61,11.41-3.19,17.53,.08,1.22,.04,2.45-.16,3.66-.56,4.24-2.02,8.35-1.68,12.71,.1,1.34-.29,2.64-.69,3.91-.77,2.49-1.41,5.01-1.38,7.65-.02,.31-.08,.61-.15,.91-2.99,5.09-5.56,10.39-9.29,15.09-7.89,9.94-15.66,19.99-23.55,29.93-1.87,2.36-4.2,4.19-6.27,6.31-.14,.15-.31,.36-.48,.37-4.21,.09-8.21,2.14-12.51,1.3-.32-.6,0-.99,.49-1.21,6.7-3.08,11.76-8.27,17.21-13.02,11.94-10.4,20.63-23.4,29.73-36.09,1.58-2.2,2.57-4.66,2.17-7.47,1.18-5.61,1.47-11.33,2.15-17.01,.71-5.91-.21-11.8-.15-17.75-.81,1.33-1.04,2.92-2.43,3.78-1.92,1.99-3.03,4.56-4.97,6.58-4.36,4.53-9.32,8.22-14.66,11.48-7.01,4.28-14.52,7.44-22.21,10.25-1.49-5.31-4.25-10.14-3.25-16.24,.63-3.84,.34-7.91,1.9-11.62,1.38-3.27,2.77-6.6,4.74-9.54,1.2-1.79,2.88-3.36,5.49-3.49,2.11-.1,3.08-2.21,4.51-3.48,1.71-1.51,3.33-2.9,5.53-.78,.7,.67,1.49,.24,2.3,.04,3.63-.88,6.78-2.85,10.15-4.32,3.39-1.48,4.2-1.05,5.15,2.49,.84,3.15,2.76,3.66,6.12,1.61,2.23-2.12,3.91-4.58,4.72-7.58Z"/><path class="cls-54" d="M271.56,22.79c4.84,1.03,9.62,2.26,14.15,4.3-1.47,2.26-3.57,4.24-5.85,5.14-4.18,1.64-5.78,5.28-8.11,8.42-2.48,3.34-4.08,7.02-4.69,11.17-.25,1.74-1.29,3.25-2.3,4.65-2.45,3.39-3.23,7.25-3.45,11.29-.08,1.44-.2,2.85-.82,4.19-.3,.65-.58,1.33-.54,2.06,.32,5.87,.17,11.79,.97,17.58,.54,3.87,2.14,7.63,4.2,11.06,1.53,2.54,2.26,5.18,1.51,8.12-5.9,1.45-11.82,2.81-17.84,3.69,.1-3.07-.03-6.11-.61-9.14-.19-1.03-.48-1.97-1.24-2.71-.22,0-.47-.08-.59,.01-3.07,2.17-3.7,1.92-4.64-1.68-.48-1.83-.53-3.71-.14-5.47,.39-1.74,.44-3.43,.44-5.16,0-5.72,.75-11.35,1.71-16.97,.33-1.9,.56-3.82,.73-5.75,.08-.84,.22-1.62,.64-2.34,.53-.92,.98-1.42,2.06-.35,1.16,1.14,2.01,.8,2.18-.74,.48-4.44,1.41-8.86,1.25-13.35-.09-2.49,.03-5.13,.95-7.21,1.85-4.18,3.49-8.36,4.4-12.85,.3-1.5,1.43-1.96,3.08-1.66,2.62,.48,5.26-.6,6.4-2.64,1.49-2.68,3.57-3.33,6.13-3.68Z"/><path class="cls-27" d="M146.66,17.25c-1.04,.63-1.78,1.39-2.29,2.61-2.85,6.81-4.59,13.88-5.79,21.15-.58,3.51-.97,7.04-1.59,10.53-.49,2.71-.44,5.49-.6,8.21-.24,4.06-.85,8.1-.85,12.2,0,5.3-.85,10.57-.57,15.89,.24,4.67,.64,9.32,1.11,13.98,.35,3.44,.73,6.87,1.32,10.27,.23,1.33,.02,2.53-1.81,2.38-.41,0-.82,0-1.23-.01-.7-.68-1.75,.05-2.46-.61-4.83-.5-9.6-1.3-14.16-3.07,1.62,.08,2.56-.58,2.46-2.32-.11-2.03,.21-4.06-.39-6.09-.55-1.87-.25-3.87-.19-5.8,.12-3.46-.11-6.9,.31-10.39,.24-2.01,.11-4.18,.13-6.27,.06-4.09,.91-8.1,.79-12.2-.15-5.3,.66-10.54,1.06-15.81,.23-2.94,.55-5.88,.83-8.81,.46-4.74,.6-9.53,1.76-14.19,.46-1.87,.94-3.76,1.13-5.67,.16-1.64,1.11-2.37,2.44-2.76,1.75-.51,3.53-1.1,5.33-1.26,3.76-.34,7.41-1.24,11.11-1.89,.7-.12,1.43-.05,2.14-.06Z"/><path class="cls-16" d="M330.62,59.7c-1.1,1.68-2.67,2.15-4.53,1.67-1.9-.49-2.69-1.61-2.85-3.79-.21-2.76-.62-3.07-3.16-2.06-1.61,.64-3.11,1.55-4.7,2.26-1.75,.79-3.32,2.07-5.4,1.98-.19,0-.46,.04-.57,.17-1.66,1.86-2.92,1.67-4.13-.56-.61-1.13-1.7-.46-2.36,.14-1.59,1.44-3.08,2.99-4.61,4.51-.74,.73-1.43,1.59-2.56,.55-.34-.31-.76-.28-1.09,.06-1.73,1.81-4.04,3.11-4.7,5.86-.4,1.64-.7,3.46-2.43,4.43-.16,.09-.35,.32-.35,.49-.08,3.91-3.41,7.32-1.75,11.52,.55,1.41-.21,2.85-.54,4.16-.38,1.51-.25,2.78,.23,4.15,.51,1.44,.82,2.98,1.51,4.33,.84,1.63,.98,3.3,.92,5.05-.2,0-.41,0-.61,0-.32,.38-.92,.22-1.23,.61-.2,0-.41,0-.61,0-.19,.22-.44,.38-.62,.61-2.32,.4-4.37,1.75-6.77,1.85-.76-.78-.84-1.84-1.13-2.81-.9-3.03-1.78-6.02-3.44-8.82-1.62-2.74-2.15-6.02-1.58-9.22,1.39-7.86,2.5-15.76,3.48-23.67,.45-3.68,2.4-6.72,3.97-9.91,1.01-2.04,3.43-2.68,5.01-4.33,5.28-5.5,11.45-9.85,19.29-10.91,1.71-.23,2.97-1.31,4.55-1.69,1.85,1.03,3.69,2.05,5.54,3.08,.19,.22,.41,.41,.62,.61h0c.19,.22,.42,.4,.62,.61,.2,0,.41,0,.61,0,.18,.23,.41,.41,.62,.61h0c.19,.22,.42,.4,.62,.61,.2,0,.41,0,.61,0,.18,.23,.42,.4,.62,.61h0c2.96,1.29,5.06,3.58,7.05,6.01,.15,.21,.29,.43,.43,.65,.07,.1,.14,.21,.22,.31,.16,.18,.31,.38,.46,.57,.08,.09,.16,.18,.24,.27,.17,.17,.32,.35,.48,.53,.3,.36,.56,.75,.8,1.16,.19,.29,.38,.59,.59,.87,.3,.39,.57,.79,.84,1.2,.24,.32,.47,.63,.71,.96,.72,1.49,2.03,2.85,1.1,4.72Z"/><path class="cls-26" d="M307.86,36.33c-.99,1.77-2.39,2.76-4.51,2.46-.2-.03-.43-.05-.61,0-3.36,1.11-6.87,1.93-10.01,3.49-1.46,.72-2.5,2.56-3.98,3.66-1.05,.78-1.78,1.97-3.22,2.24-.63,.12-.93,.76-1.18,1.34-.63,1.47-1.42,2.68-3.29,2.72-.59,.01-1.2,.51-1.37,1.12-.83,2.96-3.08,5.32-3.58,8.4-.55,3.41-1.19,6.83-1.41,10.26-.21,3.18-.83,6.25-1.43,9.35-.73,3.79-1.62,7.56-.5,11.45,.43,1.47,.94,2.81,1.78,4.15,2.03,3.23,2.92,6.91,3.16,10.72-.2,0-.41,0-.61,0-.19,.22-.44,.38-.62,.61h-1.23c-.33,.38-.92,.22-1.23,.62-2.52,.37-4.83,1.6-7.38,1.84-.19-1.2-.55-2.36-.7-3.59-.19-1.55-.22-3.3-1.85-4.31-.24-.15-.46-.46-.52-.74-.99-4.59-4.26-8.52-3.76-13.58,.23-2.29,.45-4.72-.92-6.88-.43-.68-.14-1.4,.25-2.03,.84-1.34,.84-2.69,.15-4.08-.66-1.32-.42-2.53,.34-3.74,.48-.77,.87-1.62,.84-2.59-.14-5.13,.95-9.92,4.14-14.05,1.71-2.21,1.93-4.89,2.57-7.43,.5-1.98,1.34-3.64,2.56-5.37,1.43-2.02,2.92-4.12,4.11-6.35,.95-1.77,2.13-3.11,4.23-3.67,1.43-.38,2.82-1.09,3.61-2.63,.8-1.57,2.83-1.51,4.01-2.63,3.19,.33,5.93,2,8.91,2.96,3,.97,5.75,2.54,8.58,3.92,.91,.44,1.75,1.06,2.81,1.12,.21-.21,.42-.22,.62,0h0c.2,.21,.4,.42,.61,.62h0c.21,.2,.39,.43,.61,.62h0Z"/><path class="cls-48" d="M329.39,76.32c.69-2.11,1.38-4.22,2.26-6.91,1.15,2.97,1.66,5.46,1.33,8.09-.07,.6-.48,1.23-.37,1.77,1.13,5.62-.18,11.13-.48,16.7-.22,3.99-1.33,7.79-1.51,11.73-1.11,4.66-4.5,7.92-7.22,11.57-8.42,11.31-18.88,20.75-28.8,30.66-3.69,3.69-7.99,6.74-12.22,9.79-3.32,2.39-7.11,4.04-11.45,2.74h0c-.19-.22-.42-.4-.61-.62-1.24-1.63-2.93-2.93-3.71-4.91,2.2,.16,3.87-.95,5.57-2.15,6.91-4.87,13.17-10.56,20.13-15.37,1.67-1.16,3.04-2.69,4.61-4,4.3-3.58,8.57-7.25,12.49-11.23,3.49-3.54,6.89-7.2,9.77-11.31,1.57-2.24,3.61-4.15,5.22-6.37,1.67-2.3,2.96-4.87,4.64-7.17,1.22-1.68,1.56-3.42,1.61-5.43,.1-4.17-.34-8.33,.4-12.53,.28-1.57-.15-3.68-1.67-5.04Z"/><path class="cls-15" d="M324.47,49.24c-1.46-1.93-3.1-3.69-5.14-5.03-.68-.45-1.28-.98-1.63-1.74,1.18-.96,.31-1.88-.15-2.69-2.42-4.34-4.93-8.62-7.34-12.96-1.33-2.4-2.63-4.84-2.35-7.74,3.06,3.67,6.13,7.32,9.18,11,3.44,4.16,6.87,8.33,10.3,12.5,2.33,2.83,4.65,5.67,6.97,8.5,.22,.19,.38,.44,.61,.62h0c.98,3.97-2.23,5.68-4.31,8-.33-1.75-1.02-3.36-1.85-4.92-.22-.19-.38-.44-.62-.62l-.62-1.23c-.22-.19-.38-.44-.61-.62-.21-.41-.41-.82-.62-1.23-.21-.2-.4-.42-.61-.62h0c-.2-.21-.4-.42-.62-.62-.21-.2-.39-.43-.62-.62Z"/><path class="cls-17" d="M167.57,118.16c2.74-.18,5.51,.39,8.22-.53,.97-.33,1.79,.17,2.25,1.14-2.64,0-5.28,.01-7.91-.01-.88,0-1.85,.25-2.55-.6Z"/><path class="cls-17" d="M160.19,117.54c1.44,.22,3.01-.55,4.31,.61-1.44-.21-3.01,.54-4.31-.61Z"/><path class="cls-17" d="M153.42,116.93c1.24,.18,2.61-.5,3.7,.61-1.24-.18-2.61,.49-3.7-.61Z"/><path class="cls-2" d="M131.89,113.85c.85,.08,1.81-.29,2.46,.61-.85-.07-1.81,.28-2.46-.61Z"/><path class="cls-8" d="M285.71,105.23c.27-.49,.72-.6,1.23-.61-.27,.5-.72,.6-1.23,.61Z"/><path class="cls-16" d="M274.02,108.92c.27-.49,.73-.6,1.23-.61-.27,.49-.72,.6-1.23,.61Z"/><path class="cls-16" d="M307.86,36.32l-.61-.61,.61,.61Z"/><path class="cls-16" d="M307.24,35.71l-.61-.62,.61,.62Z"/><path class="cls-16" d="M306.63,35.09h-.62c0-.2,0-.4,0-.6,.21,.2,.42,.4,.63,.6Z"/><path class="cls-16" d="M276.48,108.31l.62-.61-.62,.61Z"/><path class="cls-8" d="M284.48,105.85l.62-.61-.62,.61Z"/><path class="cls-15" d="M317.7,42.48c-.21-.2-.41-.41-.62-.61l.62,.61Z"/><path class="cls-15" d="M316.47,41.86l-.62-.61,.62,.61Z"/><path class="cls-15" d="M315.86,41.25l-.62-.61,.62,.61Z"/><path class="cls-15" d="M314.63,40.63l-.62-.61,.62,.61Z"/><path class="cls-15" d="M314.01,40.02l-.62-.61,.62,.61Z"/><path class="cls-3" d="M125.13,343.96c-.36-4.15-1.81-8.06-2.74-12.09-.4-1.73-.47-3.61-1.56-5.14-.29-4-1.66-7.76-2.59-11.62-2.42-10-4.91-19.97-6.74-30.1-.05-.27-.34-.49-.52-.73-.04-3.39-1.14-6.61-1.59-9.94-.65-4.74-1.41-9.46-2.1-14.19-.6-4.13-1.2-8.25-1.75-12.38-.28-2.12-.4-4.28-.53-6.39-.21-3.36-.57-6.72-.9-10.06-.39-3.95-.11-7.96-1.04-11.86-.05-.2-.07-.41-.06-.61,.34-4.82-.65-9.58-.65-14.38,0-6.24-.33-12.49-.77-18.68-.8-11.27-.42-22.52-.32-33.77,.05-5.76,.58-11.61,1.88-17.28,.3-1.31,.19-2.68,.66-3.91,.66-1.7,.07-2.26-1.59-2.26-.36,0-.72-.32-1.07-.49,4.17,.3,8.35,.49,12.51,.94,3.25,.35,6.53,.39,9.78,.63,4.27,.32,8.56,.68,12.85,.89,7.64,.38,15.27,1.08,22.91,1.65,.31,.02,.61,.07,.92,.06,5.94-.18,11.87,.46,17.77,.84,7.89,.5,15.77,.1,23.63,.56,9.67,.57,19.38,.98,28.81,3.58,10.86,2.99,20.4,8.28,28.67,15.95,7.83,7.26,13.89,15.79,18.99,25.11,2.65,4.85,5.38,9.65,7.16,14.91,.32,.36,.18,.92,.54,1.26,.04,.19,.05,.38,.05,.57,.72,3.76,.31,7.53-.08,11.28-1.7,16.23-5.13,32.18-7.71,48.27-3.43,21.36-6.93,42.7-11.62,63.83-4.05,18.23-9.18,36.16-14.87,53.93-.44,1.38-.92,2.72-2.02,3.74-10.81,2.55-21.41,6.02-32.62,6.87-7.04,.53-14.05,1.2-21.12,1.11-2.76-.04-5.52,.4-8.27,.32-11.64-.33-23.35-.25-34.76-3.03-6.43-1.57-12.97-2.88-18.94-5.96-1.13-.8-1.76-1.91-2.11-3.25-2.15-8.27-4.41-16.52-6.24-24.87-.24-1.12-.03-2.22-.24-3.31Z"/><path class="cls-22" d="M247.61,428.28c-2.36,1.07-4.85,1.65-7.42,1.88-1.55-1.07-2.3-2.74-2.45-4.43-.32-3.66-1.09-7.35-.76-10.98,.79-8.67,.4-17.34,.66-26.01,.05-1.67-.41-3.54,1.3-4.78,2.23-.7,4.44-1.5,6.77-1.84-1.12,3.19-.79,6.47-.3,9.67,.32,2.05,.53,4.12,.14,6.08-.31,1.51-.14,2.79,.3,4.14,.77,2.35,.42,4.82,.37,7.18-.09,4.05,.13,8.09,.1,12.14-.01,1.74,.02,3.48,0,5.22-.01,.93,.24,1.61,1.28,1.74Z"/><path class="cls-22" d="M249.5,427.68c-.33,.45-.79,.57-1.32,.54,.31-.51,.79-.58,1.32-.54Z"/><path class="cls-53" d="M249.43,376.06c1.19-3.9,2.32-7.82,3.58-11.7,3.64-11.26,6.79-22.66,9.66-34.13,3.14-12.54,5.64-25.22,8.11-37.9,1.52-7.78,2.54-15.65,3.89-23.46,1.59-9.21,3.01-18.45,4.7-27.65,1.47-7.99,2.96-15.99,3.94-24.07,.72-5.96,1.93-11.86,1.8-17.9-.03-1.44,.81-2.76,.62-4.22,.8,.42,.4,2.04,1.83,1.84,2.85-2.29,6.12-4.05,8.71-6.68,1.51-.45,2.68-1.43,3.81-2.45,5.67-5.12,11.73-9.82,17.18-15.2,.64-.63,1.5-1.04,2.26-1.55,.29,3.92-.84,7.68-1.46,11.48-1.18,7.22-2.63,14.39-4.07,21.56-1.43,7.18-2.97,14.34-4.49,21.5-1.98,9.35-3.88,18.72-6.01,28.03-2.21,9.63-4.59,19.21-7.01,28.79-2.7,10.67-5.8,21.23-9.08,31.75-3.82,12.29-8.03,24.44-12.11,36.64-1.49,4.45-3.26,8.81-4.75,13.25-.27,.81-1.32,1.78-.19,2.77-6.36,4.49-13.22,7.86-20.93,9.3Z"/><path class="cls-30" d="M355.85,72.62c0,.61-.04,1.23,0,1.84,.24,3.41-.54,6.45-2.95,9.03-1.31,1.41-2.39,3.03-3.58,4.56-1.01,1.3-2.2,1.37-3.48,.47-.58-.41-1.1-.91-1.63-1.39-1.72-1.57-2.14-1.58-3.77-.04-1.16,1.1-1.87,2.4-1.84,4.06,.04,2.25-.03,4.51,.02,6.76,.03,1.58-.3,3.09-1.16,4.37-.97,1.43-1.43,2.79-1.1,4.57,.24,1.25-.12,2.6-.22,3.91-.24,3.5-1.63,6.71-2.61,10.02-1.13,3.8-3.45,7.06-5.05,10.66-.28,.62-.91,1.09-1.4,1.61-.56,.59-1.25,1.12-1.48,1.93-1.51,5.43-5.58,9.4-8.28,14.15-2.18,3.83-4.94,7.43-7.36,11.2-1.58,2.45-3.2,4.95-4.95,7.23-1.51,1.98-2.93,4.34-5.21,5.77-1.91,1.2-2.62,3.39-3.77,5.15-1.51,2.31-3.39,4.33-4.82,6.69-.99,1.64-2.42,2.97-2.65,5.08-.11,1.01-1.1,1.68-2.27,1.74-2-3.25-3.15-6.86-4.31-10.46,.25-1.32,1.23-2.16,2.19-2.86,3.86-2.84,7.41-6.03,11.53-8.6,4.19-2.61,8.18-5.85,10.23-10.7,.98-2.31,2.77-4.05,4.22-6.01,2.99-4.06,4.52-8.93,7.5-13.01,1.93-2.64,3.92-5.24,5.96-7.78,1.77-2.2,3.17-4.5,4.09-7.13,.18-.44,.39-.85,.62-1.26,3.42-6.03,4.75-12.69,5.67-19.43,.33-2.42,.57-4.83,1.21-7.19,.45-2.3,.98-4.6,.71-6.95-.37-3.3,1.34-5.88,2.84-8.52,.81-1.43,2.21-1.62,3.73-1.51,1.44,.1,3,1.47,4.32,.03,1.62-1.76,2.6-3.88,2.61-6.35,0-.92-.13-1.83-.18-2.74-.07-1.18,.16-2.24,1.34-2.84,.35-.05,.66,.04,.93,.26h0c.2,.21,.4,.42,.62,.62h0c.19,.22,.42,.4,.62,.61,.2,0,.41,0,.61,0,.19,.22,.41,.41,.61,.61h0c.2,.21,.4,.42,.61,.62h0c.2,.21,.4,.42,.62,.62,.21,.2,.39,.43,.62,.61h0Z"/><path class="cls-38" d="M336.16,97.85c-.66,1.71-1.24,3.45-1.23,5.31,.02,5.06-1.61,9.8-2.94,14.58-.7,2.52-1.43,5.11-3.22,7.18-.23,.18-.39,.43-.62,.62-.19,2.46-1.43,4.44-2.91,6.28-4.09,5.08-8.32,10.05-11.05,16.07-1.44,3.18-3.31,6.09-5.65,8.71-.8,.89-1.43,1.96-1.95,3.09-1.28,2.81-2.96,5.34-5.58,7.12-.59,.4-1.13,.87-1.64,1.37-1.45,1.43-2.87,2.76-4.91,3.52-2.7,1.01-4.39,3.62-6.83,5.11-2.11,1.3-3.62,3.29-5.62,4.71-.19-.22-.39-.42-.61-.62-.74-2.66-2.15-5.01-3.5-7.36-.7-1.23-1.38-2.46-2.04-3.71,2.65-1.89,5.68-2.26,8.78-1.97,5.82,.54,10.43-2.09,14.22-5.92,10.13-10.23,18.51-21.78,24.88-34.74,1.19-2.43,2.9-4.43,5.01-6.09,1.08,.4,.63-.36,.6-.81-.11-1.64,.4-3.1,1.18-4.5,.2-.37,.41-.74,.61-1.11,.18-.39,.37-.78,.55-1.17,.21-.88,.56-1.74,.47-2.68-.18-2.34,.77-4.53,.92-6.83,.71-2.67,.65-5.39,.62-8.12,0-.2-.03-.41,0-.61,.61-2.84,1.22-5.67,1.84-8.51,1.67,.29,.76,1.59,.89,2.42,.44,2.89-1.05,5.74-.27,8.65Z"/><path class="cls-29" d="M329.39,121.23c-2.33,2.53-4.83,4.89-5.83,8.4-.4,1.43-1.38,2.72-2.22,3.99-3.38,5.06-6.01,10.62-10.36,15.02-1.34,1.36-2.37,3.08-3.37,4.71-2.55,4.18-6.02,7.57-9.72,10.53-3.39,2.71-7.18,5.35-12.15,4.8-2.69-.3-5.51-.43-8.07,1.04-.47,.27-1.2,.1-1.81,.13h0c-.19-.22-.39-.42-.61-.61,0-.2,0-.41,0-.61-.22-.19-.38-.44-.61-.62l-1.23-1.85c2.04-1.58,4.29-2.02,6.76-1.23,1.63,0,3.21,0,4.78-.78,1.45-.73,3.12-.75,4.77-.51,1.47,.22,2.44-.36,3.68-1.45,6.11-5.37,10.3-12.31,15.59-18.34,5.25-5.98,9.45-12.76,14.6-18.81,2.15-2.53,3.91-5.18,5.05-8.3,.65-1.79,2.5-2.9,3.22-4.73,.41,.62,.43,1.23,0,1.85v1.23c-.23,.18-.39,.43-.62,.62-.69,1.57-1.36,3.15-1.23,4.92-.23,.18-.24,.58-.62,.62Z"/><path class="cls-8" d="M280.17,164.92c-2.25,.41-4.51,.82-6.76,1.23-.79-1.25-2-2.22-2.47-3.69,5.27-.2,9.97-1.72,13.86-5.49,1.67-1.62,3.63-2.95,5.52-4.33,3.73-2.74,6.75-6.23,10.03-9.45,3.51-3.44,6.93-6.96,10.44-10.41,3.21-3.15,6.06-6.6,8.89-10.09,2.95-3.64,5.85-7.32,8.57-11.13,.88-1.23,1.59-2.57,2.38-3.86,.42,2.61-.67,4.83-1.95,6.93-3.13,5.14-6.77,9.9-10.58,14.56-3.28,4.02-6.31,8.24-9.61,12.25-2.65,3.22-5.37,6.39-8.83,8.82-.33,.23-.69,.46-.95,.76-3.8,4.43-8.72,7.55-13.12,11.28-1.61,1.37-3.69,1.6-5.42,2.62Z"/><path class="cls-53" d="M285.68,194.45c-.48-.29-.57-.75-.54-1.26,.45,.3,.57,.75,.54,1.26Z"/><path class="cls-30" d="M281.41,180.91l.61,.62-.61-.62Z"/><path class="cls-38" d="M274.63,167.99c.2,.21,.41,.41,.61,.62l-.61-.62Z"/><path class="cls-38" d="M275.26,169.22l.61,.61-.61-.61Z"/><path class="cls-8" d="M270.33,161.84l.61,.62c-.2-.21-.41-.41-.61-.62Z"/><path class="cls-13" d="M70.38,370.44c.2-.01,.4-.02,.6-.02-.97,3.11-2.62,5.96-3.2,9.22-1.53,8.65-.14,16.64,5.16,23.79,4.08,5.51,9.29,9.62,15.31,12.89,8.84,4.8,18.24,8.01,27.86,10.78,7.55,2.18,15.22,3.7,22.9,5.19,4.07,.79,8.26,1.04,12.38,1.6,3.74,.5,7.51,.22,11.24,.94,1.92,.37,4.02,.21,5.97-.11,1.33-.22,2.63-.24,3.95-.33,2.14-1.55,4.5-.77,6.8-.66,10.71,.5,21.42,.52,32.13,.1,2.11-.55,4.33,.06,6.43-.63,1.84-.46,3.77,.01,5.59-.61,3.61-.53,7.2-1.16,10.79-1.76,.32-.1,.65-.16,.99-.19,.87-.08,1.69,.03,2.37,.65,6.09,.57,11.95-.96,17.82-2.12,10.73-2.11,21.12-5.42,31.12-9.79,6.33-2.77,12.51-5.79,17.57-10.92,3.71-3.76,6.48-7.76,7.67-12.83,1.1-4.68,.39-9.35-1.95-13.33-1.95-3.31-5.18-5.74-9.14-6.81-4.08-1.11-5.15-2.52-5.19-6.63,0-.72,0-1.43,0-2.15,1.69,1.33,3.43,2.25,5.68,2.69,6.89,1.36,12.27,5.12,15.01,11.77,1.54,3.73,2.16,7.61,1.75,11.89-.66,6.99-4.48,12.13-8.19,17.49-.78,1.13-2.08,1.64-3.08,2.51-5.68,4.98-12.43,8.05-19.28,11.01-4.88,2.11-9.79,4.17-14.86,5.73-8.17,2.53-16.48,4.5-24.94,5.92-5.73,.96-11.54,1.14-17.22,2.32-.2,.04-.41,.03-.61,.03-7.47-.2-14.89,1.03-22.37,.65-2.02-.1-4.05-.11-6.09,.41-1.65,.42-3.35-.68-5.13-.47-1.71,.21-3.48-.23-5.16,.5-.36,.15-.82,.17-1.21,.11-8.05-1.26-16.15-.28-24.22-.57-3.16-.11-6.27-.66-9.4-1.03-.71-.08-1.42-.21-2.13-.2-6.15,.05-12.16-1.08-18.18-2.08-6.93-1.15-13.8-2.65-20.54-4.69-8.59-2.6-17.25-5.02-25.23-9.23-6.16-3.25-12.12-6.78-16.84-12.1-4.7-5.3-8.19-11.09-9.2-18.28-.5-3.58-.76-7.07-.12-10.64,.08-.44-.25-.96-.39-1.44,0-.2,0-.4,.01-.61,.48-.27,.59-.72,.63-1.22,.2-.21,.4-.42,.6-.62,.2-.21,.41-.41,.61-.62,.8-.35,1.21-.97,1.25-1.83,.2-.21,.4-.41,.6-.62,.2-.21,.41-.41,.61-.62,.2-.21,.41-.41,.61-.62,.2-.21,.41-.41,.61-.62,.21-.21,.41-.41,.62-.62,.21-.2,.41-.41,.62-.61Z"/><path class="cls-38" d="M336.16,97.85c-1.09-1.79-.65-3.67-.31-5.54,.34-1.87,.78-3.75-.31-5.54-.23-4.05,.53-8.14-.56-12.16-.19-.69,.02-1.4,.31-2.08,1.29-3.07,3.69-5.64,4.13-9.12,.06-.45,.86-.8,1.29-1.22,.72-.7,1.6-1.31,1.6-2.48,3.13,2.61,5.99,5.49,8.62,8.61,.16,.14,.21,.27,.16,.41-.05,.14-.1,.21-.16,.21-.82,.73-1.19,1.51-.86,2.7,.95,3.44-.24,6.44-2.16,9.23-1.27,1.85-1.45,1.88-3.51,1.11-.67-.25-1.33-.58-2.02-.68-1.88-.29-2.42,.06-3.23,1.89-.04,.09-.06,.21-.12,.28-2.32,2.82-2.54,6.14-2.24,9.57,.15,1.67-.88,3.17-.63,4.84Z"/><path class="cls-40" d="M355.85,72.63l-.62-.61,.62,.61Z"/><path class="cls-40" d="M355.23,72.01l-.62-.61,.62,.61Z"/><path class="cls-40" d="M354.62,71.4l-.61-.61,.61,.61Z"/><path class="cls-40" d="M354,70.78l-.61-.61,.61,.61Z"/><path class="cls-40" d="M352.78,70.16c-.21-.21-.41-.41-.62-.62l.62,.62Z"/><path class="cls-40" d="M352.16,69.55l-.62-.62,.62,.62Z"/><path class="cls-40" d="M350.93,68.93v-.62l.62,.61h-.62Z"/><path class="cls-8" d="M334.93,51.71l-.61-.62,.61,.62Z"/><path class="cls-37" d="M211.92,434.43c-.74,.77-1.71,.56-2.61,.57-9.21,.01-18.42,.14-27.63-.07-3.04-.07-6.08-.62-9.15-.54-1.56-1.23-3.48-.53-5.22-.88-2.51-.51-5.08-1.1-7.7-.96-9.47-1.18-18.69-3.39-27.61-6.78-1.34-.51-3.13-.59-3.28-2.63,.42-2.09-.31-4.06-.72-6.04-2.48-11.75-4.47-23.55-3.77-35.63,.08-1.31-.18-2.7,.93-3.75,4.07,1.36,8.13,2.75,12.21,4.06,9.15,2.94,18.37,5.53,27.98,6.59,4.67,.51,9.35,.86,14.02,1.26,5.12,.44,10.23,.6,15.33,.37,4.08-.18,8.16-.59,12.25-.55,1.33,3.5,.29,7.06,.06,10.55-.69,10.32-1.57,20.62-2.52,30.92-.18,1.97,.71,2.51,2.46,2.57,1.69,.06,3.52-.42,4.98,.94Z"/><path class="cls-42" d="M234.69,431.35c-3.61,1.11-7.32,1.67-11.09,1.84-2.62,.98-3.33-.49-3.39-2.69-.12-4.1-.25-8.21,0-12.29,.56-9.4,1.09-18.81,1.82-28.2,.15-1.9,1.12-2.67,2.77-2.99,2.81-.9,5.72-1.34,8.61-1.85-.39,12.82-.65,25.64-.34,38.46,.07,2.66,.39,5.29,1.62,7.71Z"/><path class="cls-24" d="M211.92,434.43c-2.26,0-4.51-.07-6.77-.01-1.53,.04-2.23-.79-1.84-2.07,.97-3.19,.19-6.51,1.02-9.72,.61-2.34,.47-4.88,.6-7.29,.2-3.87,.72-7.72,.85-11.6,.16-4.77,.75-9.53,1.16-14.3,3.24-.82,6.56-.92,9.86-1.18,1.27,.59,1.3,1.71,1.22,2.87-.6,8.66-1.18,17.31-1.96,25.95-.33,3.66-.12,7.35-.73,11-.42,2.53,.13,4.65,2.76,5.73-1.97,1.12-4.12,.38-6.17,.61Z"/><path class="cls-19" d="M125.13,343.96c1.43,2.64,1.55,5.64,2.3,8.46,1.78,6.69,3.4,13.43,5.13,20.14,.25,.98,.76,1.89,1.15,2.83-6.26-1.51-11.75-4.71-17.24-7.88-1.13-.65-2.34-1.31-3.05-2.51-.32-1.04-1.11-1.83-1.94-2.3-2.02-1.15-2.87-2.89-3.56-5.01-1.14-3.49,.26-6.49,3.79-7.6,4.17-1.3,7.94-3.64,12.14-4.89,.61-.18,1.02-.66,1.28-1.24Z"/><path class="cls-21" d="M234.69,431.35c-.97-.03-1.79-.12-1.9-1.43-.34-4.13-1.33-8.29-1.01-12.36,.5-6.27,.25-12.53,.52-18.78,.15-3.43-.03-6.91-.14-10.37-.04-1.29,.12-2.43,1.25-3.23,1.78-.69,3.6-1.24,5.53-1.22-.61,3.89-.21,7.83-.45,11.7-.37,6.01,.53,12.07-.69,18.04-.18,.89-.24,1.87-.06,2.75,.58,2.83,.6,5.68,.6,8.54,0,1.92,1.69,3.27,1.84,5.16-.67,.76-1.59,.52-2.43,.57-.73,.64-1.78-.1-2.5,.59l-.28,.04h-.29Z"/><path class="cls-35" d="M218.09,433.82c-3.76-.15-4.04,.58-3.69-3.93,.39-4.97,.32-9.97,1.05-14.93,.43-2.91,.47-5.9,.59-8.83,.17-4.29,1.15-8.52,.76-12.83-.06-.72,.06-1.42,.36-2.1,.46-1.04,.13-2-.37-2.93,2.61-.77,5.29-1.08,8-1.24-1.35,.71-1.96,1.66-1.9,3.35,.18,4.76-.79,9.47-1.02,14.21-.01,.3-.14,.6-.14,.9,0,8.34-1.04,16.66-.64,25.01,.11,2.38,.06,2.38,2.5,2.68-1.74,1.06-3.67,.45-5.51,.63Z"/><path class="cls-18" d="M125.15,377.71c0,5.53-.17,11.07,.03,16.59,.12,3.13,.78,6.25,1.29,9.36,.97,5.91,1.91,11.84,3.42,17.65,.26,.98,.21,1.87-1.1,2.04-.14,.01-.27,.03-.41,.04-.71,.04-1.42-.02-2.13-.14-1.8-.85-4.23-.9-4.54-3.63-1.42-9-2.08-18.08-2.77-27.14-.45-5.91-.57-11.83,.02-17.74,2.23,.64,4.26,1.7,6.18,2.97Z"/><path class="cls-1" d="M109.74,412.87c1.5-2.87,2.02-5.88,1.39-9.08-.14-.7-.21-1.43-.15-2.14,.39-4.62-.34-9.22-.84-13.74-.41-3.76,.35-7.48-.39-11.18-.47-2.36,.54-4.64,.63-6.99,1.85,.68,3.37,1.89,4.9,3.08,1.3,1.04,1.04,2.57,1.2,3.95,.79,6.8-.27,13.62,.21,20.45,.34,4.76,1.04,9.53,.69,14.34-.13,1.83-.04,3.7-1.5,5.14-2.78,.27-4.86-1.02-6.16-3.83Z"/><path class="cls-25" d="M115.25,416.58c.86-.84,1.21-1.99,1.2-3.05-.06-3.67,.54-7.36-.4-11.01-.18-.68-.14-1.42-.15-2.14-.05-3.36,.18-6.73-.57-10.05-.09-.39-.11-.85,.02-1.22,.97-2.7,.52-5.49,.5-8.23-.02-2.69-.36-5.37-.56-8.06,.49,.05,.95,.18,1.22,.64,.31,.4,.88,.29,1.21,.64h.01c.32,.37,.89,.25,1.21,.62h.02c.63,1.02,.63,2.13,.62,3.27-.02,2.76,0,5.52,0,8.27-.02,4.68,.46,9.32,1.16,13.94,.06,.4,.09,.82,.06,1.22-.38,5.14,.73,10.1,1.71,15.09,.24,1.23,.64,2.64-.52,3.75-.2,.18-.43,.25-.7,.22-.38-.07-.76-.18-1.13-.29-1.14-.39-2.22-.89-3.26-1.48-.66-.63-1.82-.88-1.66-2.15Z"/><path class="cls-18" d="M117.73,374.11c-.51-.01-.97-.13-1.21-.64,.5,.03,.95,.17,1.21,.64Z"/><path class="cls-18" d="M118.95,374.73c-.5-.02-.95-.13-1.21-.61,.5,0,.94,.14,1.21,.61Z"/><path class="cls-1" d="M109.75,369.18c-.21-.19-.42-.37-.63-.56,.21,.19,.42,.37,.63,.56Z"/><path class="cls-1" d="M110.4,369.78c-.22-.2-.44-.4-.65-.6,.22,.2,.44,.4,.65,.6Z"/><path class="cls-42" d="M235.26,431.32c.67-.9,1.63-.53,2.5-.59-.04,.19-.07,.38-.11,.57-.8,0-1.59,.01-2.39,.02Z"/><path class="cls-14" d="M115.25,416.58c.5,.77,1.59,.89,1.96,1.8-1.22,1.17-2.48,.48-3.72,.05-6.56-2.3-13.28-4.16-19.66-6.94-9.82-4.29-17.61-10.61-19.49-21.91-1.06-6.37,.34-12.16,5.18-16.89,3.16-3.09,6.98-4.18,11.17-4.16,4,.01,4.33-.11,4.71-4.11,.09-.94,.25-1.82,.79-2.6-.58-2.67-1.26-5.34,0-8,.32,5.29,.56,10.59,1.11,15.87,.29,2.84,.21,5.73,.13,8.6-.21,6.76,.87,13.48,.59,20.23-.05,1.18,.3,2.22,.94,3.18,2.93,4.36,6.24,8.35,10.77,11.18,1.72,1.41,3.28,3.05,5.5,3.71Z"/><path class="cls-20" d="M96.19,361.8c0,1.54,.08,3.08-.02,4.61-.13,2.08-1.99,3.54-4.02,3.18-6.12-1.09-10.75,1.35-14.27,6.14-2.15,2.93-2.73,6.32-2.92,9.99-.24,4.52,1.23,8.32,3.24,12.13,2.27,4.32,5.89,7.28,9.93,9.72,6.15,3.7,12.85,6.1,19.78,7.9,2.06,.54,4.04,1.45,6,2.3,1.07,.47,2.12,.73,3.27,.6,1.19,.43,2.37,.85,3.56,1.28,.22,.19,.45,.36,.66,.56,.19,.04,.38,.06,.57,.06,1.48,1.18,3.15,1.97,4.98,2.43,.48,.6,1.35,.06,1.83,.64h-.01c.53,.69,1.32,.92,2.09,1.18,9.05,3.15,18.18,5.98,27.67,7.47,.37,.06,.7,.35,1.05,.54-1.86,.26-3.64-.31-5.44-.6-2.7-.44-5.41,0-8.18-.48-5.5-.95-11.02-1.8-16.51-2.85-7.12-1.36-13.99-3.6-20.94-5.59-3.73-1.07-7.26-2.71-10.85-4.17-.47-.19-.9-.51-1.38-.67-5.58-1.87-10.5-5-15.05-8.56-6.2-4.85-10.65-11.17-11.97-19.03-1.28-7.65,.29-14.97,5.41-21.01,4.49-5.3,10.54-7.64,17.47-7.01,1.58,.14,2.75-.13,4.02-.76Z"/><path class="cls-29" d="M333.08,104c.39,2.51-.77,4.89-.62,7.38-.21,.28-.41,.28-.62,0-.53-2.62,.42-4.99,1.23-7.38Z"/><path class="cls-38" d="M331.85,111.39h.62c-.09,.85,.29,1.81-.62,2.46v-2.46Z"/><path class="cls-8" d="M325.09,49.86l.62,.62-.62-.62Z"/><path class="cls-8" d="M328.16,54.17l.62,.62-.62-.62Z"/><path class="cls-8" d="M326.93,52.32l.61,.62-.61-.62Z"/><path class="cls-8" d="M325.7,50.48l.61,.62-.61-.62Z"/><path class="cls-8" d="M324.47,49.24c.21,.21,.41,.41,.62,.62-.21-.21-.41-.41-.62-.62Z"/><path class="cls-44" d="M119.58,191.37c-4.76,0-4.91-.15-4.92-5.02-.01-6.84-.02-13.68,0-20.52,0-3.66,.62-4.45,4.12-5.28,4.47-1.06,8.9-1.42,13.56-.74,3.44,.5,6.83,.99,10.08,2.16,2.48,.89,4.13,2.59,4.22,5.41,.73,1.28,.03,2.05-.91,2.84-6.54,5.47-12.43,11.53-16.9,18.85-1.21,1.97-2.74,2.93-5.05,2.61-1.4-.19-2.85,.33-4.21-.3Z"/><path class="cls-44" d="M234.64,231.36c-1.77-.78-3.53-1.57-5.3-2.35-1.22-.54-1.51-1.33-1.17-2.7,.56-2.28,.36-4.6-.04-6.95-.51-3.01-.65-6.09,.48-9.05,1.09-2.85,2.95-4.15,6.07-4.17,3.27-.03,6.54-.16,9.8,.04,3.54,.22,7.03,.9,10.45,1.87,1.74,.5,2.61,1.68,3.11,3.42,.66,2.31,.57,4.63,.59,6.97-.75,1.57-2.12,2.47-3.58,3.22-5.47,2.8-10.71,5.99-16.09,8.92-1.33,.72-2.71,1.47-4.32,.78Z"/><path class="cls-44" d="M171.27,190.14c.07-5.92-1.02-11.8-.63-17.74,.08-1.22,.16-2.41,.43-3.62,.98-4.36,1.73-4.55,6.09-5.01,5.57-.59,11.18-.92,16.81-.75,2.16,.07,4.26,.51,6.34,.89,1.64,.3,3.32,1.11,4.18,2.84,.65,1.74-.62,2.63-1.67,3.53-6.92,5.93-14.18,11.41-21.8,16.41-2.22,1.46-4.16,3.31-6.5,4.61-1.58,.88-2.68,.66-3.26-1.16Z"/><path class="cls-43" d="M115.89,236.9q-2.89-.05-3.07-2.46c2.78-.91,4.05-3.38,5.46-5.57,4.45-6.95,10.71-12.29,16.08-18.42,3.09,.4,6.06-.81,9.14-.63,2.63,.15,2.52,.11,3.32,2.55,.73,2.23,.31,4.47,.46,6.7-.83,1.69-2.11,2.95-3.54,4.16-4.53,3.83-8.66,8.08-12.59,12.52-.61,.69-1.03,1.52-2.14,1.47-4.37-.2-8.75,.38-13.1-.3Z"/><path class="cls-33" d="M171.27,190.14c.86,1.15,1.68,1.47,3.03,.45,7.4-5.55,15.33-10.36,22.47-16.3,1.79-1.49,3.45-3.16,5.43-4.44,1.05-.68,2.22-1.55,2.29-3.09,1.21,1.44,1.27,3.17,1.23,4.92,.89,3.42,.11,6.19-2.4,8.89-4.03,4.34-7.23,9.4-11.14,13.88-6.45,.78-12.93,1.07-19.4,1.48-1.14,.07-1.5-.17-1.5-1.19,0-1.53,0-3.06,0-4.59Z"/><path class="cls-36" d="M127.58,286.74c-2.41,.36-4.82,.7-7.22,1.1-1.25,.21-1.92-.09-2.03-1.5-.17-2.13-.83-4.21-.6-6.37,5.55-7.18,11.24-14.24,17.89-20.45,1.28-1.19,2.42-2.47,3.02-4.16,4.42,.68,5.46,2.19,5.53,6.17,.03,1.43,0,2.86,0,4.29-.76,1.82-1.83,3.34-3.5,4.52-1.96,1.38-3.19,3.45-4.39,5.48-1.71,2.92-3.68,5.67-5.71,8.38-.83,1.1-1.85,1.89-3.02,2.54Z"/><path class="cls-44" d="M226.64,172.3c.15-3.1,.83-5.85,4.23-7.04,1.01-.35,2-.34,3.01-.34,4.8-.01,9.6,.09,14.39-.04,2.85-.08,5.45,.48,7.9,1.88,.85,1.61-.47,2.29-1.43,2.89-8.43,5.26-16.73,10.73-25.18,15.95-2.29,1.41-3.25,.86-3.2-1.71,.09-3.87-.41-7.75,.27-11.6Z"/><path class="cls-44" d="M172.5,226.44c0-4.58-.04-9.16,0-13.75,.03-3.05,.5-3.56,3.6-3.46,7.02,.22,13.98-1.09,21-.64,1.35-.37,3.13-.98,3.8,.43,.67,1.41-1.1,2.24-2.14,2.96-7.4,5.13-14.62,10.5-21.73,16.02-.32,.25,.09-.05-.25,.18-2.91,1.95-3.6,1.67-4.29-1.75Z"/><path class="cls-44" d="M134.35,210.45c-.59,2.41-2.57,3.94-4.13,5.49-5.26,5.24-9.9,10.92-14,17.09-.73,1.1-1.59,2.59-3.4,1.42-.14-5.69-.87-11.34-.67-17.05,.07-2.06,.74-3.99,.76-6.03,0-.94,.73-1.43,1.64-1.49,.91-.06,1.87-.19,2.75-.01,5.66,1.13,11.37,.34,17.05,.58Z"/><path class="cls-44" d="M138.66,255.36c.56,.88,.58,1.64-.26,2.43-1.34,1.25-2.58,2.61-3.91,3.88-5.17,4.91-9.69,10.39-14,16.05-.79,1.03-1.63,1.76-2.76,2.26,0-.2,0-.41,0-.61-.66-.71,.08-1.76-.61-2.46-.29-2.63-.4-5.29-.93-7.87-.6-2.92-.26-5.69,.54-8.46,.54-1.86,2.13-2.69,3.76-3.33,3.06-1.21,6.28-1.77,9.56-1.86,2.87-.07,5.74-.01,8.61-.01Z"/><path class="cls-33" d="M172.5,226.44c1.35,2.9,1.45,3.02,3.91,1.08,7.49-5.92,15.27-11.44,23.02-17.01,.16-.12,.36-.2,.52-.31,.34-.24,.63-.54,.55-.99-.09-.51-.55-.56-.94-.58-.81-.04-1.63-.02-2.45-.03,1.24-1.12,2.71-.55,4.08-.52,.95,.02,1.2,.88,1.54,1.66,1.05,2.4,1.3,4.9,1.15,7.47-7.64,5.28-14.73,11.22-21.63,17.42-.66,.59-1.28,1.37-2.36,1.04-1.86,.08-3.59-.62-5.4-.89-1.36-.21-2.12-.94-2.01-2.51,.13-1.93,.03-3.88,.03-5.82Z"/><path class="cls-33" d="M226.64,172.3c0,3.78-.03,7.56,.02,11.34,.03,2.35,.47,2.58,2.43,1.34,7.22-4.57,14.43-9.16,21.64-13.73,1.37-.87,2.74-1.77,4.14-2.58,.77-.45,1.29-.98,1.31-1.9,2.04,1.03,2.21,3,2.46,4.92-.67,1.28-1.65,2.26-2.76,3.19-6.63,5.56-13,11.42-19.35,17.3-.92,.85-1.68,1.85-3.11,1.04-1.73-.01-3.43-.05-5.15-.5-1.49-.38-2.17-1.21-2.18-2.51-.04-5.72,.01-11.45,.06-17.17,0-.25,.32-.49,.5-.74Z"/><path class="cls-52" d="M233.41,193.22c.6-.03,1.23,.05,1.7-.47,4.55-5.07,10-9.18,14.89-13.89,2.69-2.59,5.74-4.8,8.63-7.18,.14,2.91,.85,5.72,.39,8.76-.4,2.66-1.47,4.81-3.42,6.12-2.86,1.93-4.91,4.48-6.87,7.14-.87,1.17-1.83,1.55-3.12,1.32-3.7-.66-7.41-1.09-11.16-1.25-.35-.01-.69-.36-1.03-.55Z"/><path class="cls-57" d="M179.88,235.67c3.39-3.07,6.8-6.13,10.44-8.92,3.63-2.78,6.87-6.06,10.78-8.49,.88-.55,1.66-1.21,2.78-1.05,0,2.45-.16,4.92,.04,7.35,.28,3.44-1.39,5.8-3.81,7.85-1.24,1.05-2.53,2.05-3.77,3.1-.57,.49-1.18,.77-1.94,.77-4.49-.02-8.99-.01-13.48-.06-.35,0-.69-.36-1.03-.55Z"/><path class="cls-39" d="M115.89,236.9c3.98,0,7.96-.01,11.93,0,1.07,0,2.02-.02,2.37-1.35,.12-.45,.53-.86,.89-1.22,5.24-5.26,10.35-10.66,16.19-15.29,.35,5.22-.43,10.39-.64,15.58-.09,2.32-.68,2.86-2.99,2.87-8.5,.03-16.99,.01-25.49,0-.8,0-1.66,.16-2.26-.61Z"/><path class="cls-52" d="M234.64,231.36c.96,.09,1.82-.21,2.61-.69,7.05-4.21,14.48-7.76,21.38-12.23,.37,3.9-.49,7.73-.66,11.6-.12,2.68-.8,3.44-3.37,3.09-4.45-.61-8.97-.15-13.39-1.05-1.28-.26-2.66-.07-3.99-.12-.89-.03-1.87,.26-2.57-.61Z"/><path class="cls-23" d="M119.58,191.37c1.43,0,2.86-.1,4.28,.02,1.87,.16,3.02-.62,3.94-2.22,4.01-6.95,9.74-12.45,15.38-18.03,.66-.65,1.34-1.25,2.21-1.6,1-.4,1.37-1.14,1.26-2.17,1.16,1.3,.39,2.87,.62,4.31,1.36,4.64-.56,7.99-4.38,10.32-3.39,2.07-6.27,4.59-8.33,7.99-1.56,2.59-3.82,2.68-6.37,2-2.13,0-4.25,0-6.38,0-.79,0-1.64,.15-2.24-.61Z"/><path class="cls-41" d="M128.2,191.99c3.02,.56,4.9-.85,6.36-3.38,1.76-3.04,4.33-5.3,7.46-6.92,2.15-1.12,3.64-2.99,4.9-4.91,.94-1.43,.23-3.38,.36-5.09,.77,.6,.61,1.45,.61,2.25,0,3.77,0,7.54,0,11.31,0,2.14-.86,4.16-.71,6.34,.08,1.07-.79,1.6-1.84,1.61-1.73,.03-3.53,.31-5.18-.05-3.24-.71-6.47-.45-9.71-.54-.8-.02-1.66,.16-2.25-.61Z"/><path class="cls-41" d="M127.58,286.74c3.98-4.42,6.89-9.59,10.25-14.45,.84-1.21,1.69-2.31,3.02-2.97,1.54-.77,1.88-2.67,3.35-3.5,.05,4.6-.86,9.09-1.56,13.6-.09,.6-.24,1.2-.27,1.81-.2,3.36-.17,3.49-3.31,4.02-3.8,.63-7.64,1.01-11.46,1.49Z"/><path class="cls-11" d="M192.19,194.45c.31-2.4,2.13-3.9,3.51-5.58,3.14-3.84,5.89-8,9.34-11.58,.56-.58,.69-1.2,.68-1.93,0-1.22,0-2.44,0-3.67,.43,.34,.63,.81,.6,1.34-.21,3.96,.41,7.92-.48,11.89-.53,2.35,.05,4.86-.68,7.27-.31,1.03-.57,1.65-1.72,1.65-3.76,.01-7.47,1-11.26,.62Z"/><path class="cls-36" d="M117.13,276.89c.9,.65,.53,1.61,.61,2.46-.9-.65-.53-1.61-.61-2.46Z"/><path class="cls-38" d="M328.16,125.54l.62-.62c-.21,.21-.41,.41-.62,.62Z"/><path class="cls-38" d="M329.39,121.23c.21-.21,.41-.41,.62-.62-.16,.25,.31,1.13-.62,.62Z"/><path class="cls-38" d="M331.24,115.69l.62-.62-.62,.62Z"/><path class="cls-37" d="M128.81,423.35c-.68-.02-1.39,.05-1.83-.64,.68,.02,1.41-.11,1.83,.64Z"/><path class="cls-18" d="M121.42,420.21c-.22-.19-.44-.37-.66-.56,.22,.19,.44,.37,.66,.56Z"/></svg>