<?xml version="1.0" encoding="UTF-8" standalone="no"?>
<svg
   id="Layer_1"
   viewBox="0 0 178 178.96"
   version="1.1"
   sodipodi:docname="blue_button.svg"
   inkscape:version="1.2.1 (9c6d41e410, 2022-07-14)"
   xmlns:inkscape="http://www.inkscape.org/namespaces/inkscape"
   xmlns:sodipodi="http://sodipodi.sourceforge.net/DTD/sodipodi-0.dtd"
   xmlns="http://www.w3.org/2000/svg"
   xmlns:svg="http://www.w3.org/2000/svg">
  <sodipodi:namedview
     id="namedview66"
     pagecolor="#ffffff"
     bordercolor="#000000"
     borderopacity="0.25"
     inkscape:showpageshadow="2"
     inkscape:pageopacity="0.0"
     inkscape:pagecheckerboard="0"
     inkscape:deskcolor="#d1d1d1"
     showgrid="false"
     inkscape:zoom="1.03719"
     inkscape:cx="-75.203193"
     inkscape:cy="59.776897"
     inkscape:window-width="1360"
     inkscape:window-height="705"
     inkscape:window-x="-8"
     inkscape:window-y="-8"
     inkscape:window-maximized="1"
     inkscape:current-layer="Layer_1" />
  <defs
     id="defs47">
    <style
       id="style2">.cls-1{fill:url(#linear-gradient-2);}.cls-2{fill:url(#radial-gradient);}.cls-3{fill:url(#radial-gradient-2);}.cls-4{fill:#026ad2;}.cls-5{fill:url(#linear-gradient-3);}.cls-6{fill:url(#linear-gradient);}</style>
    <radialGradient
       id="radial-gradient"
       cx="89"
       cy="89.48"
       fx="89"
       fy="89.48"
       r="89.24"
       gradientUnits="userSpaceOnUse">
      <stop
         offset=".77"
         stop-color="#000"
         id="stop4" />
      <stop
         offset="1"
         stop-color="#000"
         stop-opacity="0"
         id="stop6" />
    </radialGradient>
    <radialGradient
       id="radial-gradient-2"
       cx="-265.08"
       cy="1088.17"
       fx="-265.08"
       fy="1088.17"
       r="357.56"
       gradientTransform="translate(-214.29 345.66) rotate(89.04) scale(1 -.28)"
       gradientUnits="userSpaceOnUse">
      <stop
         offset=".62"
         stop-color="#026ad2"
         id="stop9" />
      <stop
         offset=".69"
         stop-color="#0263c6"
         id="stop11" />
      <stop
         offset=".82"
         stop-color="#0552a8"
         id="stop13" />
      <stop
         offset=".98"
         stop-color="#093777"
         id="stop15" />
      <stop
         offset="1"
         stop-color="#0a3572"
         id="stop17" />
    </radialGradient>
    <linearGradient
       id="linear-gradient"
       x1="143.8"
       y1="520.59"
       x2="145.34"
       y2="376.11"
       gradientTransform="translate(-56 532.49) scale(1 -1)"
       gradientUnits="userSpaceOnUse">
      <stop
         offset="0"
         stop-color="#1586d7"
         id="stop20" />
      <stop
         offset=".16"
         stop-color="#2992de"
         id="stop22" />
      <stop
         offset=".48"
         stop-color="#5eb3f0"
         id="stop24" />
      <stop
         offset=".71"
         stop-color="#87ccff"
         id="stop26" />
    </linearGradient>
    <linearGradient
       id="linear-gradient-2"
       x1="144.12"
       y1="394.91"
       x2="144.7"
       y2="491.53"
       gradientTransform="translate(-56 532.49) scale(1 -1)"
       gradientUnits="userSpaceOnUse">
      <stop
         offset="0"
         stop-color="#3cabfe"
         id="stop29" />
      <stop
         offset=".46"
         stop-color="#2798ec"
         id="stop31" />
      <stop
         offset="1"
         stop-color="#0b7ed3"
         id="stop33" />
    </linearGradient>
    <linearGradient
       id="linear-gradient-3"
       x1="144.12"
       y1="515.66"
       x2="144.97"
       y2="461.52"
       gradientTransform="translate(-56 532.49) scale(1 -1)"
       gradientUnits="userSpaceOnUse">
      <stop
         offset="0"
         stop-color="#add5f1"
         id="stop36" />
      <stop
         offset=".23"
         stop-color="#88c2ec"
         id="stop38" />
      <stop
         offset=".58"
         stop-color="#57a9e6"
         id="stop40" />
      <stop
         offset=".85"
         stop-color="#399ae3"
         id="stop42" />
      <stop
         offset="1"
         stop-color="#2e95e2"
         id="stop44" />
    </linearGradient>
  </defs>
  <g
     id="g63">
    <path
       class="cls-4"
       d="M139.35,25.68q14.37,14.08-.01,0c-13.82-11.06-31.3-17.68-50.34-17.68-22.87,0-43.52,9.55-58.25,24.89-14.07,14.66-22.75,34.6-22.75,56.59,0,45,36.26,81.48,81,81.48s81-36.48,81-81.48c0-25.85-11.98-48.88-30.65-63.8Z"
       id="path51" />
    <g
       id="g61">
      <path
         class="cls-3"
         d="M139.6,25.8c14.37,14.08,23.36,34.02,23.36,56.15,0,42.64-33.31,77.21-74.4,77.21S14.15,124.59,14.15,81.95c0-18.57,6.32-35.61,16.85-48.94-14.07,14.66-22.75,34.6-22.75,56.59,0,45,36.26,81.48,81,81.48s81-36.48,81-81.48c0-25.85-11.98-48.88-30.65-63.8Z"
         id="path53" />
      <path
         class="cls-6"
         d="M88.55,159.16c41.09,0,74.4-34.57,74.4-77.21,0-22.13-8.98-42.07-23.36-56.15-13.82-11.06-31.3-17.68-50.34-17.68-22.87,0-43.52,9.55-58.25,24.89-10.53,13.32-16.85,30.36-16.85,48.94,0,42.64,33.31,77.21,74.4,77.21h0Zm-.11-146.43c8.72,0,17.05,1.67,24.7,4.69,.3,.11,.59,.23,.88,.35,.3,.12,.6,.24,.9,.37,.92,.39,1.83,.8,2.7,1.22,.08,.04,.17,.09,.25,.13,.52,.26,1.03,.52,1.53,.79,21.64,11.22,36.44,33.81,36.44,59.87,0,37.23-30.17,66.17-67.4,66.17S21.03,117.38,21.03,80.15,51.21,12.73,88.44,12.73Z"
         id="path55" />
      <path
         class="cls-1"
         d="M155.82,77.9c0-.24-.02-.48-.03-.72-.02-.51-.05-1.02-.08-1.52-.02-.27-.04-.55-.06-.82-.04-.48-.08-.96-.13-1.43-.03-.27-.05-.54-.08-.81-.06-.51-.12-1.01-.19-1.52-.03-.22-.06-.45-.09-.67-.1-.71-.22-1.42-.34-2.12-.03-.18-.07-.37-.11-.55-.1-.53-.2-1.05-.31-1.57-.06-.28-.12-.57-.19-.85-.09-.42-.19-.84-.29-1.25-.07-.3-.15-.61-.23-.91-.1-.4-.21-.79-.32-1.18-.08-.3-.17-.61-.26-.91-.12-.41-.25-.81-.37-1.21-.09-.28-.17-.56-.26-.83-.21-.63-.42-1.25-.65-1.86-.12-.33-.25-.66-.37-.98s-.25-.65-.37-.97c-.14-.35-.28-.7-.43-1.05-.12-.29-.24-.58-.37-.87-.16-.36-.32-.72-.48-1.08-.12-.26-.24-.52-.36-.77-.18-.38-.36-.75-.54-1.13-.09-.18-.18-.35-.27-.53-.47-.94-.96-1.86-1.48-2.77-.02-.04-.04-.07-.06-.11-.24-.43-.5-.85-.75-1.27-.09-.16-.19-.32-.28-.48-.25-.41-.51-.82-.77-1.23-.1-.15-.19-.3-.29-.45-.27-.42-.55-.84-.83-1.25-.06-.09-.13-.19-.2-.28-1.35-1.95-2.79-3.83-4.33-5.62-.04-.05-.09-.1-.13-.15-.37-.43-.75-.86-1.14-1.29-.04-.04-.08-.09-.12-.13-2.07-2.26-4.28-4.39-6.64-6.35-.02-.01-.03-.03-.05-.04-.47-.39-.95-.78-1.43-1.16h0c-2.82-3.18-6.45-6.02-10.72-8.38-.51-.27-1.02-.55-1.53-.81-.08-.04-.17-.09-.25-.13-.89-.44-1.79-.86-2.7-1.26-.3-.13-.6-.25-.9-.38-.29-.12-.59-.24-.88-.36-7.2-2.82-15.62-4.45-24.61-4.45-17.49,0-32.8,6.13-41.21,15.29h0c-.95,.73-1.87,1.49-2.78,2.27-.11,.09-.21,.18-.32,.28-.83,.72-1.63,1.46-2.42,2.21-.09,.08-.17,.16-.26,.25-1.28,1.24-2.51,2.54-3.69,3.88-.15,.18-.31,.35-.46,.53-.6,.7-1.19,1.4-1.76,2.13-.19,.24-.37,.47-.56,.71-.46,.6-.91,1.21-1.36,1.82-.25,.35-.51,.7-.75,1.06-.28,.41-.56,.82-.83,1.23-.28,.43-.56,.86-.83,1.29-.33,.52-.65,1.04-.96,1.57-.25,.43-.5,.86-.75,1.3-.25,.45-.5,.9-.74,1.35-.31,.58-.6,1.16-.89,1.74-.17,.34-.33,.68-.5,1.02-.34,.72-.67,1.45-.98,2.18-.13,.3-.25,.61-.38,.91-.29,.7-.56,1.4-.83,2.1-.1,.27-.2,.55-.3,.82-.27,.74-.52,1.49-.76,2.24-.08,.25-.16,.49-.24,.74-.26,.86-.51,1.72-.74,2.59-.06,.24-.12,.48-.19,.73-.23,.9-.44,1.81-.63,2.73-.03,.16-.06,.32-.09,.49-.18,.89-.34,1.78-.48,2.68-.02,.14-.05,.27-.07,.41-.15,.97-.27,1.95-.37,2.93-.02,.2-.04,.4-.06,.6-.1,.98-.17,1.96-.22,2.95,0,.17-.02,.35-.02,.52-.05,1.04-.08,2.09-.08,3.14,0,37.23,30.18,67.42,67.42,67.42s67.42-30.18,67.42-67.42c0-.75-.02-1.5-.04-2.24h-.02Z"
         id="path57" />
      <path
         class="cls-5"
         d="M40.44,43.01c0,17.43,21.53,31.56,48.09,31.56s48.09-14.13,48.09-31.56c0-9.71-6.69-18.4-17.21-24.19-.51-.27-1.02-.55-1.53-.81-.08-.04-.17-.09-.25-.13-.89-.44-1.79-.86-2.7-1.26-.3-.13-.6-.25-.9-.38-.29-.12-.59-.24-.88-.36-7.2-2.82-15.62-4.45-24.61-4.45-26.56,0-48.09,14.13-48.09,31.56v.02Z"
         id="path59" />
    </g>
  </g>
</svg>
