<?xml version="1.0" encoding="UTF-8" standalone="no"?>
<svg xmlns:xlink="http://www.w3.org/1999/xlink" height="41.05px" width="40.3px" xmlns="http://www.w3.org/2000/svg">
  <g transform="matrix(1.0, 0.0, 0.0, 1.0, 20.15, 20.85)">
    <path d="M-11.0 -14.75 Q-10.15 -16.0 -8.45 -17.05 -4.9 -19.15 0.0 -19.15 4.9 -19.15 8.45 -17.05 10.2 -15.95 11.1 -14.65 11.95 -13.3 11.95 -11.75 11.95 -8.7 8.45 -6.5 4.9 -4.35 0.0 -4.35 -4.9 -4.35 -8.45 -6.5 -11.95 -8.7 -11.95 -11.75 -11.95 -13.4 -11.0 -14.75" fill="url(#gradient0)" fill-rule="evenodd" stroke="none"/>
    <path d="M11.1 -14.65 L11.75 -14.0 11.75 -13.95 Q16.7 -9.1 16.7 -2.15 16.7 4.75 11.75 9.6 6.9 14.5 0.0 14.5 -6.95 14.5 -11.8 9.6 -16.7 4.75 -16.7 -2.15 -16.7 -9.15 -11.8 -14.0 L-11.0 -14.75 Q-11.95 -13.4 -11.95 -11.75 -11.95 -8.7 -8.45 -6.5 -4.9 -4.35 0.0 -4.35 4.9 -4.35 8.45 -6.5 11.95 -8.7 11.95 -11.75 11.95 -13.3 11.1 -14.65" fill="url(#gradient1)" fill-rule="evenodd" stroke="none"/>
    <path d="M-14.75 -13.65 L-13.2 -15.4 Q-7.75 -20.85 0.0 -20.85 7.75 -20.85 13.15 -15.4 L14.65 -13.8 Q18.7 -8.85 18.7 -2.15 18.7 5.55 13.2 11.0 L13.15 11.05 Q7.75 16.5 0.0 16.5 -7.75 16.5 -13.2 11.0 -18.7 5.55 -18.7 -2.15 -18.7 -8.75 -14.75 -13.65 M-11.0 -14.75 L-11.8 -14.0 Q-16.7 -9.15 -16.7 -2.15 -16.7 4.75 -11.8 9.6 -6.95 14.5 0.0 14.5 6.9 14.5 11.75 9.6 16.7 4.75 16.7 -2.15 16.7 -9.1 11.75 -13.95 L11.75 -14.0 11.1 -14.65 Q10.2 -15.95 8.45 -17.05 4.9 -19.15 0.0 -19.15 -4.9 -19.15 -8.45 -17.05 -10.15 -16.0 -11.0 -14.75" fill="url(#gradient2)" fill-rule="evenodd" stroke="none"/>
    <path d="M-14.75 -13.65 Q-18.7 -8.75 -18.7 -2.15 -18.7 5.55 -13.2 11.0 -7.75 16.5 0.0 16.5 7.75 16.5 13.15 11.05 L13.2 11.0 Q18.7 5.55 18.7 -2.15 18.7 -8.85 14.65 -13.8 20.15 -8.05 20.15 0.05 20.15 8.35 14.25 14.3 8.3 20.2 0.0 20.2 -8.3 20.2 -14.25 14.3 -20.15 8.35 -20.15 0.05 -20.15 -7.95 -14.75 -13.65" fill="#b60308" fill-rule="evenodd" stroke="none"/>
  </g>
  <defs>
    <linearGradient gradientTransform="matrix(0.0, 0.0108, -0.009, 0.0, -1.0, -11.65)" gradientUnits="userSpaceOnUse" id="gradient0" spreadMethod="pad" x1="-819.2" x2="819.2">
      <stop offset="0.0" stop-color="#e98b95"/>
      <stop offset="1.0" stop-color="#d32b39"/>
    </linearGradient>
    <linearGradient gradientTransform="matrix(0.0, -0.0198, 0.0216, 0.0, -0.4, -2.3)" gradientUnits="userSpaceOnUse" id="gradient1" spreadMethod="pad" x1="-819.2" x2="819.2">
      <stop offset="0.0" stop-color="#fa3c5e"/>
      <stop offset="1.0" stop-color="#b30004"/>
    </linearGradient>
    <linearGradient gradientTransform="matrix(0.0, -0.0222, 0.0222, 0.0, 0.0, -2.2)" gradientUnits="userSpaceOnUse" id="gradient2" spreadMethod="pad" x1="-819.2" x2="819.2">
      <stop offset="0.0" stop-color="#fa8da4"/>
      <stop offset="1.0" stop-color="#d51c2f"/>
    </linearGradient>
  </defs>
</svg>
