<?xml version="1.0" encoding="UTF-8" standalone="no"?>
<svg xmlns:xlink="http://www.w3.org/1999/xlink" height="41.05px" width="40.3px" xmlns="http://www.w3.org/2000/svg">
  <g transform="matrix(1.0, 0.0, 0.0, 1.0, 20.15, 20.85)">
    <path d="M14.25 -14.2 Q20.15 -8.3 20.15 0.05 20.15 8.35 14.25 14.3 8.3 20.2 0.0 20.2 -8.3 20.2 -14.25 14.3 -20.15 8.35 -20.15 0.05 -20.15 -8.3 -14.25 -14.2 -8.3 -20.1 0.0 -20.1 8.3 -20.1 14.25 -14.2" fill="#026ad2" fill-rule="evenodd" stroke="none"/>
    <path d="M17.7 -2.15 Q17.7 5.15 12.45 10.3 7.35 15.5 0.0 15.5 -7.35 15.5 -12.5 10.3 -17.7 5.15 -17.7 -2.15 -17.7 -9.55 -12.5 -14.7 -7.35 -19.85 0.0 -19.85 7.35 -19.85 12.45 -14.7 17.7 -9.55 17.7 -2.15" fill="url(#gradient0)" fill-rule="evenodd" stroke="none"/>
    <path d="M17.7 -2.15 Q17.7 5.15 12.45 10.3 7.35 15.5 0.0 15.5 -7.35 15.5 -12.5 10.3 -17.7 5.15 -17.7 -2.15 -17.7 -9.55 -12.5 -14.7 -7.35 -19.85 0.0 -19.85 7.35 -19.85 12.45 -14.7 17.7 -9.55 17.7 -2.15 Z" fill="none" stroke="url(#gradient1)" stroke-linecap="round" stroke-linejoin="round" stroke-width="2.0"/>
    <path d="M0.0 -4.35 Q-4.9 -4.35 -8.45 -6.5 -11.95 -8.7 -11.95 -11.75 -11.95 -14.9 -8.45 -17.05 -4.9 -19.15 0.0 -19.15 4.9 -19.15 8.45 -17.05 11.95 -14.9 11.95 -11.75 11.95 -8.7 8.45 -6.5 4.9 -4.35 0.0 -4.35" fill="url(#gradient2)" fill-rule="evenodd" stroke="none"/>
  </g>
  <defs>
    <linearGradient gradientTransform="matrix(0.0, -0.0198, 0.0216, 0.0, -0.4, -2.3)" gradientUnits="userSpaceOnUse" id="gradient0" spreadMethod="pad" x1="-819.2" x2="819.2">
      <stop offset="0.0" stop-color="#3dacff"/>
      <stop offset="1.0" stop-color="#0074c9"/>
    </linearGradient>
    <linearGradient gradientTransform="matrix(0.0, -0.0222, 0.0222, 0.0, 0.0, -2.2)" gradientUnits="userSpaceOnUse" id="gradient1" spreadMethod="pad" x1="-819.2" x2="819.2">
      <stop offset="0.0" stop-color="#87ccff"/>
      <stop offset="1.0" stop-color="#1486d7"/>
    </linearGradient>
    <linearGradient gradientTransform="matrix(0.0, 0.0108, -0.009, 0.0, -1.0, -11.65)" gradientUnits="userSpaceOnUse" id="gradient2" spreadMethod="pad" x1="-819.2" x2="819.2">
      <stop offset="0.0" stop-color="#ffffff" stop-opacity="0.7019608"/>
      <stop offset="1.0" stop-color="#ffffff" stop-opacity="0.0"/>
    </linearGradient>
  </defs>
</svg>
