<?xml version="1.0" encoding="UTF-8" ?>
<!DOCTYPE svg PUBLIC "-//W3C//DTD SVG 1.1//EN" "http://www.w3.org/Graphics/SVG/1.1/DTD/svg11.dtd">
<svg width="500pt" height="500pt" viewBox="0 0 500 500" version="1.1" xmlns="http://www.w3.org/2000/svg">
<g id="#000000ff">
</g>
<g id="#51120dff">
<path fill="#51120d" opacity="1.00" d=" M 95.34 37.49 C 111.02 33.29 127.80 32.28 143.61 36.42 C 157.78 38.90 171.13 45.57 181.67 55.34 C 186.83 60.90 192.78 65.64 198.13 70.99 C 200.29 73.08 203.01 71.42 204.51 69.47 C 210.27 62.96 217.35 57.44 225.67 54.63 C 242.65 48.54 261.10 44.38 279.12 47.81 C 285.54 49.03 290.49 54.20 292.75 60.16 C 297.59 73.03 298.70 86.84 300.51 100.37 C 301.21 105.32 300.96 110.38 301.80 115.32 C 302.66 116.16 303.92 116.36 305.03 116.75 C 316.12 119.58 327.29 122.43 337.72 127.26 C 343.42 129.55 348.35 133.29 353.79 136.10 C 362.62 140.44 369.95 147.26 376.48 154.52 C 380.58 159.69 385.52 164.13 389.58 169.34 C 404.05 186.59 413.64 207.45 419.57 229.05 C 421.36 236.20 421.60 243.61 422.63 250.88 C 424.27 263.21 424.57 275.76 422.69 288.08 C 421.49 310.72 415.50 333.24 403.80 352.77 C 398.69 361.41 393.56 370.22 386.29 377.27 C 380.25 382.93 374.59 389.08 367.65 393.68 C 346.80 408.36 322.85 418.18 298.13 424.14 C 279.50 429.08 260.11 429.30 240.98 429.90 C 225.21 429.58 209.32 428.10 194.06 423.91 C 186.99 421.53 179.52 420.36 172.69 417.26 C 151.83 408.71 131.64 396.23 118.50 377.49 C 110.83 368.79 104.84 358.79 99.13 348.73 C 92.95 338.11 89.11 326.38 85.30 314.76 C 82.65 306.69 81.85 298.20 81.14 289.78 C 80.13 281.93 81.64 274.08 82.33 266.27 C 85.95 240.33 92.86 214.72 103.96 190.96 C 105.46 187.39 106.74 183.73 108.10 180.10 C 103.77 172.51 99.93 164.66 96.23 156.75 C 89.63 143.08 83.53 129.01 80.71 114.01 C 77.67 97.21 76.06 80.06 77.14 62.99 C 77.50 56.32 78.86 49.36 82.86 43.86 C 86.17 40.43 90.86 38.80 95.34 37.49 M 98.31 56.50 C 95.00 78.44 95.81 101.09 101.60 122.56 C 103.47 129.43 104.67 136.57 107.91 142.99 C 113.69 154.91 121.15 166.11 130.49 175.54 C 133.92 178.85 130.28 183.33 128.72 186.65 C 119.27 201.47 111.85 217.54 106.37 234.24 C 100.74 254.17 97.09 275.23 100.64 295.87 C 104.74 323.37 117.29 349.41 135.89 370.03 C 140.32 374.26 144.40 378.86 149.03 382.87 C 163.69 393.05 179.76 401.11 196.48 407.32 C 209.52 411.56 223.31 412.50 236.86 413.96 C 239.21 414.27 241.60 414.48 243.97 414.29 C 253.38 413.20 262.88 413.01 272.29 411.92 C 287.96 409.60 303.74 406.68 318.33 400.28 C 332.79 394.07 346.68 386.46 359.56 377.39 C 364.31 373.22 369.54 369.51 373.25 364.29 C 388.34 348.19 395.77 326.82 401.54 305.94 C 403.90 298.20 404.23 290.06 404.62 282.03 C 406.14 259.48 402.03 236.79 394.25 215.66 C 391.10 209.46 388.09 203.18 385.04 196.94 C 378.62 187.17 372.41 177.16 364.55 168.46 C 359.84 164.10 356.61 158.31 351.23 154.65 C 335.92 141.54 316.32 135.05 296.96 130.70 C 292.49 129.86 288.13 128.28 284.41 125.62 C 283.55 124.89 282.34 124.20 282.46 122.90 C 282.20 113.26 281.54 103.65 281.37 94.01 C 280.13 84.70 278.09 75.46 275.20 66.52 C 262.31 63.90 248.76 66.18 236.99 71.88 C 225.53 77.39 214.88 85.03 206.86 94.97 C 205.00 97.13 201.92 98.57 199.07 97.83 C 195.44 96.51 192.10 93.93 190.84 90.16 C 187.19 81.68 179.82 75.84 173.46 69.47 C 166.73 63.49 158.62 58.99 149.97 56.47 C 133.04 52.83 115.11 51.34 98.31 56.50 Z" />
</g>
<g id="#ffa98dff">
<path fill="#ffa98d" opacity="1.00" d=" M 98.31 56.50 C 115.11 51.34 133.04 52.83 149.97 56.47 C 158.62 58.99 166.73 63.49 173.46 69.47 C 179.82 75.84 187.19 81.68 190.84 90.16 C 192.10 93.93 195.44 96.51 199.07 97.83 C 201.92 98.57 205.00 97.13 206.86 94.97 C 214.88 85.03 225.53 77.39 236.99 71.88 C 248.76 66.18 262.31 63.90 275.20 66.52 C 278.09 75.46 280.13 84.70 281.37 94.01 C 281.54 103.65 282.20 113.26 282.46 122.90 C 282.34 124.20 283.55 124.89 284.41 125.62 C 288.13 128.28 292.49 129.86 296.96 130.70 C 316.32 135.05 335.92 141.54 351.23 154.65 C 356.61 158.31 359.84 164.10 364.55 168.46 C 372.41 177.16 378.62 187.17 385.04 196.94 C 388.09 203.18 391.10 209.46 394.25 215.66 C 402.03 236.79 406.14 259.48 404.62 282.03 C 404.23 290.06 403.90 298.20 401.54 305.94 C 395.77 326.82 388.34 348.19 373.25 364.29 C 369.54 369.51 364.31 373.22 359.56 377.39 C 346.68 386.46 332.79 394.07 318.33 400.28 C 303.74 406.68 287.96 409.60 272.29 411.92 C 262.88 413.01 253.38 413.20 243.97 414.29 C 241.60 414.48 239.21 414.27 236.86 413.96 C 223.31 412.50 209.52 411.56 196.48 407.32 C 179.76 401.11 163.69 393.05 149.03 382.87 C 144.40 378.86 140.32 374.26 135.89 370.03 C 117.29 349.41 104.74 323.37 100.64 295.87 C 97.09 275.23 100.74 254.17 106.37 234.24 C 111.85 217.54 119.27 201.47 128.72 186.65 C 130.28 183.33 133.92 178.85 130.49 175.54 C 121.15 166.11 113.69 154.91 107.91 142.99 C 104.67 136.57 103.47 129.43 101.60 122.56 C 95.81 101.09 95.00 78.44 98.31 56.50 M 108.02 73.07 C 106.13 74.90 107.07 77.56 107.45 79.79 C 112.64 101.52 118.04 123.28 126.10 144.15 C 128.80 150.70 134.92 155.59 141.83 157.05 C 155.46 160.19 169.39 161.95 183.36 162.62 C 168.42 170.01 155.49 181.07 144.42 193.44 C 127.72 212.60 116.60 236.87 114.29 262.27 C 111.82 289.38 118.91 317.29 134.33 339.75 C 151.13 364.45 177.19 382.76 206.25 389.81 C 210.39 390.74 214.56 391.85 218.83 391.88 C 233.71 394.36 248.90 395.41 263.95 394.15 C 277.58 393.92 291.19 391.32 303.69 385.80 C 321.39 378.54 337.66 367.69 350.98 353.95 C 369.95 334.52 382.60 308.97 386.03 282.00 C 387.49 266.14 386.56 249.92 381.70 234.68 C 372.36 203.40 349.44 176.89 320.76 161.63 L 320.68 161.37 C 292.48 146.57 259.42 141.38 228.05 146.97 C 227.84 137.32 231.26 127.07 238.69 120.62 C 242.88 116.65 247.66 113.34 252.67 110.50 C 256.15 108.57 260.19 107.84 263.59 105.76 C 267.60 102.81 270.10 97.05 267.77 92.32 C 265.63 85.40 258.90 81.02 252.03 79.89 C 246.44 79.85 241.25 82.53 236.82 85.73 C 228.46 91.33 221.87 99.36 217.35 108.29 C 212.10 119.97 216.41 132.79 216.95 144.91 C 212.45 138.16 207.30 131.88 202.74 125.18 C 195.15 116.14 187.70 106.97 179.81 98.19 C 176.21 94.12 171.65 91.10 167.85 87.24 C 165.11 84.49 161.79 82.45 158.54 80.37 C 147.52 72.28 133.49 68.92 119.95 69.38 C 115.85 69.71 111.05 69.90 108.02 73.07 Z" />
</g>
<g id="#567226ff">
<path fill="#567226" opacity="1.00" d=" M 108.02 73.07 C 111.05 69.90 115.85 69.71 119.95 69.38 C 133.49 68.92 147.52 72.28 158.54 80.37 C 161.79 82.45 165.11 84.49 167.85 87.24 C 171.65 91.10 176.21 94.12 179.81 98.19 C 187.70 106.97 195.15 116.14 202.74 125.18 C 207.30 131.88 212.45 138.16 216.95 144.91 C 219.77 149.03 222.24 153.37 224.50 157.81 C 222.74 159.40 220.72 160.84 218.35 161.30 C 206.78 163.18 195.03 162.94 183.36 162.62 C 169.39 161.95 155.46 160.19 141.83 157.05 C 134.92 155.59 128.80 150.70 126.10 144.15 C 118.04 123.28 112.64 101.52 107.45 79.79 C 107.07 77.56 106.13 74.90 108.02 73.07 Z" />
</g>
<g id="#793a16ff">
<path fill="#793a16" opacity="1.00" d=" M 236.82 85.73 C 241.25 82.53 246.44 79.85 252.03 79.89 C 258.90 81.02 265.63 85.40 267.77 92.32 C 270.10 97.05 267.60 102.81 263.59 105.76 C 260.19 107.84 256.15 108.57 252.67 110.50 C 247.66 113.34 242.88 116.65 238.69 120.62 C 231.26 127.07 227.84 137.32 228.05 146.97 C 228.22 150.90 227.17 154.84 224.50 157.81 C 222.24 153.37 219.77 149.03 216.95 144.91 C 216.41 132.79 212.10 119.97 217.35 108.29 C 221.87 99.36 228.46 91.33 236.82 85.73 Z" />
</g>
<g id="#ff2513ff">
<path fill="#ff2513" opacity="1.00" d=" M 228.05 146.97 C 259.42 141.38 292.48 146.57 320.68 161.37 L 320.76 161.63 C 326.04 180.13 331.68 198.70 333.11 218.00 C 334.72 241.46 332.12 265.27 324.79 287.65 C 319.87 302.51 313.55 316.96 305.35 330.31 C 301.74 336.19 296.92 341.18 292.65 346.57 C 284.96 356.20 275.62 364.32 265.98 371.93 C 258.80 377.31 251.49 382.77 243.07 386.06 C 235.37 389.34 227.01 390.44 218.83 391.88 C 214.56 391.85 210.39 390.74 206.25 389.81 C 177.19 382.76 151.13 364.45 134.33 339.75 C 118.91 317.29 111.82 289.38 114.29 262.27 C 116.60 236.87 127.72 212.60 144.42 193.44 C 155.49 181.07 168.42 170.01 183.36 162.62 C 195.03 162.94 206.78 163.18 218.35 161.30 C 220.72 160.84 222.74 159.40 224.50 157.81 C 227.17 154.84 228.22 150.90 228.05 146.97 M 157.54 226.88 C 152.67 228.29 147.82 230.51 144.55 234.53 C 137.44 242.74 133.70 253.39 132.11 264.00 C 130.78 274.14 132.61 285.52 139.94 293.12 C 148.93 302.38 166.46 301.70 173.82 290.76 C 176.37 287.49 179.13 284.18 180.17 280.06 C 182.76 271.00 183.54 261.38 182.07 252.05 C 181.05 244.60 179.34 236.62 173.60 231.28 C 169.65 226.84 163.22 224.89 157.54 226.88 Z" />
</g>
<g id="#92130aff">
<path fill="#92130a" opacity="1.00" d=" M 320.76 161.63 C 349.44 176.89 372.36 203.40 381.70 234.68 C 386.56 249.92 387.49 266.14 386.03 282.00 C 382.60 308.97 369.95 334.52 350.98 353.95 C 337.66 367.69 321.39 378.54 303.69 385.80 C 291.19 391.32 277.58 393.92 263.95 394.15 C 248.90 395.41 233.71 394.36 218.83 391.88 C 227.01 390.44 235.37 389.34 243.07 386.06 C 251.49 382.77 258.80 377.31 265.98 371.93 C 275.62 364.32 284.96 356.20 292.65 346.57 C 296.92 341.18 301.74 336.19 305.35 330.31 C 313.55 316.96 319.87 302.51 324.79 287.65 C 332.12 265.27 334.72 241.46 333.11 218.00 C 331.68 198.70 326.04 180.13 320.76 161.63 Z" />
</g>
<g id="#ff7e60ff">
<path fill="#ff7e60" opacity="1.00" d=" M 157.54 226.88 C 163.22 224.89 169.65 226.84 173.60 231.28 C 179.34 236.62 181.05 244.60 182.07 252.05 C 183.54 261.38 182.76 271.00 180.17 280.06 C 179.13 284.18 176.37 287.49 173.82 290.76 C 166.46 301.70 148.93 302.38 139.94 293.12 C 132.61 285.52 130.78 274.14 132.11 264.00 C 133.70 253.39 137.44 242.74 144.55 234.53 C 147.82 230.51 152.67 228.29 157.54 226.88 Z" />
</g>
</svg>
