<?xml version="1.0" encoding="utf-8"?>
<!-- Generator: Adobe Illustrator 26.5.0, SVG Export Plug-In . SVG Version: 6.00 Build 0)  -->
<svg version="1.1" id="Layer_1" xmlns="http://www.w3.org/2000/svg" xmlns:xlink="http://www.w3.org/1999/xlink" x="0px" y="0px"
	 viewBox="0 0 61 45.2" style="enable-background:new 0 0 61 45.2;" xml:space="preserve">
<style type="text/css">
	.st0{fill-rule:evenodd;clip-rule:evenodd;fill:#FFFFFF;}
	.st1{fill-rule:evenodd;clip-rule:evenodd;fill:#FFB0D2;}
	.st2{fill-rule:evenodd;clip-rule:evenodd;fill-opacity:0.302;}
	.st3{fill-rule:evenodd;clip-rule:evenodd;fill:url(#SVGID_1_);}
	.st4{fill:none;stroke:#9DD4E8;stroke-width:2;stroke-linecap:round;stroke-linejoin:round;}
	.st5{fill:none;stroke:#FA75B2;stroke-linecap:round;stroke-linejoin:round;}
</style>
<path class="st0" d="M4.6,30.3V13.9c0-3.1,0.9-5.4,2.7-7c1.5-1.4,3.5-2.1,5.9-2.1h34.6c2.3,0,4.2,0.9,5.9,2.6
	c1.7,1.7,2.6,3.9,2.7,6.5v16.4H4.6"/>
<path class="st1" d="M56.4,28.9V13.4c-0.1-2.5-1-4.5-2.7-6.1c-1.7-1.6-3.6-2.4-5.9-2.4H13.2c-2.4,0-4.4,0.7-5.9,2
	c-1.8,1.5-2.7,3.7-2.7,6.6v15.4V32c0,2.3,0.8,4.2,2.2,5.9c1.6,1.8,3.8,2.7,6.4,2.7h34.6c2.5,0,4.6-0.9,6.2-2.7
	c1.5-1.7,2.3-3.6,2.4-5.9V28.9 M48,2.2c2.9,0,5.4,1.1,7.7,3.2c2.3,2.2,3.4,4.8,3.3,7.8v19c0,2.9-1.1,5.4-3.1,7.5
	c-2.1,2.3-4.8,3.5-7.9,3.5H13c-2.5,0-4.9-0.9-7-2.5c-2.6-2.1-4-4.9-4-8.5v-19c0-3.4,1.1-6.1,3.2-8.1c2-1.9,4.6-2.9,7.8-2.9H48"/>
<path class="st2" d="M48,2.2H13c-3.2,0-5.8,1-7.8,2.9C3.1,7.1,2,9.8,2,13.2v19c0,3.5,1.3,6.4,4,8.5c2.2,1.7,4.5,2.5,7,2.5h35
	c3.1,0,5.8-1.1,7.9-3.5c2-2.2,3.1-4.7,3.1-7.5v-19c0-3-1.1-5.6-3.3-7.8C53.4,3.3,50.9,2.2,48,2.2 M56.6,3.6C59.5,6.1,61,9.3,61,13
	v19.2c0,3.1-1.1,6-3.3,8.6c-2.5,2.9-5.8,4.4-9.7,4.4H13c-3,0-5.8-1-8.3-3C1.6,39.7,0,36.4,0,32.2V13c0-4.1,1.5-7.4,4.5-9.8
	C7,1.1,9.8,0,13,0h35C51.1,0,53.9,1.1,56.6,3.6"/>
<linearGradient id="SVGID_1_" gradientUnits="userSpaceOnUse" x1="-819.2" y1="34.725" x2="819.2" y2="34.725" gradientTransform="matrix(0 6.300000e-03 7.200000e-03 0 -247.474 -335.5175)">
	<stop  offset="0" style="stop-color:#FFFFFF"/>
	<stop  offset="1" style="stop-color:#B2DEED"/>
</linearGradient>
<path class="st3" d="M4.6,28.9h51.8V32c-0.1,2.3-0.9,4.2-2.4,5.9c-1.7,1.8-3.8,2.7-6.2,2.7H13.2c-2.6,0-4.7-0.9-6.4-2.7
	c-1.5-1.7-2.2-3.6-2.2-5.9V28.9"/>
<path class="st4" d="M56.4,28.9V13.4c-0.1-2.5-1-4.5-2.7-6.1c-1.7-1.6-3.6-2.4-5.9-2.4H13.2c-2.4,0-4.4,0.7-5.9,2
	c-1.8,1.5-2.7,3.7-2.7,6.6v15.4V32c0,2.3,0.8,4.2,2.2,5.9c1.6,1.8,3.8,2.7,6.4,2.7h34.6c2.5,0,4.6-0.9,6.2-2.7
	c1.5-1.7,2.3-3.6,2.4-5.9V28.9"/>
<path class="st5" d="M48,2.2H13c-3.2,0-5.8,1-7.8,2.9C3.1,7.1,2,9.8,2,13.2v19c0,3.5,1.3,6.4,4,8.5c2.2,1.7,4.5,2.5,7,2.5h35
	c3.1,0,5.8-1.1,7.9-3.5c2-2.2,3.1-4.7,3.1-7.5v-19c0-3-1.1-5.6-3.3-7.8C53.4,3.3,50.9,2.2,48,2.2z"/>
</svg>
