<?xml version="1.0" encoding="UTF-8" standalone="no"?>
<svg xmlns:xlink="http://www.w3.org/1999/xlink" height="25.5px" width="31.1px" xmlns="http://www.w3.org/2000/svg">
  <g transform="matrix(1.0, 0.0, 0.0, 1.0, 13.95, 13.05)">
    <path d="M16.25 -7.95 L17.05 -6.85 Q17.3 -6.1 17.05 -5.4 L14.7 1.5 Q14.15 2.9 12.9 3.1 11.75 3.35 10.8 2.55 7.8 0.1 5.3 -0.3 L3.15 6.0 Q2.8 9.0 0.0 11.0 -3.25 13.25 -7.65 12.0 -12.25 10.65 -13.5 7.0 -14.6 3.9 -13.05 1.25 -11.15 -2.0 -7.6 -2.45 -5.3 -2.75 -2.7 -1.85 L-2.65 -1.8 -0.8 -11.1 Q-0.4 -12.8 1.35 -13.0 8.1 -13.5 16.25 -7.95" fill="#0a0033" fill-rule="evenodd" stroke="none"/>
    <path d="M-1.15 1.15 L1.5 -11.15 1.55 -11.1 2.8 -8.8 0.1 2.85 -1.15 1.15" fill="url(#gradient0)" fill-rule="evenodd" stroke="none"/>
    <path d="M1.55 -11.1 Q8.95 -11.7 15.35 -6.45 8.6 -8.95 2.8 -8.8 L1.55 -11.1" fill="url(#gradient1)" fill-rule="evenodd" stroke="none"/>
    <path d="M15.35 -6.45 L15.45 -6.4 12.95 0.9 Q8.7 -2.95 3.65 -2.9 L1.05 5.25 Q0.55 9.55 -2.6 10.35 -5.85 11.2 -8.45 9.9 -10.3 8.95 -11.2 7.4 -12.0 6.05 -11.95 4.55 -10.6 7.4 -7.9 8.45 -5.9 9.25 -4.05 8.85 0.05 8.0 0.1 2.85 L2.8 -8.8 Q8.6 -8.95 15.35 -6.45" fill="#0e0f64" fill-rule="evenodd" stroke="none"/>
    <path d="M-11.95 4.55 Q-11.95 2.85 -10.85 1.4 -9.95 0.15 -8.7 -0.45 L-5.15 -0.75 Q-2.65 -0.45 -1.15 1.15 L0.1 2.85 Q0.05 8.0 -4.05 8.85 -5.9 9.25 -7.9 8.45 -10.6 7.4 -11.95 4.55" fill="url(#gradient2)" fill-rule="evenodd" stroke="none"/>
    <path d="M15.35 -6.45 L15.45 -6.4 12.95 0.9 Q8.7 -2.95 3.65 -2.9 L1.05 5.25 Q0.55 9.55 -2.6 10.35 -5.85 11.2 -8.45 9.9 -10.3 8.95 -11.2 7.4 -12.0 6.05 -11.95 4.55" fill="none" stroke="url(#gradient3)" stroke-linecap="round" stroke-linejoin="round" stroke-width="0.05"/>
    <path d="M-4.3 4.1 Q-5.4 4.8 -6.85 4.8 -8.35 4.7 -9.3 3.95 -10.2 3.1 -9.95 1.95 -9.8 0.9 -8.55 0.1 -7.4 -0.7 -5.9 -0.55 -4.45 -0.6 -3.5 0.3 -2.6 1.05 -2.8 2.2 -3.05 3.3 -4.3 4.1" fill="url(#gradient4)" fill-rule="evenodd" stroke="none"/>
  </g>
  <defs>
    <linearGradient gradientTransform="matrix(-0.0035, 0.0101, -0.0079, -0.0027, 1.3, -6.5)" gradientUnits="userSpaceOnUse" id="gradient0" spreadMethod="pad" x1="-819.2" x2="819.2">
      <stop offset="0.0" stop-color="#00a4ff"/>
      <stop offset="0.9019607843137255" stop-color="#002c73"/>
      <stop offset="1.0" stop-color="#18005c"/>
    </linearGradient>
    <linearGradient gradientTransform="matrix(0.0084, 0.0029, -6.0E-4, 0.0018, 8.5, -8.75)" gradientUnits="userSpaceOnUse" id="gradient1" spreadMethod="pad" x1="-819.2" x2="819.2">
      <stop offset="0.0" stop-color="#00a4ff"/>
      <stop offset="0.9019607843137255" stop-color="#002c73"/>
      <stop offset="1.0" stop-color="#18005c"/>
    </linearGradient>
    <radialGradient cx="0" cy="0" gradientTransform="matrix(0.0077, 0.0026, -0.0021, 0.0061, -5.95, 3.25)" gradientUnits="userSpaceOnUse" id="gradient2" r="819.2" spreadMethod="pad">
      <stop offset="0.0" stop-color="#00a4ff"/>
      <stop offset="0.9019607843137255" stop-color="#002c73"/>
    </radialGradient>
    <linearGradient gradientTransform="matrix(0.0039, 0.0089, -0.0123, 0.0054, 3.95, 1.2)" gradientUnits="userSpaceOnUse" id="gradient3" spreadMethod="pad" x1="-819.2" x2="819.2">
      <stop offset="0.0" stop-color="#16005c"/>
      <stop offset="1.0" stop-color="#006ec9"/>
    </linearGradient>
    <linearGradient gradientTransform="matrix(7.0E-4, -0.004, 0.0025, 1.0E-4, -6.4, 2.4)" gradientUnits="userSpaceOnUse" id="gradient4" spreadMethod="pad" x1="-819.2" x2="819.2">
      <stop offset="0.0" stop-color="#1c88d9"/>
      <stop offset="1.0" stop-color="#a3bfdc" stop-opacity="0.7019608"/>
    </linearGradient>
  </defs>
</svg>
