<?xml version="1.0" encoding="UTF-8" standalone="no"?>
<svg xmlns:xlink="http://www.w3.org/1999/xlink" height="22.35px" width="22.4px" xmlns="http://www.w3.org/2000/svg">
  <g transform="matrix(1.0, 0.0, 0.0, 1.0, 11.45, 10.75)">
    <path d="M3.55 -9.95 Q5.75 -9.2 7.6 -7.35 11.0 -3.95 10.95 0.55 10.9 4.95 7.95 8.15 4.7 11.65 -0.25 11.6 -5.1 11.55 -8.3 8.2 -11.3 5.0 -11.45 0.55 -11.6 -3.6 -8.75 -6.8 -6.55 -9.2 -4.1 -9.95 -6.3 -9.1 -8.05 -7.15 -10.65 -4.3 -10.7 -0.3 -10.75 4.1 -8.15 7.0 -5.3 10.15 -0.25 10.15 4.3 10.15 7.15 7.4 10.15 4.55 10.2 -0.3 10.25 -4.2 7.35 -7.2 5.5 -9.15 3.55 -9.95" fill="#000000" fill-opacity="0.3019608" fill-rule="evenodd" stroke="none"/>
    <path d="M0.5 5.75 L-2.5 5.4 -2.85 5.05 -2.7 4.55 4.55 -2.7 5.05 -2.85 5.45 -2.55 Q5.75 -1.6 5.65 -0.05 5.55 1.75 4.95 3.0 3.3 5.3 0.5 5.75 M8.95 -0.4 Q8.85 -4.15 6.25 -6.8 3.55 -9.45 -0.25 -9.45 -4.25 -9.45 -6.75 -6.8 -10.65 -2.7 -9.0 2.4 -7.6 6.95 -4.05 8.05 -1.3 8.95 0.9 8.7 3.7 8.4 6.25 6.25 8.95 3.95 8.95 -0.4 M3.55 -9.95 Q5.5 -9.15 7.35 -7.2 10.25 -4.2 10.2 -0.3 10.15 4.55 7.15 7.4 4.3 10.15 -0.25 10.15 -5.3 10.15 -8.15 7.0 -10.75 4.1 -10.7 -0.3 -10.65 -4.3 -8.05 -7.15 -6.3 -9.1 -4.1 -9.95 -0.45 -11.55 3.55 -9.95 M2.1 -5.85 Q2.55 -5.6 2.3 -5.1 L-5.1 2.3 Q-5.45 2.65 -5.85 2.1 -6.3 1.3 -6.15 -0.75 -5.95 -3.25 -4.5 -4.55 -2.65 -6.2 -0.4 -6.3 L2.1 -5.85 M-3.85 -3.85 Q-4.95 -2.65 -5.2 -0.85 -5.4 0.45 -5.2 1.1 L1.1 -5.2 -0.85 -5.35 Q-2.7 -5.15 -3.85 -3.85 M3.45 3.4 Q4.25 2.75 4.6 0.95 4.95 -0.7 4.7 -1.55 L-1.5 4.65 Q1.4 5.1 3.45 3.4" fill="#750202" fill-rule="evenodd" stroke="none"/>
    <path d="M-3.85 -3.85 Q-2.7 -5.15 -0.85 -5.35 L1.1 -5.2 -5.2 1.1 Q-5.4 0.45 -5.2 -0.85 -4.95 -2.65 -3.85 -3.85 M3.45 3.4 Q1.4 5.1 -1.5 4.65 L4.7 -1.55 Q4.95 -0.7 4.6 0.95 4.25 2.75 3.45 3.4" fill="#320101" fill-rule="evenodd" stroke="none"/>
    <path d="M4.95 3.0 Q5.55 1.75 5.65 -0.05 5.75 -1.6 5.45 -2.55 L5.05 -2.85 4.55 -2.7 -2.7 4.55 -2.85 5.05 -2.5 5.4 0.5 5.75 -4.05 8.05 Q-7.6 6.95 -9.0 2.4 -10.65 -2.7 -6.75 -6.8 -4.25 -9.45 -0.25 -9.45 3.55 -9.45 6.25 -6.8 8.85 -4.15 8.95 -0.4 L4.95 3.0 M2.1 -5.85 L-0.4 -6.3 Q-2.65 -6.2 -4.5 -4.55 -5.95 -3.25 -6.15 -0.75 -6.3 1.3 -5.85 2.1 -5.45 2.65 -5.1 2.3 L2.3 -5.1 Q2.55 -5.6 2.1 -5.85" fill="url(#gradient0)" fill-rule="evenodd" stroke="none"/>
    <path d="M4.95 3.0 L8.95 -0.4 Q8.95 3.95 6.25 6.25 3.7 8.4 0.9 8.7 -1.3 8.95 -4.05 8.05 L0.5 5.75 Q3.3 5.3 4.95 3.0" fill="#950404" fill-rule="evenodd" stroke="none"/>
  </g>
  <defs>
    <linearGradient gradientTransform="matrix(0.0, 0.0075, -0.0253, 0.0, -7.25, -0.4)" gradientUnits="userSpaceOnUse" id="gradient0" spreadMethod="pad" x1="-819.2" x2="819.2">
      <stop offset="0.0" stop-color="#fa3c5e"/>
      <stop offset="1.0" stop-color="#b30004"/>
    </linearGradient>
  </defs>
</svg>
