<?xml version="1.0" encoding="UTF-8" standalone="no"?>
<svg xmlns:xlink="http://www.w3.org/1999/xlink" height="16.05px" width="16.05px" xmlns="http://www.w3.org/2000/svg">
  <g transform="matrix(1.0, 0.0, 0.0, 1.0, 8.05, 8.0)">
    <path d="M-6.15 -4.2 L-3.75 -6.6 -0.1 -2.9 3.75 -6.75 6.05 -4.4 1.7 -0.05 1.55 0.1 2.95 0.1 6.6 3.75 4.3 6.05 0.15 1.9 -0.15 1.6 -0.45 1.9 -4.55 6.05 -6.8 3.8 -3.1 0.1 -1.85 0.1 -1.9 0.05 -6.15 -4.2" fill="url(#gradient0)" fill-rule="evenodd" stroke="none"/>
    <path d="M8.0 -3.75 Q8.0 -3.25 7.65 -2.85 L4.7 0.1 7.5 2.9 Q7.85 3.25 7.85 3.75 L7.5 4.65 4.55 7.7 Q4.15 8.05 3.65 8.05 3.15 8.05 2.8 7.7 L-0.1 4.9 -2.85 7.7 Q-3.25 8.05 -3.75 8.05 -4.25 8.05 -4.6 7.7 L-7.65 4.7 Q-8.05 4.35 -8.05 3.85 -8.05 3.3 -7.7 2.95 L-4.9 0.1 -7.65 -2.65 Q-8.05 -3.0 -8.05 -3.5 -8.05 -4.05 -7.7 -4.4 L-4.65 -7.45 -4.05 -7.8 -3.4 -7.8 -2.85 -7.45 -0.1 -4.65 2.85 -7.6 Q3.2 -8.0 3.75 -8.0 4.25 -8.0 4.65 -7.6 L7.65 -4.6 8.0 -3.75 M6.05 -4.4 L3.75 -6.75 -0.1 -2.9 -3.75 -6.6 -6.15 -4.2 -6.8 -3.55 -3.1 0.1 -6.8 3.8 -4.55 6.05 -3.75 6.8 -0.1 3.1 3.65 6.8 4.3 6.05 6.6 3.75 2.95 0.1 6.75 -3.75 6.05 -4.4" fill="#000000" fill-opacity="0.6" fill-rule="evenodd" stroke="none"/>
    <path d="M-6.15 -4.2 L-1.9 0.05 -1.85 0.1 -3.1 0.1 -6.8 -3.55 -6.15 -4.2 M-4.55 6.05 L-0.45 1.9 -0.15 1.6 0.15 1.9 4.3 6.05 3.65 6.8 -0.1 3.1 -3.75 6.8 -4.55 6.05 M2.95 0.1 L1.55 0.1 1.7 -0.05 6.05 -4.4 6.75 -3.75 2.95 0.1" fill="#ffffff" fill-opacity="0.6" fill-rule="evenodd" stroke="none"/>
  </g>
  <defs>
    <linearGradient gradientTransform="matrix(0.0052, 0.0052, 0.0047, -0.0047, -0.5, -0.35)" gradientUnits="userSpaceOnUse" id="gradient0" spreadMethod="pad" x1="-819.2" x2="819.2">
      <stop offset="0.0" stop-color="#f2f7fa"/>
      <stop offset="1.0" stop-color="#d0e8f4"/>
    </linearGradient>
  </defs>
</svg>
