<?xml version="1.0" encoding="UTF-8" standalone="no"?>
<svg
   xmlns:dc="http://purl.org/dc/elements/1.1/"
   xmlns:cc="http://creativecommons.org/ns#"
   xmlns:rdf="http://www.w3.org/1999/02/22-rdf-syntax-ns#"
   xmlns:svg="http://www.w3.org/2000/svg"
   xmlns="http://www.w3.org/2000/svg"
   xmlns:xlink="http://www.w3.org/1999/xlink"
   xmlns:sodipodi="http://sodipodi.sourceforge.net/DTD/sodipodi-0.dtd"
   xmlns:inkscape="http://www.inkscape.org/namespaces/inkscape"
   width="50.864849mm"
   height="50.398071mm"
   viewBox="0 0 50.864848 50.398071"
   version="1.1"
   id="svg2034"
   inkscape:version="1.0.1 (3bc2e813f5, 2020-09-07)"
   sodipodi:docname="hourglass.svg"
   inkscape:export-filename="C:\Users\Carolina\Desktop\LPSOR stuff\objects not done\Welcome Waggin'\chest2.png"
   inkscape:export-xdpi="96"
   inkscape:export-ydpi="96">
  <defs
     id="defs2028">
    <linearGradient
       id="linearGradient21930-1-7-2"
       inkscape:collect="always">
      <stop
         id="stop21918"
         offset="0"
         style="stop-color:#cd5f8f;stop-opacity:1" />
      <stop
         style="stop-color:#dd5c89;stop-opacity:1"
         offset="0.13955002"
         id="stop21920" />
      <stop
         id="stop21922"
         offset="0.18133721"
         style="stop-color:#f46994;stop-opacity:1" />
      <stop
         style="stop-color:#f56792;stop-opacity:1"
         offset="0.85261285"
         id="stop21924" />
      <stop
         id="stop21926"
         offset="0.87426251"
         style="stop-color:#f78aab;stop-opacity:1" />
      <stop
         id="stop21928"
         offset="1"
         style="stop-color:#f986c3;stop-opacity:1" />
    </linearGradient>
    <linearGradient
       inkscape:collect="always"
       xlink:href="#linearGradient21930-1-7-2"
       id="linearGradient115"
       gradientUnits="userSpaceOnUse"
       gradientTransform="matrix(1.0403241,0,0,1.1182121,-40.517365,-170.83331)"
       x1="133.47797"
       y1="177.98302"
       x2="69.599968"
       y2="177.98302" />
  </defs>
  <sodipodi:namedview
     id="base"
     pagecolor="#3d3d3d"
     bordercolor="#666666"
     borderopacity="1.0"
     inkscape:pageopacity="0"
     inkscape:pageshadow="2"
     inkscape:zoom="2.0000001"
     inkscape:cx="88.46242"
     inkscape:cy="57.470875"
     inkscape:document-units="mm"
     inkscape:current-layer="layer4"
     showgrid="false"
     inkscape:window-width="1920"
     inkscape:window-height="1017"
     inkscape:window-x="-8"
     inkscape:window-y="-8"
     inkscape:window-maximized="1"
     inkscape:document-rotation="0"
     inkscape:snap-global="false"
     showguides="false" />
  <metadata
     id="metadata2031">
    <rdf:RDF>
      <cc:Work
         rdf:about="">
        <dc:format>image/svg+xml</dc:format>
        <dc:type
           rdf:resource="http://purl.org/dc/dcmitype/StillImage" />
        <dc:title></dc:title>
      </cc:Work>
    </rdf:RDF>
  </metadata>
  <g
     inkscape:groupmode="layer"
     id="layer4"
     inkscape:label="Layer 1">
    <g
       id="g916"
       transform="matrix(0.57361924,0,0,0.57361924,31.564367,13.976124)">
      <path
         style="fill:#c2deea;fill-opacity:1;stroke:none;stroke-width:0.264583px;stroke-linecap:butt;stroke-linejoin:miter;stroke-opacity:1"
         d="m -25.445502,-0.46302083 c 0,0 -0.92604,9.12812463 9.19427,17.59479083 0,0 -10.45104,8.797396 -8.33437,17.4625 0,0 11.77396,16.205729 20.5052099,0.79375 0,0 5.82083,-5.490104 -5.49011,-17.727083 0,0 7.80521,-9.1281247 6.94531,-17.06562452 0,0 -19.5791699,-4.56406238 -22.8203099,-1.05833331 z"
         id="path904" />
      <path
         style="fill:#ffffff;stroke:none;stroke-width:0.264583px;stroke-linecap:butt;stroke-linejoin:miter;stroke-opacity:1"
         d="m -17.071842,25.724691 c 0,0 -5.56589,4.209494 -4.81753,6.501331 0.74835,2.291837 1.63702,5.893292 5.98683,6.407788 4.34981,0.514492 9.4947499,-0.935445 10.1027899,-4.630447 0.60804,-3.694999 1.82412,-3.461139 -1.54348,-6.501331 -3.3675999,-3.04019 -9.7286099,-1.777341 -9.7286099,-1.777341 z"
         id="path906" />
      <g
         id="g890"
         transform="translate(-120.57105)">
        <path
           style="fill:#98ceea;stroke-width:0.264583"
           d="m 116.60706,3.590209 c -0.26373,2.7932387 -1.74033,5.252343 -4.79038,8.845124 -1.6424,1.934655 -2.27744,2.601313 -0.82288,0.803444 3.17163,-3.9202085 4.11354,-5.6239552 5.04382,-9.1233965 0.27772,-1.0447134 0.36916,-1.7321035 0.46997,-1.9639168 0.14389,-0.3308868 0.21588,0.2057772 0.0995,1.4387453 z m -9.73084,9.585747 c -0.6768,0.140166 -1.22472,0.07379 -1.26498,0.233895 -0.0403,0.160103 1.03238,2.45838 2.54532,5.268975 1.51294,2.810593 3.23576,6.346195 3.82849,7.856892 0.9382,2.391226 1.18589,2.836645 1.91373,3.44153 1.67032,1.388131 2.6309,2.479686 0.7663,5.221019 -0.71839,1.056177 -1.74761,1.426406 -1.04359,0.841211 1.59555,-1.326235 2.64057,-5.341889 2.02684,-7.788481 -0.44463,-1.772485 -1.11315,-3.60412 -0.4913,-2.400226 0.4545,0.879905 1.0616,2.657609 1.18198,3.578005 0.278,2.125652 -0.27603,4.265112 -1.38941,5.983362 -0.56764,0.876015 -1.71163,2.248691 -2.88803,2.97336 -1.30204,0.802063 -3.28561,1.346586 -4.37704,1.374407 -6.43276,0.163971 -11.769736,-5.643575 -10.000821,-11.535634 0.725125,-2.415312 1.814124,-3.992592 4.970231,-7.198772 3.64889,-3.706781 3.61976,-3.481626 0.85444,-6.603512 -5.297865,-5.9809432 -6.144998,-7.2936274 -7.074117,-10.9617239 -0.521688,-2.0595856 -0.38232,-3.55241029 0.503458,-3.2327216 2.218887,0.8008241 13.406399,1.1979012 17.408879,0.816652 1.589,-0.1513573 1.4458,0.1544292 1.5411,0.3093839 0.0952,0.1550187 -0.18486,1.9566273 -0.84432,4.5794417 -0.65946,2.6228144 -4.69901,6.5246789 -8.16716,7.2429369 z m 6.11962,16.859129 c -0.70649,-0.499414 -1.70048,-1.440282 -2.20888,-2.090816 -1.25112,-1.600895 -1.84615,-1.690042 -3.815,-0.571575 -0.85076,0.483298 -1.97316,1.026543 -2.49423,1.207213 -0.76718,0.265999 -1.00781,0.486469 -1.26494,1.158947 -0.17465,0.456754 -0.65466,1.113118 -1.06668,1.458588 -1.47428,1.211806 -2.825962,1.973864 -1.93368,3.772797 1.20101,2.290413 2.10772,2.305219 4.72652,2.927944 4.25452,1.011649 8.57007,-1.169683 9.95301,-5.207157 0.4363,-1.27379 -0.21885,-1.470286 -1.89612,-2.655941 z"
           id="path902"
           sodipodi:nodetypes="ssssssscsssssscsssasscsssssccssssscccss" />
        <path
           style="fill:#52a9c9;fill-opacity:1;stroke-width:0.264583"
           d="m 109.9835,18.877398 c 1.67453,1.64988 3.83584,4.226517 4.8062,6.022053 0.71077,1.315197 1.12607,2.374029 1.48242,3.806723 0.27483,1.12918 0.16396,3.266789 -0.34434,3.822795 -0.47276,0.475045 -0.8554,-0.560141 -1.0727,-1.04692 -0.18263,-0.399182 -1.19013,-0.875761 -1.48038,-1.342274 -0.49994,-0.803552 -0.45169,-1.212831 -1.38989,-3.604057 -0.59273,-1.510697 -2.31555,-5.046299 -3.82849,-7.856892 -1.51294,-2.810595 -2.71786,-5.241164 -2.67761,-5.401267 0.56947,-0.193173 0.59623,-0.139483 1.23758,-0.397111 3.3524,-1.346643 7.4803,-4.5584753 8.50306,-8.6260988 0.57472,-2.2857628 0.3532,-3.187131 -0.17981,-3.36168893 -0.30112,-0.098617 -0.23089,-0.1168987 -0.2118,-0.19281866 0.0803,-0.3194671 1.71776,-0.41697457 1.92911,-0.13333607 0.1271,0.1705759 0.004,2.28848166 -0.072,2.95518836 -0.33922,2.9785096 -1.49119,4.8932343 -3.22571,7.2813951 -1.73452,2.388161 -2.42613,3.045106 -3.58546,4.456023 -1.15932,1.410918 -0.92017,2.603501 0.10977,3.618286 z"
           id="path900"
           sodipodi:nodetypes="sscccssscssscssccs" />
        <path
           style="fill:#a34e06;fill-opacity:1;stroke-width:0.264583"
           d="m 124.54933,-6.2589768 c -0.0704,2.6954778 -2.27435,4.4824796 -7.05851,5.97448645 -6.964,2.17181675 -19.475833,1.51219115 -23.968272,-1.26361165 -2.879262,-1.7790456 -4.126511,-4.6146894 -3.113007,-7.0774811 1.861679,-4.5238489 18.347169,-6.4393839 28.206379,-3.2774439 4.20331,1.348042 6.00322,2.9705113 5.93341,5.6440502 z m -2.60159,-3.7883292 c -7.86548,-5.035156 -29.948425,-3.471222 -31.380006,2.2223648 -0.585726,2.3295118 0.864507,3.326033 6.080625,4.6235256 8.449541,2.1017993 17.127431,1.8919005 23.439061,-0.8506669 4.32115,-1.8776496 4.97928,-3.9985948 1.86032,-5.9952235 z m 1.92246,52.285823 c -0.12867,2.196349 -0.75686,3.934861 -3.69381,5.704144 -6.67465,4.020955 -16.54616,4.215141 -25.431249,1.210424 -3.785057,-1.280012 -5.679776,-4.630938 -5.934942,-7.760792 -0.181631,-2.227883 0.770391,-2.246855 5.274434,-5.535484 1.243848,-0.908196 2.406873,-1.660387 2.670246,-1.928784 0.365609,-0.372577 0.434334,-0.283046 0.366074,0.03883 -0.04985,0.235056 -1.400171,1.15425 -3.169815,2.475362 -3.799119,2.8362 -4.584632,3.795934 -4.435316,5.419038 0.217858,2.368173 2.106159,3.466563 6.228891,4.839619 8.577887,2.856822 16.757547,2.487363 23.450197,-1.429661 4.35089,-2.546457 4.85686,-3.146583 3.30252,-5.745104 -0.79661,-1.331767 -3.27167,-3.486702 -5.0659,-4.410683 -1.16674,-0.60084 -0.75333,0.237775 -0.68776,-0.299803 0.0596,-0.48844 0.0922,-0.518557 0.16818,-0.155046 0.0518,0.248131 0.1835,-0.166259 0.96966,0.281701 3.43118,1.95512 6.11498,5.138757 5.98859,7.296239 z m -5.55589,-2.71768 c -0.14871,0.508868 -0.54932,1.057653 -0.8045,1.29098 -0.25517,0.233328 -0.68571,0.628104 -0.95675,0.87728 -1.40458,1.291297 -7.16762,2.490639 -11.99631,2.496546 -5.327095,0.0065 -8.717366,-1.467095 -9.73831,-4.232845 -0.495724,-1.342923 -0.947367,-3.405185 0.734759,-2.101082 2.564419,1.988118 8.610081,3.080517 12.860561,2.297636 3.28204,-0.604507 6.11065,-2.3668 8.53271,-3.484599 1.83469,-0.846725 1.84453,1.224918 1.36784,2.856084 z"
           id="path894"
           sodipodi:nodetypes="ssssssssssssssssssssssssscsssssssssss" />
        <path
           style="fill:#5e2408;stroke-width:0.264583"
           d="m 126.79549,-6.1328996 c -0.0671,3.3083734 -1.46875,4.6766496 -5.2738,6.95268521 -2.76268,1.65253069 -1.68692,2.21379669 -2.43132,5.00657549 -0.82459,3.0936669 -1.92694,5.0606859 -4.77813,8.5260859 -2.32056,2.820472 -2.31186,2.74823 -0.56533,4.693916 4.2243,4.705996 5.97619,8.618176 5.57463,12.448817 -0.11451,1.092284 -0.11451,1.092284 1.22769,2.040382 5.87614,4.150693 7.40261,9.412047 4.32146,13.259336 -3.3286,4.156272 -10.47088,6.642326 -17.86542,6.809631 -5.57807,0.126206 -12.138396,-1.137971 -15.745011,-3.632673 -3.322859,-2.298427 -5.021661,-5.364897 -4.683497,-9.066666 0.156742,-1.715801 1.339324,-3.282296 3.330213,-4.878021 1.308841,-1.049054 2.845108,-2.282259 3.413927,-2.740457 0.926686,-0.746468 1.030768,-0.956829 1.001042,-2.023239 -0.107619,-3.860795 1.667767,-7.540057 5.544471,-11.490198 C 102.03417,17.5647 102.3561,17.00386 101.76778,16.461309 98.211534,13.181743 95.274678,8.9571311 94.123147,5.4646533 93.702854,4.1899486 93.261316,2.8585836 93.141951,2.5060644 93.018781,2.1423082 92.45768,1.5271105 91.844513,1.0835423 c -2.68473,-1.94215524 -4.80419,-5.7311254 -4.503267,-8.1012315 0.737307,-5.8071218 5.423945,-6.8393658 10.007466,-7.9659908 8.464998,-2.080689 20.702088,-0.720489 25.739088,2.502063 2.81231,1.799247 3.76689,3.4302921 3.70769,6.3487174 z m -4.66996,-4.2274994 c -7.3918,-4.889814 -29.487147,-3.681235 -31.715989,1.7348159 -1.013504,2.4627917 0.233745,5.2984355 3.113007,7.0774811 3.295976,2.03653044 13.440312,2.9539919 19.634032,2.00881586 4.62378,-0.70560049 9.53079,-2.61604266 10.61234,-4.41595506 0.41722,-0.6943453 0.61303,-1.1132886 0.64092,-2.6437419 0.0288,-1.5794891 -0.76694,-2.7576501 -2.28431,-3.7614159 z M 116.14111,0.93547834 C 113.10539,1.8518404 103.50554,1.7888355 98.833859,0.82188932 95.867822,0.20797593 95.597123,0.30693908 95.74458,1.9512597 c 0.3191,3.5583054 2.239069,7.0353407 6.39652,11.5840113 2.44473,2.674771 3.20548,3.722472 2.99618,4.126307 -0.0699,0.134813 -1.27708,1.42174 -2.68269,2.859835 -4.416062,4.518116 -5.798002,7.859047 -5.270712,11.266893 0.06174,0.399 0.09082,0.843255 0.109624,1.281466 0.0458,1.067301 -1.210513,1.589505 -3.040833,2.686587 -1.569462,0.940725 -4.472103,3.504621 -4.850365,4.284316 -0.972469,2.004509 0.169813,5.858397 2.533079,7.306065 4.242135,2.59861 12.836627,4.379426 18.974337,3.257341 3.52784,-0.644952 9.12917,-2.194453 11.16522,-4.291477 1.23241,-1.269322 1.8896,-3.486761 1.53226,-5.130911 -0.49488,-2.276982 -2.52513,-4.376001 -5.77406,-6.275573 -0.84616,-0.494732 -1.5478,-0.587304 -1.76295,-1.10021 -0.0164,-0.267352 0.19593,-0.629947 0.37399,-1.51659 0.20896,-1.040505 0.30033,-2.347909 0.11184,-3.514293 -0.44467,-2.751781 -2.01177,-5.547262 -4.6049,-8.230958 -3.18502,-3.296263 -3.17632,-3.18796 -0.52004,-6.47672 4.02829,-4.9874629 5.37887,-7.4844866 5.70293,-10.543926 0.24539,-2.3167202 0.0236,-2.89478852 -0.9929,-2.58794466 z"
           id="path892"
           sodipodi:nodetypes="sssssscssssssscsssssssssssssssssssssssssssssscssssss" />
        <path
           style="fill:#cb7934;stroke-width:0.264583"
           d="m 124.17775,-7.180832 c -0.28211,1.9790419 -5.21064,4.1481601 -11.05401,5.1351753 -4.18938,0.7076391 -11.3499,0.2763288 -16.442308,-0.9903943 -5.216118,-1.2974926 -7.073601,-2.5996949 -6.487875,-4.9292067 0.596944,-2.3741243 4.188359,-4.1883203 10.743193,-5.1687553 5.95562,-0.890808 13.23521,-0.265527 17.96514,1.303294 3.5616,1.181307 5.51554,2.9684811 5.27586,4.649887 z m -0.53299,48.529395 c 0.33784,2.43248 -7.20934,6.263095 -13.49069,7.127406 -3.75826,0.517135 -8.81217,0.162561 -12.779497,-0.983477 -1.962361,-0.566865 -3.6487,-1.156471 -4.962365,-1.948823 -1.20221,-0.725127 -2.0923,-1.343897 -2.596189,-2.122213 -0.907138,-1.401183 -1.017617,-2.659969 -0.07529,-3.886992 0.660884,-0.860551 1.896605,-1.901923 3.570826,-3.129184 1.101476,-0.80742 2.288156,-1.965083 2.902971,-2.467179 0.334046,-0.316955 0.691142,-0.543115 1.011,-0.876722 0.06914,-0.112172 0.05799,-0.270929 0.142308,-0.05395 0.146805,0.377792 0.673752,1.386242 1.095639,2.079082 1.561027,2.563579 3.765407,3.997408 6.256797,4.592267 2.50291,0.597611 5.29518,0.346324 7.88227,-1.391524 1.1511,-0.783691 1.92186,-1.656746 2.61906,-2.872319 0.30236,-0.527171 0.61577,-1.136247 0.87147,-1.820925 0.10708,0.01 0.9365,0.872536 1.64573,1.256692 2.82026,1.52761 5.61193,4.38084 5.90596,6.497856 z m -7.59865,-2.906468 c -4.10854,2.136948 -10.00593,2.981779 -15.0376,1.801764 -1.655624,-0.388272 -3.481847,-1.051185 -4.744243,-1.796831 -0.554321,-0.327415 -0.913798,-0.68329 -1.273147,-0.875721 -0.455262,-0.243793 -0.620163,1.097684 -0.304972,1.951543 0.451972,1.2244 1.665952,2.29478 3.0091,2.996392 1.690838,0.883234 4.620312,1.636955 7.589102,1.633328 3.52003,-0.0043 7.27922,-0.849164 9.64021,-1.724163 1.50414,-0.557441 2.6306,-1.587916 3.23211,-2.900676 0.36732,-0.801645 0.53554,-1.660074 0.23588,-2.247599 -0.19736,-0.38694 -1.0233,0.473767 -2.34644,1.161963 z"
           id="path896"
           sodipodi:nodetypes="ssssssssssssssccssscscssssssssssssss" />
      </g>
    </g>
  </g>
</svg>
