<?xml version="1.0" encoding="UTF-8" standalone="no"?>
<svg
   xmlns:dc="http://purl.org/dc/elements/1.1/"
   xmlns:cc="http://creativecommons.org/ns#"
   xmlns:rdf="http://www.w3.org/1999/02/22-rdf-syntax-ns#"
   xmlns:svg="http://www.w3.org/2000/svg"
   xmlns="http://www.w3.org/2000/svg"
   xmlns:sodipodi="http://sodipodi.sourceforge.net/DTD/sodipodi-0.dtd"
   xmlns:inkscape="http://www.inkscape.org/namespaces/inkscape"
   height="51.2px"
   width="42.9px"
   version="1.1"
   id="svg14"
   sodipodi:docname="505.svg"
   inkscape:version="1.0.2-2 (e86c870879, 2021-01-15)">
  <metadata
     id="metadata20">
    <rdf:RDF>
      <cc:Work
         rdf:about="">
        <dc:format>image/svg+xml</dc:format>
        <dc:type
           rdf:resource="http://purl.org/dc/dcmitype/StillImage" />
      </cc:Work>
    </rdf:RDF>
  </metadata>
  <defs
     id="defs18" />
  <sodipodi:namedview
     pagecolor="#ffffff"
     bordercolor="#666666"
     borderopacity="1"
     objecttolerance="10"
     gridtolerance="10"
     guidetolerance="10"
     inkscape:pageopacity="0"
     inkscape:pageshadow="2"
     inkscape:window-width="854"
     inkscape:window-height="480"
     id="namedview16"
     showgrid="false"
     inkscape:zoom="4.8263888"
     inkscape:cx="21.450001"
     inkscape:cy="25.6"
     inkscape:window-x="502"
     inkscape:window-y="82"
     inkscape:window-maximized="0"
     inkscape:current-layer="svg14" />
  <g
     transform="matrix(-0.99373448,0,0,1,63.354037,25.65)"
     id="g12">
    <path
       d="m 23.6,18.85 q 6.35,4.7 14.15,4.7 9.65,0 16.55,-6.75 7.05,-6.9 7.05,-16.85 0,-8.95 -6.1,-15.85 -6.8,-7.75 -17.5,-7.75 -7.8,0 -13.95,4.55 h -3.15 q 7.15,-6.55 17.1,-6.55 11.85,0 19.2,8.7 6.4,7.55 6.4,16.9 0,9.25 -6.3,16.8 -7.35,8.8 -19.3,8.8 -9.95,0 -17.3,-6.7 h 3.15"
       fill="#000000"
       fill-opacity="0.301961"
       fill-rule="evenodd"
       stroke="none"
       id="path2" />
    <path
       d="m 22.45,16.5 q 6.2,5.7 15.3,5.95 8.85,0.2 15.55,-6.2 7,-6.65 6.95,-16.3 -0.05,-9.2 -6.1,-15.65 -6.45,-6.85 -16.4,-6.85 -8.8,0 -15.3,5.95 l 1.6,0.05 h -3.2 l 2.95,-2.55 q 6.15,-4.55 13.95,-4.55 10.7,0 17.5,7.75 6.1,6.9 6.1,15.85 0,9.95 -7.05,16.85 -6.9,6.75 -16.55,6.75 -7.8,0 -14.15,-4.7 L 20.9,16.5 h 1.55"
       fill="#fa75b2"
       fill-rule="evenodd"
       stroke="none"
       id="path4" />
    <path
       d="m 22.95,15.55 q 3.55,3.7 9.5,5.15 l 5.3,0.75 q 7.95,0 14.15,-5.1 7.35,-6.1 7.35,-16.4 0,-8.75 -6.15,-15.05 -6.3,-6.45 -15.35,-6.45 -3.45,0 -7.25,1.45 -3.55,1.35 -6.45,3.55 l -1.6,-0.05 q 6.5,-5.95 15.3,-5.95 9.95,0 16.4,6.85 6.05,6.45 6.1,15.65 0.05,9.65 -6.95,16.3 -6.7,6.4 -15.55,6.2 -9.1,-0.25 -15.3,-5.95 l -1,-0.95 h 1.5"
       fill="#ffb0d2"
       fill-rule="evenodd"
       stroke="none"
       id="path6" />
    <path
       d="m 26.5,15.55 q 2.6,1.75 5.7,2.7 2.9,0.9 5.55,0.9 6.7,0 12.2,-4.2 7,-5.35 7,-15 0,-9.25 -6.45,-14.6 -5.5,-4.6 -12.75,-4.6 -2.75,0 -5.75,0.9 -3.25,0.95 -5.65,2.7 H 22.9 l 1.15,-0.9 q 2.9,-2.2 6.45,-3.55 3.8,-1.45 7.25,-1.45 9.05,0 15.35,6.45 6.15,6.3 6.15,15.05 0,10.3 -7.35,16.4 -6.2,5.1 -14.15,5.1 l -5.3,-0.75 q -5.95,-1.45 -9.5,-5.15 h 3.55"
       fill="#9dd4e8"
       fill-rule="evenodd"
       stroke="none"
       id="path8" />
    <path
       d="m 26.35,-15.65 q 2.4,-1.75 5.65,-2.7 3,-0.9 5.75,-0.9 7.25,0 12.75,4.6 6.45,5.35 6.45,14.6 0,9.65 -7,15 -5.5,4.2 -12.2,4.2 -2.65,0 -5.55,-0.9 -3.1,-0.95 -5.7,-2.7 l -2.3,-1.9 h 5.65 v -26.8 L 24.1,-13.7 q 1,-1.05 2.25,-1.95"
       fill="#ffffff"
       fill-rule="evenodd"
       stroke="none"
       id="path10" />
  </g>
</svg>
