<?xml version="1.0" encoding="UTF-8" ?>
<!DOCTYPE svg PUBLIC "-//W3C//DTD SVG 1.1//EN" "http://www.w3.org/Graphics/SVG/1.1/DTD/svg11.dtd">
<svg width="376pt" height="344pt" viewBox="0 0 376 344" version="1.1" xmlns="http://www.w3.org/2000/svg">
<g id="#316223ff">
<path fill="#316223" opacity="1.00" d=" M 178.43 50.63 C 210.39 47.98 243.11 58.71 267.43 79.58 C 299.23 106.33 315.72 150.27 308.57 191.28 C 305.03 216.14 292.88 239.53 275.51 257.53 C 248.02 285.60 206.50 299.51 167.74 292.28 C 134.76 286.74 104.42 266.86 86.19 238.82 C 73.38 219.10 66.05 195.58 66.60 172.00 C 66.17 133.23 86.12 95.05 117.85 72.86 C 135.55 60.09 156.76 52.67 178.43 50.63 M 180.91 58.63 C 152.18 60.41 124.40 73.78 104.86 94.88 C 86.61 114.64 75.43 141.06 74.76 168.01 C 73.78 192.12 80.79 216.65 94.78 236.35 C 111.66 262.09 140.30 279.47 170.55 284.35 C 213.56 291.73 259.93 271.13 283.22 234.21 C 308.64 196.74 307.85 143.86 281.50 107.07 C 259.26 75.00 219.92 55.72 180.91 58.63 Z" />
</g>
<g id="#4d9531ff">
<path fill="#4d9531" opacity="1.00" d=" M 180.91 58.63 C 219.92 55.72 259.26 75.00 281.50 107.07 C 282.15 114.83 272.80 116.40 267.94 112.12 C 258.33 99.37 246.35 88.00 231.69 81.31 C 214.97 73.56 196.15 68.79 177.69 71.76 C 144.99 75.58 114.82 96.18 99.08 125.05 C 89.69 143.20 85.03 164.08 87.61 184.47 C 89.45 196.80 93.70 208.64 99.17 219.79 C 100.77 224.76 103.34 229.55 103.81 234.80 C 102.86 238.91 97.57 237.66 94.78 236.35 C 80.79 216.65 73.78 192.12 74.76 168.01 C 75.43 141.06 86.61 114.64 104.86 94.88 C 124.40 73.78 152.18 60.41 180.91 58.63 Z" />
</g>
<g id="#041313ff">
<path fill="#041313" opacity="1.00" d=" M 177.69 71.76 C 196.15 68.79 214.97 73.56 231.69 81.31 C 246.35 88.00 258.33 99.37 267.94 112.12 C 280.40 129.51 288.28 150.47 288.33 172.01 C 287.53 202.33 273.50 232.66 248.99 250.99 C 234.72 261.24 218.41 269.33 200.85 271.73 C 189.63 273.17 178.18 272.36 167.17 269.88 C 138.65 264.04 113.80 244.71 99.17 219.79 C 93.70 208.64 89.45 196.80 87.61 184.47 C 85.03 164.08 89.69 143.20 99.08 125.05 C 114.82 96.18 144.99 75.58 177.69 71.76 M 183.39 74.30 C 161.24 76.16 139.27 84.58 123.00 99.98 C 106.46 114.46 95.35 134.74 91.24 156.27 C 83.61 196.67 106.53 239.84 142.93 258.15 C 156.44 265.43 171.67 269.20 186.95 269.83 C 214.07 269.92 240.50 257.62 259.07 238.08 C 273.21 222.88 282.62 203.21 284.86 182.53 C 287.58 164.21 283.16 145.41 275.07 128.96 C 258.53 95.09 221.12 72.48 183.39 74.30 Z" />
</g>
<g id="#3787c7ff">
<path fill="#3787c7" opacity="1.00" d=" M 183.39 74.30 C 221.12 72.48 258.53 95.09 275.07 128.96 C 283.16 145.41 287.58 164.21 284.86 182.53 C 282.62 203.21 273.21 222.88 259.07 238.08 C 240.50 257.62 214.07 269.92 186.95 269.83 C 171.67 269.20 156.44 265.43 142.93 258.15 C 106.53 239.84 83.61 196.67 91.24 156.27 C 95.35 134.74 106.46 114.46 123.00 99.98 C 139.27 84.58 161.24 76.16 183.39 74.30 M 180.43 79.47 C 165.05 80.64 150.21 86.17 137.05 94.08 C 115.17 106.75 101.24 130.39 96.83 154.89 C 92.76 180.49 97.58 208.46 113.81 229.18 C 122.34 239.10 132.94 247.09 144.07 253.87 C 155.33 259.28 167.61 262.61 179.99 264.15 C 211.78 266.36 246.45 253.74 264.09 226.06 C 287.28 192.31 285.48 143.36 259.21 111.78 C 249.86 101.62 239.43 91.78 226.46 86.50 C 211.80 81.13 196.05 78.47 180.43 79.47 Z" />
</g>
<g id="#6dc4ffff">
<path fill="#6dc4ff" opacity="1.00" d=" M 180.43 79.47 C 196.05 78.47 211.80 81.13 226.46 86.50 C 239.43 91.78 249.86 101.62 259.21 111.78 C 285.48 143.36 287.28 192.31 264.09 226.06 C 246.45 253.74 211.78 266.36 179.99 264.15 C 167.61 262.61 155.33 259.28 144.07 253.87 C 132.94 247.09 122.34 239.10 113.81 229.18 C 97.58 208.46 92.76 180.49 96.83 154.89 C 101.24 130.39 115.17 106.75 137.05 94.08 C 150.21 86.17 165.05 80.64 180.43 79.47 M 186.07 101.06 C 183.33 104.92 182.27 109.71 179.60 113.64 C 174.98 120.29 173.86 129.70 178.19 136.77 C 181.42 143.23 184.19 150.42 183.71 157.75 C 182.26 162.15 177.11 164.19 175.66 168.64 C 174.61 172.71 175.50 177.44 178.55 180.46 C 182.13 184.18 188.36 184.19 191.17 188.82 C 196.63 197.12 199.34 207.13 199.20 217.04 C 198.44 225.95 205.43 233.31 212.77 237.26 C 218.24 239.99 222.70 245.27 229.17 245.47 C 229.12 234.98 230.88 223.72 226.00 213.98 C 223.72 209.10 218.80 206.45 214.78 203.20 C 207.85 197.78 201.12 191.29 197.96 182.90 C 197.85 177.77 201.82 172.68 199.40 167.58 C 197.58 163.05 191.45 160.59 192.13 155.13 C 192.50 146.58 197.22 139.24 200.32 131.55 C 202.96 121.35 195.08 113.16 191.66 104.31 C 190.90 102.10 188.55 98.57 186.07 101.06 Z" />
</g>
<g id="#000000ff">
<path fill="#000000" opacity="1.00" d=" M 186.07 101.06 C 188.55 98.57 190.90 102.10 191.66 104.31 C 195.08 113.16 202.96 121.35 200.32 131.55 C 197.22 139.24 192.50 146.58 192.13 155.13 C 191.45 160.59 197.58 163.05 199.40 167.58 C 201.82 172.68 197.85 177.77 197.96 182.90 C 201.12 191.29 207.85 197.78 214.78 203.20 C 218.80 206.45 223.72 209.10 226.00 213.98 C 230.88 223.72 229.12 234.98 229.17 245.47 C 222.70 245.27 218.24 239.99 212.77 237.26 C 205.43 233.31 198.44 225.95 199.20 217.04 C 199.34 207.13 196.63 197.12 191.17 188.82 C 188.36 184.19 182.13 184.18 178.55 180.46 C 175.50 177.44 174.61 172.71 175.66 168.64 C 177.11 164.19 182.26 162.15 183.71 157.75 C 184.19 150.42 181.42 143.23 178.19 136.77 C 173.86 129.70 174.98 120.29 179.60 113.64 C 182.27 109.71 183.33 104.92 186.07 101.06 Z" />
</g>
<g id="#3b8332ff">
<path fill="#3b8332" opacity="1.00" d=" M 281.50 107.07 C 307.85 143.86 308.64 196.74 283.22 234.21 C 259.93 271.13 213.56 291.73 170.55 284.35 C 140.30 279.47 111.66 262.09 94.78 236.35 C 97.57 237.66 102.86 238.91 103.81 234.80 C 103.34 229.55 100.77 224.76 99.17 219.79 C 113.80 244.71 138.65 264.04 167.17 269.88 C 178.18 272.36 189.63 273.17 200.85 271.73 C 218.41 269.33 234.72 261.24 248.99 250.99 C 273.50 232.66 287.53 202.33 288.33 172.01 C 288.28 150.47 280.40 129.51 267.94 112.12 C 272.80 116.40 282.15 114.83 281.50 107.07 Z" />
</g>
</svg>
