<?xml version="1.0" encoding="UTF-8" standalone="no"?>
<!-- Created with Inkscape (http://www.inkscape.org/) -->

<svg
   width="24.457024mm"
   height="11.190809mm"
   viewBox="0 0 24.457023 11.190809"
   version="1.1"
   id="svg14249"
   xml:space="preserve"
   inkscape:version="1.2.2 (732a01da63, 2022-12-09)"
   sodipodi:docname="platform shadow 1.svg"
   xmlns:inkscape="http://www.inkscape.org/namespaces/inkscape"
   xmlns:sodipodi="http://sodipodi.sourceforge.net/DTD/sodipodi-0.dtd"
   xmlns="http://www.w3.org/2000/svg"
   xmlns:svg="http://www.w3.org/2000/svg"><sodipodi:namedview
     id="namedview14251"
     pagecolor="#505050"
     bordercolor="#eeeeee"
     borderopacity="1"
     inkscape:showpageshadow="0"
     inkscape:pageopacity="0"
     inkscape:pagecheckerboard="0"
     inkscape:deskcolor="#505050"
     inkscape:document-units="mm"
     showgrid="false"
     inkscape:zoom="7.1553311"
     inkscape:cx="47.726653"
     inkscape:cy="23.339242"
     inkscape:window-width="1366"
     inkscape:window-height="705"
     inkscape:window-x="-8"
     inkscape:window-y="-8"
     inkscape:window-maximized="1"
     inkscape:current-layer="layer1" /><defs
     id="defs14246" /><g
     inkscape:label="shadow"
     inkscape:groupmode="layer"
     id="layer1"
     transform="translate(-63.232409,-89.521951)"><path
       id="path14318"
       style="display:inline;fill:#546410;fill-opacity:1;stroke-width:1.08198"
       transform="translate(60.912418,85.33847)"
       d="m 26.565101,9.7788858 c 0,1.6268882 -1.498953,3.0916092 -3.892037,4.1140072 0.05956,-1.1306 -0.593521,-1.541008 -0.859664,0.334574 -2.032487,0.719452 -4.572546,1.146823 -7.328099,1.146823 -0.465135,0 -0.924129,-0.01218 -1.375579,-0.03588 -0.01904,-0.72395 -0.734507,-0.680764 -1.202447,-0.09183 C 9.1999733,14.973974 6.8313687,14.280913 5.1361872,13.322448 4.7088919,12.410183 4.5968521,12.394315 4.3131447,12.798056 3.1057563,11.927061 2.4055014,10.890852 2.4055014,9.7788858 c 0,-0.1934413 0.021192,-0.3845898 0.062559,-0.5729747 C 2.217908,8.7288756 2.2566285,8.2769753 2.8022924,8.3511574 4.1648369,5.9524872 8.8790732,4.1834813 14.485301,4.1834812 c 3.336529,-1e-7 6.357114,0.6265813 8.54325,1.63957 1.600242,-1.9312473 1.854362,-2.1779254 0.982797,0.5147269 1.123963,-1.809177 1.163592,-1.1108361 0.947732,0.6514613 0.129005,0.1036976 0.251039,0.2094911 0.365806,0.317243 1.438859,-0.3841202 2.156948,0.2535354 0.489123,0.5257812 0.485709,0.6062498 0.751092,1.2620807 0.751092,1.9466222 z"
       sodipodi:nodetypes="sccsccccsccscccccs" /><path
       id="path17121"
       style="display:inline;fill:#43450e;stroke-width:1.2389"
       d="m 85.465204,95.340775 c 10e-7,1.066206 -0.776898,2.049093 -2.084946,2.835823 -0.372685,-0.943974 -1.583089,-0.488927 -2.163807,0.965266 -1.671853,0.551656 -3.722522,0.876516 -5.938436,0.876516 -5.626231,0 -10.187192,-2.094236 -10.187189,-4.677605 0,-0.117647 0.0095,-0.234279 0.02805,-0.349746 -0.201465,-1.091622 -0.02627,-1.634349 0.495014,-1.133849 1.350935,-1.856154 5.16727,-3.194008 9.664128,-3.194008 5.62623,0 10.187186,2.094234 10.187189,4.677603 z"
       sodipodi:nodetypes="sccscccss" /></g></svg>
