<?xml version="1.0" encoding="UTF-8" standalone="no"?>
<!-- Generator: Adobe Illustrator 22.0.0, SVG Export Plug-In . SVG Version: 6.00 Build 0)  -->

<svg
   version="1.1"
   id="base"
   x="0px"
   y="0px"
   viewBox="0 0 489.6 110.4"
   style="enable-background:new 0 0 489.6 110.4;"
   xml:space="preserve"
   sodipodi:docname="Highscore Rounded Rectangle 1.svg"
   inkscape:version="1.1.1 (3bf5ae0d25, 2021-09-20)"
   xmlns:inkscape="http://www.inkscape.org/namespaces/inkscape"
   xmlns:sodipodi="http://sodipodi.sourceforge.net/DTD/sodipodi-0.dtd"
   xmlns:xlink="http://www.w3.org/1999/xlink"
   xmlns="http://www.w3.org/2000/svg"
   xmlns:svg="http://www.w3.org/2000/svg"><defs
   id="defs23" /><sodipodi:namedview
   id="namedview21"
   pagecolor="#ffffff"
   bordercolor="#666666"
   borderopacity="1.0"
   inkscape:pageshadow="2"
   inkscape:pageopacity="0.0"
   inkscape:pagecheckerboard="0"
   showgrid="false"
   inkscape:zoom="0.3820052"
   inkscape:cx="664.91241"
   inkscape:cy="325.91179"
   inkscape:window-width="1293"
   inkscape:window-height="745"
   inkscape:window-x="-8"
   inkscape:window-y="-8"
   inkscape:window-maximized="1"
   inkscape:current-layer="base" />
<style
   type="text/css"
   id="style2">
	.st0{opacity:0.8;fill:#4B4AC9;}
	.st1{fill:#253F91;}
</style>
<path
   class="st0"
   d="m 715.3,153.49915 -903.2,-27.6 c -11,-0.4 -20.4,-8.4 -22,-19.4 l -13.4,-88.000004 c -1,-6.6 3.6,-12.8000005 10.2,-13.8000005 0.6,-0.2 1,-0.2 1.4,-0.2 L 732.1,-27.500854 c 8.4,-0.2 15.2,6.2 15.6,14.6 0,0.6 0,1 0,1.6 L 737.1,133.69915 c -0.8,11.4 -10.4,20 -21.8,19.8 z"
   id="path4"
   style="stroke-width:2" />
<g
   id="g12">
	<defs
   id="defs7">
		<path
   id="SVGID_1_"
   d="M473.4,90.4L21.8,76.7c-5.5-0.2-10.2-4.2-11-9.7L4.1,22.9c-0.5-3.3,1.8-6.4,5.1-6.9c0.2,0,0.5-0.1,0.7-0.1    L481.8,0c4.2-0.1,7.6,3.1,7.8,7.3c0,0.3,0,0.5,0,0.8l-5.3,72.5C483.9,86.2,479.1,90.6,473.4,90.4z" />
	</defs>
	<clipPath
   id="SVGID_2_">
		<use
   xlink:href="#SVGID_1_"
   style="overflow:visible;"
   id="use9" />
	</clipPath>
</g>
<g
   id="Layer_6"
   transform="matrix(2,0,0,2,-231.5,-27.500854)">
	<path
   class="st1"
   d="M -26.6,-35.5"
   id="path14" />
</g>

</svg>
