<svg xmlns="http://www.w3.org/2000/svg" xmlns:xlink="http://www.w3.org/1999/xlink" viewBox="0 0 411.79 491.94"><defs><style>.cls-1{fill:url(#linear-gradient);}.cls-2,.cls-5,.cls-7,.cls-8{fill:none;stroke-miterlimit:10;}.cls-2{stroke:#651b45;stroke-width:12px;}.cls-3{fill:url(#linear-gradient-2);}.cls-4{fill:url(#radial-gradient);}.cls-5,.cls-7{stroke:#dfa626;}.cls-5{stroke-width:11px;}.cls-6{fill:url(#radial-gradient-2);}.cls-7{stroke-width:9px;}.cls-8{stroke:#7c4832;stroke-width:13px;}</style><linearGradient id="linear-gradient" x1="84.03" y1="357.78" x2="218.93" y2="461.45" gradientUnits="userSpaceOnUse"><stop offset="0" stop-color="#c62062"/><stop offset="1" stop-color="#651b45"/></linearGradient><linearGradient id="linear-gradient-2" x1="212.32" y1="380.26" x2="429.95" y2="413.51" xlink:href="#linear-gradient"/><radialGradient id="radial-gradient" cx="133.44" cy="46.18" r="410.1" gradientUnits="userSpaceOnUse"><stop offset="0" stop-color="#f8ef64"/><stop offset="1" stop-color="#dfa626"/></radialGradient><radialGradient id="radial-gradient-2" cx="206.45" cy="136.67" r="406.17" xlink:href="#radial-gradient"/></defs><g id="Ribbon_1" data-name="Ribbon 1"><polygon id="color" class="cls-1" points="11 398.83 97.86 275.03 202.61 351.74 121.81 465.52 99.84 405.11 11 398.83"/><polygon id="lines" class="cls-2" points="11 398.83 97.86 275.03 202.61 351.74 121.81 465.52 99.84 405.11 11 398.83"/></g><g id="Ribbon_2" data-name="Ribbon 2"><polygon id="color-2" data-name="color" class="cls-3" points="335.37 461.09 326.86 296.17 202.61 344.33 211.17 481.68 273.07 444.28 335.37 461.09"/><polygon id="lines-2" data-name="lines" class="cls-2" points="335.37 461.09 326.86 296.17 202.61 344.33 211.17 481.68 273.07 444.28 335.37 461.09"/></g><g id="Metal"><circle id="color-3" data-name="color" class="cls-4" cx="232.67" cy="179.12" r="172.62"/><circle id="inner_circle" data-name="inner circle" class="cls-5" cx="232.67" cy="179.12" r="144.82"/><g id="Star"><path id="color-4" data-name="color" class="cls-6" d="M237.48,97.44s30.27-55,70.64-78c0,0,9.06-6.92,20,96.37a13.82,13.82,0,0,0,7.48,10.9c20.88,10.47,83.81,43.33,90.12,61.94,5.94,17.53-38.59,26.61-87.28,33.28,0,0,17.39,125.92-13.63,106.49-19.4-12.16-44.09-40.52-57.83-52.75A34.39,34.39,0,0,0,241.74,267c-26.62,1.88-83,12.82-114.06,10.57,0,0,7.12-39.29,49.85-96.73,0,0-45.73-46.53-45.15-82.19C132.38,98.68,168,89.76,237.48,97.44Z" transform="translate(-34.84 -4.53)"/><path id="lines-3" data-name="lines" class="cls-7" d="M237.48,97.44s31.2-51.74,71.57-74.72c0,0,8.13-10.2,19.09,93.09a13.82,13.82,0,0,0,7.48,10.9c20.88,10.47,87.53,45,93.84,63.62,6,17.53-42.31,24.93-91,31.6,0,0,22.65,126-8.36,106.54-19.4-12.16-49.36-40.57-63.1-52.8A34.39,34.39,0,0,0,241.74,267c-26.62,1.88-80.5,13-111.58,10.72,0,0,4.64-39.44,47.37-96.88,0,0-50.43-47.74-49.85-83.4C127.68,97.47,168,89.76,237.48,97.44Z" transform="translate(-34.84 -4.53)"/></g><circle id="lines-4" data-name="lines" class="cls-8" cx="232.67" cy="179.12" r="172.62"/></g></svg>